<?xml version="1.0" encoding="UTF-8"?>
<svg id="Layer_1" data-name="Layer 1" xmlns="http://www.w3.org/2000/svg" xmlns:xlink="http://www.w3.org/1999/xlink" viewBox="0 0 139.11 67.15">
  <defs>
    <style>
      .cls-1, .cls-2 {
        stroke-width: .99px;
      }

      .cls-1, .cls-2, .cls-3, .cls-4, .cls-5 {
        stroke-linecap: round;
      }

      .cls-1, .cls-2, .cls-4 {
        stroke: #fff;
        stroke-linejoin: round;
      }

      .cls-1, .cls-3, .cls-6, .cls-7, .cls-5 {
        fill: none;
      }

      .cls-8 {
        fill: #f5b335;
      }

      .cls-2, .cls-9, .cls-10, .cls-4 {
        fill: #fff;
      }

      .cls-9 {
        font-family: North-Regular, North;
        font-size: 21.92px;
      }

      .cls-11 {
        letter-spacing: .01em;
      }

      .cls-12 {
        fill: #231f20;
      }

      .cls-13 {
        letter-spacing: -.01em;
      }

      .cls-14 {
        fill: #fff1e2;
      }

      .cls-3 {
        stroke-width: .37px;
      }

      .cls-3, .cls-7, .cls-5, .cls-15 {
        stroke: #231f20;
        stroke-miterlimit: 10;
      }

      .cls-16 {
        fill: #7f2629;
      }

      .cls-17 {
        clip-path: url(#clippath-1);
      }

      .cls-18 {
        fill: #10312b;
      }

      .cls-19 {
        letter-spacing: -.12em;
      }

      .cls-20 {
        fill: #0097ce;
      }

      .cls-21 {
        clip-path: url(#clippath-3);
      }

      .cls-4 {
        stroke-width: .49px;
      }

      .cls-7 {
        stroke-width: .12px;
      }

      .cls-22 {
        fill: #aa182c;
      }

      .cls-23 {
        letter-spacing: .02em;
      }

      .cls-24 {
        letter-spacing: 0em;
      }

      .cls-25 {
        fill: #095540;
      }

      .cls-5, .cls-15 {
        stroke-width: .07px;
      }

      .cls-26 {
        letter-spacing: .02em;
      }

      .cls-27 {
        clip-path: url(#clippath-2);
      }

      .cls-28 {
        letter-spacing: -.06em;
      }

      .cls-15 {
        fill: #ffe168;
      }

      .cls-29 {
        fill: #fff0b8;
      }

      .cls-30 {
        clip-path: url(#clippath);
      }
    </style>
    <clipPath id="clippath">
      <path class="cls-10" d="M116.88,8.98c-1.08-1.77.3-3.45,1.45-3.45s1.45,1.05,1.45,1.05c0,0,.39-.59,1.38-.16s1.25,1.54,1.25,1.54c0,0,.49-.59,1.41-.36s1.22,1.74,1.22,1.74c0,0,.99-.49,1.77,0s.85,1.61.85,1.61c0,0,1.05-.59,1.97.49s.26,3.19.26,3.19c8.38,13.05-.77,23.03-6.25,25.76-1.11,12.79-6.5,22.38-10.44,21.07s-1.05-12.19,6.21-21.36c-5.82-7.26-2.23-13.24.56-17.02.35-.53.07-2.4-2.56-4.34.95-1.22,4.57-5.49-.53-9.76Z"/>
    </clipPath>
    <clipPath id="clippath-1">
      <path class="cls-10" d="M92.48,19.12c4.29-11.14,20.7-11.58,23.96-10.45s5.82,8.03,1.92,10.89c-16.86,3.06-21.89,2.07-21.89,2.07,0,0,5.77-6.16,19.17-5.73-13.55-2.84-23.16,3.22-23.16,3.22Z"/>
    </clipPath>
    <clipPath id="clippath-2">
      <path class="cls-6" d="M116.88,8.98c-1.08-1.77.3-3.45,1.45-3.45s1.45,1.05,1.45,1.05c0,0,.39-.59,1.38-.16s1.25,1.54,1.25,1.54c0,0,.49-.59,1.41-.36s1.22,1.74,1.22,1.74c0,0,.99-.49,1.77,0s.85,1.61.85,1.61c0,0,1.05-.59,1.97.49s.26,3.19.26,3.19c8.38,13.05-.77,23.03-6.25,25.76-1.11,12.79-6.5,22.38-10.44,21.07s-1.05-12.19,6.21-21.36c-5.82-7.26-2.23-13.24.56-17.02.35-.53.07-2.4-2.56-4.34.95-1.22,4.57-5.49-.53-9.76Z"/>
    </clipPath>
    <clipPath id="clippath-3">
      <path class="cls-6" d="M92.48,19.12c4.29-11.14,20.7-11.58,23.96-10.45s5.82,8.03,1.92,10.89c-16.86,3.06-21.89,2.07-21.89,2.07,0,0,5.77-6.16,19.17-5.73-13.55-2.84-23.16,3.22-23.16,3.22Z"/>
    </clipPath>
  </defs>
  <g id="Bird">
    <g id="legs_Feet" data-name="legs/Feet">
      <g>
        <g>
          <polyline class="cls-1" points="122.89 41.05 122.89 42.82 124.64 41.93"/>
          <line class="cls-2" x1="124.12" y1="44.31" x2="122.89" y2="42.82"/>
          <polyline class="cls-1" points="126.03 40.81 126.49 42.63 128.56 41.93"/>
          <polyline class="cls-1" points="128.42 43.75 126.49 42.63 124.85 44.5"/>
        </g>
        <line class="cls-2" x1="126.49" y1="42.63" x2="126.82" y2="44.5"/>
      </g>
      <g>
        <path class="cls-10" d="M122.89,41.3c-1.74,0-3.63-6.17-3.99-7.41-.04-.13.03-.26.16-.3.29-.1,7.08-2.45,8.97-2.45.08,0,.15.04.2.1.05.06.06.14.04.22-2.29,7.73-3.44,9.85-5.38,9.85Z"/>
        <path class="cls-10" d="M128.03,31.38h0M128.03,31.38c-2.37,8-3.5,9.67-5.14,9.67s-3.75-7.23-3.75-7.23c0,0,7.02-2.44,8.89-2.44M128.04,30.88h0c-1.93,0-8.76,2.37-9.05,2.47-.25.09-.39.35-.31.6.67,2.28,2.41,7.59,4.22,7.59,2.07,0,3.28-2.15,5.6-9.98.02-.06.04-.12.04-.18,0-.27-.22-.49-.49-.49h0ZM128.03,31.87h0,0Z"/>
      </g>
      <g>
        <path class="cls-10" d="M125.94,41.3c-1.74,0-3.63-6.17-3.99-7.41-.04-.13.03-.26.16-.3.29-.1,7.08-2.45,8.97-2.45.08,0,.15.04.2.1.05.06.06.14.04.22-2.29,7.73-3.44,9.85-5.38,9.85Z"/>
        <path class="cls-10" d="M131.08,31.38h0M131.08,31.38c-2.37,8-3.5,9.67-5.14,9.67s-3.75-7.23-3.75-7.23c0,0,7.02-2.44,8.89-2.44M131.08,30.88h0c-1.93,0-8.76,2.37-9.05,2.47-.25.09-.39.35-.31.6.67,2.28,2.41,7.59,4.22,7.59,2.07,0,3.28-2.15,5.6-9.98.02-.06.04-.12.04-.18,0-.27-.22-.49-.49-.49h0ZM131.08,31.87h0,0Z"/>
      </g>
    </g>
    <g id="Body">
      <g>
        <path class="cls-10" d="M113.94,61.83c-.28,0-.56-.04-.82-.13-.83-.28-1.4-.93-1.7-1.94-1.2-4.03,2.17-12.64,7.68-19.66-5.48-6.98-2.53-12.84.67-17.17.28-.41-.04-2.17-2.51-3.99-.05-.04-.09-.1-.1-.17,0-.07,0-.13.05-.19l.09-.11c1.04-1.31,4.19-5.31-.58-9.31-.58-.93-.62-1.9-.16-2.72.39-.7,1.1-1.17,1.77-1.17.82,0,1.3.48,1.54.89.16-.09.36-.16.62-.16.24,0,.49.06.76.18.73.32,1.1.96,1.27,1.36.2-.12.5-.25.88-.25.15,0,.31.02.48.06.8.2,1.18,1.16,1.33,1.65.2-.06.48-.13.79-.13.35,0,.67.09.94.26.61.38.84,1.07.92,1.48.13-.04.3-.07.49-.07.38,0,.95.13,1.47.74.88,1.04.47,2.84.34,3.31,3.17,4.98,4.11,9.94,2.79,14.73-1.47,5.31-5.59,9.44-9.08,11.22-1.01,11.35-5.64,21.28-9.93,21.28Z"/>
        <path class="cls-10" d="M118.33,5.53c1.15,0,1.45,1.05,1.45,1.05,0,0,.21-.32.72-.32.18,0,.4.04.66.16.99.43,1.25,1.54,1.25,1.54,0,0,.35-.41,1-.41.13,0,.27.02.42.05.92.23,1.22,1.74,1.22,1.74,0,0,.44-.22.96-.22.26,0,.55.05.81.22.79.49.85,1.61.85,1.61,0,0,.29-.16.69-.16.37,0,.84.14,1.28.65.92,1.08.26,3.19.26,3.19,8.38,13.05-.77,23.03-6.25,25.76-1.04,12-5.85,21.19-9.7,21.19-.25,0-.5-.04-.74-.12-3.94-1.31-1.05-12.19,6.21-21.36-5.82-7.26-2.23-13.24.56-17.02.35-.53.07-2.4-2.56-4.34.95-1.22,4.57-5.49-.53-9.76-1.08-1.77.3-3.45,1.45-3.45M118.33,5.04c-.76,0-1.54.51-1.98,1.3-.5.9-.46,1.96.12,2.9.03.05.06.09.1.12,4.11,3.45,2.28,6.77.54,8.97l-.09.11c-.08.1-.12.24-.1.37s.09.25.2.33c2.43,1.79,2.62,3.4,2.45,3.66-3.22,4.35-6.2,10.25-.78,17.3-5.48,7.05-8.81,15.66-7.6,19.73.32,1.08.96,1.8,1.86,2.1.29.1.59.15.9.15,4.39,0,9.11-9.95,10.16-21.37,3.51-1.84,7.61-5.99,9.08-11.31,1.33-4.83.4-9.82-2.76-14.84.15-.62.48-2.37-.42-3.43-.58-.68-1.22-.83-1.66-.83-.11,0-.21,0-.31.02-.13-.45-.4-1.04-.97-1.4-.31-.2-.67-.29-1.07-.29-.23,0-.45.03-.63.08-.2-.56-.62-1.38-1.43-1.58-.18-.04-.36-.07-.53-.07-.31,0-.56.07-.77.16-.22-.43-.62-.96-1.28-1.25-.3-.13-.59-.2-.86-.2-.21,0-.39.04-.53.09-.3-.42-.83-.83-1.63-.83h0Z"/>
      </g>
      <g>
        <path class="cls-10" d="M116.88,8.98c-1.08-1.77.3-3.45,1.45-3.45s1.45,1.05,1.45,1.05c0,0,.39-.59,1.38-.16s1.25,1.54,1.25,1.54c0,0,.49-.59,1.41-.36s1.22,1.74,1.22,1.74c0,0,.99-.49,1.77,0s.85,1.61.85,1.61c0,0,1.05-.59,1.97.49s.26,3.19.26,3.19c8.38,13.05-.77,23.03-6.25,25.76-1.11,12.79-6.5,22.38-10.44,21.07s-1.05-12.19,6.21-21.36c-5.82-7.26-2.23-13.24.56-17.02.35-.53.07-2.4-2.56-4.34.95-1.22,4.57-5.49-.53-9.76Z"/>
        <g class="cls-30">
          <g>
            <path class="cls-10" d="M109.06,62.99c-.13-.02-.23-.14-.21-.27l2.34-20.81c0-.09.06-.16.14-.2l5.94-2.75s.07-.02.1-.02c.02,0,.03,0,.05,0l9.46,1.87c.07.01.13.06.17.12.04.06.04.14.02.2l-7.88,23.07c-.03.1-.13.17-.23.17-.01,0-9.9-1.38-9.9-1.38Z"/>
            <path class="cls-10" d="M117.37,39.18l9.46,1.87-7.88,23.07-9.87-1.38,2.34-20.81,5.94-2.75M117.37,38.69c-.07,0-.14.02-.21.05l-5.94,2.75c-.16.07-.26.22-.28.39l-2.34,20.81c-.03.27.16.51.42.54l9.87,1.38s.05,0,.07,0c.21,0,.4-.13.47-.33l7.88-23.07c.05-.13.03-.28-.04-.41-.07-.12-.19-.21-.33-.24l-9.46-1.87s-.06,0-.1,0h0Z"/>
          </g>
          <g>
            <path class="cls-10" d="M122.01,38.84c-.06,0-.12-.02-.17-.06l-3.45-3.15c-.07-.07-.1-.17-.06-.27l3.79-10.21c.04-.1.13-.16.23-.16,0,0,10.12.65,10.12.65.08,0,.16.05.2.13.04.07.04.16,0,.24l-6.7,12.18c-.04.07-.1.11-.18.13,0,0-3.77.54-3.79.54Z"/>
            <path class="cls-10" d="M122.35,25.22l10.11.65-6.7,12.18-3.75.54-3.45-3.15,3.79-10.21M122.35,24.73c-.21,0-.39.13-.46.32l-3.79,10.21c-.07.19-.02.4.13.54l3.45,3.15c.09.08.21.13.33.13.02,0,.05,0,.07,0l3.75-.54c.15-.02.29-.12.36-.25l6.7-12.18c.08-.15.08-.33,0-.48-.08-.15-.23-.24-.4-.26l-10.11-.65s-.02,0-.03,0h0Z"/>
          </g>
          <g>
            <g>
              <path class="cls-10" d="M126.38,41.09c-.35,0-.73-.11-1.18-.23-.68-.19-1.52-.42-2.65-.42-.73,0-1.47.09-2.27.29-.02,0-.04,0-.06,0-.04,0-.08,0-.11-.03-1.86-.95-3.17-2.35-3.5-3.73-.17-.74-.05-1.42.36-1.97.61-.83,1.76-1.28,3.25-1.28,1.34,0,2.81.38,4.15,1.06,1.86.95,3.17,2.35,3.5,3.73.17.74.05,1.42-.36,1.97-.31.41-.66.61-1.13.61Z"/>
              <path class="cls-10" d="M120.22,33.97c1.25,0,2.69.34,4.04,1.03,2.8,1.43,4.16,3.82,3.05,5.34-.28.38-.57.51-.93.51-.8,0-1.91-.65-3.83-.65-.67,0-1.44.08-2.32.29-2.8-1.43-4.16-3.82-3.05-5.34.58-.78,1.71-1.18,3.05-1.18M120.22,33.47h0c-1.57,0-2.79.49-3.45,1.38-.45.62-.59,1.37-.4,2.18.34,1.45,1.7,2.91,3.63,3.89.07.04.15.05.23.05.04,0,.08,0,.12-.01.78-.19,1.5-.28,2.21-.28,1.1,0,1.93.23,2.59.41.46.13.87.24,1.25.24.54,0,.98-.23,1.33-.71.45-.62.59-1.37.4-2.18-.34-1.45-1.7-2.91-3.63-3.89-1.37-.7-2.88-1.09-4.26-1.09h0Z"/>
            </g>
            <g>
              <path class="cls-10" d="M121.54,41.7c-1.82-.05-2.22-1.04-2.3-1.63.03-1.25,1.05-2.61,2.36-2.61.58.01,1.07.25,1.48.68.52.55.84,1.37.83,2.08-.11.89-1.02,1.48-2.27,1.48h-.11Z"/>
              <path class="cls-10" d="M121.61,37.71s.03,0,.04,0c1.24.03,2.05,1.47,2.02,2.51-.08.69-.83,1.24-2.02,1.24-.03,0-.07,0-.1,0-1.24-.03-1.94-.54-2.06-1.41.03-1.02.9-2.33,2.12-2.33M121.61,37.22h0c-1.45,0-2.57,1.49-2.61,2.81,0,.03,0,.05,0,.08.15,1.13,1.07,1.81,2.54,1.84h.11c1.38,0,2.39-.67,2.51-1.67.02-.82-.33-1.71-.89-2.3-.46-.48-1.01-.74-1.61-.76,0,0-.05,0-.06,0h0Z"/>
            </g>
          </g>
          <g>
            <path class="cls-10" d="M126.96,28.93c-.38,0-.72-.08-1.03-.25-.86-.46-1.46-1.28-1.75-2.38-1.63-.52-1.58-1.48-1.54-2.42.01-.23.02-.47,0-.72-.14-2.39,2.31-3.97,6.54-4.22.21-.01.42-.02.61-.02,3.67,0,4.55,1.88,4.64,3.45.1,1.77.21,3.58-3.4,4.21-.87.9-2.51,2.34-4.08,2.34h0Z"/>
            <path class="cls-10" d="M129.8,19.17c2.97,0,4.28,1.27,4.4,3.22.1,1.78.21,3.38-3.28,3.97-1.28,1.34-2.75,2.32-3.96,2.32-.33,0-.63-.07-.92-.22-.85-.46-1.42-1.31-1.66-2.36-1.99-.57-1.41-1.72-1.49-2.96-.12-2.07,1.93-3.7,6.31-3.96.21-.01.4-.02.6-.02M129.8,18.68c-.2,0-.41,0-.62.02-4.39.26-6.93,1.93-6.78,4.48.01.23,0,.46-.01.69-.05.91-.1,2.04,1.58,2.63.32,1.1.95,1.93,1.84,2.4.35.19.73.28,1.15.28,1.63,0,3.29-1.43,4.21-2.36,3.75-.69,3.63-2.68,3.53-4.44-.08-1.4-.82-3.7-4.89-3.7h0Z"/>
          </g>
          <g>
            <path class="cls-10" d="M127.2,38.53c-1.23,0-2.28-.32-2.88-.89-.75-.71-.72-1.76.11-3.22.66-1.17,1.86-2.66,3.77-4.7.8-.86,1.3-1.86,1.49-2.97.14-.82.6-1.59,1.28-2.18.7-.59,1.54-.92,2.39-.92s1.55.32,2.04.89c.14.17.27.36.36.56.79.24,1.45.87,1.68,1.08,1.51,1.42-.07,5.47-3.6,9.23-2.63,2.81-5.51,3.11-6.63,3.11Z"/>
            <path class="cls-10" d="M133.35,23.9c.72,0,1.39.27,1.85.8.16.18.28.39.37.61.71.18,1.33.72,1.69,1.06,1.39,1.3-.23,5.28-3.61,8.88-2.08,2.21-4.54,3.03-6.45,3.03-1.2,0-2.18-.32-2.71-.82-1.39-1.3.51-3.97,3.89-7.57.02-.02.04-.04.06-.07.79-.84,1.29-1.9,1.49-3.03.13-.73.54-1.47,1.2-2.03.67-.57,1.48-.86,2.23-.86M133.35,23.4h0c-.9,0-1.81.35-2.55.98-.73.62-1.21,1.45-1.37,2.32-.18,1.06-.65,2.02-1.36,2.78l-.07.07c-3.56,3.79-5.58,6.65-3.86,8.27.65.61,1.76.96,3.05.96,2.42,0,4.9-1.16,6.81-3.19,3.68-3.93,5.22-8.04,3.59-9.58-.23-.21-.88-.82-1.67-1.1-.1-.19-.21-.36-.35-.52-.54-.63-1.33-.98-2.22-.98h0Z"/>
          </g>
          <g>
            <path class="cls-10" d="M117.88,38.14c-.17,0-.34-.03-.51-.08-1.06-.33-2.08-1.52-2.69-3.12-.71-1.89-.74-4.1-.08-6.25,1.39-4.5,3.82-7.76,5.76-7.76.17,0,.33.02.49.07.3.09,1.17.36,1.77.93.07,0,.14,0,.21,0,.15,0,.3.01.45.04,1.54.29,2.51,2.03,2.16,3.86-.17.89-.62,1.66-1.26,2.19-.87.71-1.5,1.64-1.82,2.67-1.65,5.31-2.94,7.45-4.49,7.45h0Z"/>
            <path class="cls-10" d="M120.37,21.18c.14,0,.28.02.41.06.48.15,1.25.43,1.76.95.1-.01.2-.02.3-.02.14,0,.27.01.41.04,1.41.27,2.29,1.87,1.96,3.57-.16.86-.6,1.58-1.17,2.05-.89.73-1.56,1.69-1.9,2.79,0,.03-.02.06-.03.09-1.34,4.33-2.62,7.19-4.23,7.19-.14,0-.29-.02-.44-.07-1.82-.56-4.07-4.33-2.6-9.05,1.36-4.37,3.74-7.59,5.53-7.59M120.37,20.68s0,0,0,0c-2.05,0-4.57,3.34-6,7.94-.68,2.19-.65,4.47.08,6.41.63,1.67,1.72,2.92,2.85,3.27.19.06.39.09.58.09,1.96,0,3.3-3.01,4.7-7.53l.03-.09c.31-.99.91-1.87,1.74-2.55.69-.56,1.17-1.39,1.35-2.33.38-1.97-.68-3.83-2.35-4.15-.17-.03-.33-.05-.5-.05-.04,0-.08,0-.13,0-.64-.55-1.49-.82-1.79-.91-.18-.06-.37-.08-.56-.08h0Z"/>
          </g>
          <g id="Cheek">
            <g>
              <path class="cls-10" d="M121.42,23.14c-1.25,0-2.22-.34-2.87-1-.65-.66-.85-1.86-1.05-3.03-.06-.39-.13-.76-.21-1.09-.78-3.31.81-6.52,3.55-7.16.32-.08.65-.11.98-.11,2.45,0,4.71,2.08,5.39,4.95.78,3.31-.81,6.52-3.55,7.16-.81.19-1.57.29-2.24.29Z"/>
              <path class="cls-10" d="M121.82,10.98c2.3,0,4.49,1.95,5.15,4.76.75,3.18-.76,6.25-3.36,6.87-.66.16-1.43.28-2.18.28-1.02,0-2.01-.23-2.7-.93-.8-.82-.89-2.72-1.19-4-.75-3.18.76-6.25,3.36-6.87.31-.07.62-.11.92-.11M121.82,10.49c-.35,0-.7.04-1.04.12-1.41.33-2.57,1.3-3.27,2.73-.69,1.4-.85,3.08-.46,4.73.08.32.14.69.2,1.08.2,1.2.41,2.44,1.12,3.16.7.71,1.73,1.08,3.05,1.08.69,0,1.46-.1,2.3-.3,1.41-.33,2.57-1.3,3.27-2.73.69-1.4.85-3.08.46-4.73-.7-2.98-3.07-5.14-5.63-5.14h0Z"/>
            </g>
            <g id="Dots">
              <g>
                <circle class="cls-10" cx="120.32" cy="22.53" r=".34"/>
                <path class="cls-10" d="M120.32,22.44s.09.04.09.09-.04.09-.09.09-.09-.04-.09-.09.04-.09.09-.09M120.32,21.94c-.32,0-.58.26-.58.58s.26.58.58.58.58-.26.58-.58-.26-.58-.58-.58h0Z"/>
              </g>
              <g>
                <circle class="cls-10" cx="120.7" cy="22.2" r=".34"/>
                <path class="cls-10" d="M120.7,22.11s.09.04.09.09-.04.09-.09.09-.09-.04-.09-.09.04-.09.09-.09M120.7,21.62c-.32,0-.58.26-.58.58s.26.58.58.58.58-.26.58-.58-.26-.58-.58-.58h0Z"/>
              </g>
              <g>
                <circle class="cls-10" cx="120.32" cy="21.69" r=".34"/>
                <path class="cls-10" d="M120.32,21.6s.09.04.09.09-.04.09-.09.09-.09-.04-.09-.09.04-.09.09-.09M120.32,21.11c-.32,0-.58.26-.58.58s.26.58.58.58.58-.26.58-.58-.26-.58-.58-.58h0Z"/>
              </g>
              <g>
                <circle class="cls-10" cx="121.11" cy="21.78" r=".34"/>
                <path class="cls-10" d="M121.11,21.69s.09.04.09.09-.04.09-.09.09-.09-.04-.09-.09.04-.09.09-.09M121.11,21.2c-.32,0-.58.26-.58.58s.26.58.58.58.58-.26.58-.58-.26-.58-.58-.58h0Z"/>
              </g>
              <g>
                <circle class="cls-10" cx="120.7" cy="21.33" r=".34"/>
                <path class="cls-10" d="M120.7,21.24s.09.04.09.09-.04.09-.09.09-.09-.04-.09-.09.04-.09.09-.09M120.7,20.75c-.32,0-.58.26-.58.58s.26.58.58.58.58-.26.58-.58-.26-.58-.58-.58h0Z"/>
              </g>
              <g>
                <circle class="cls-10" cx="121.4" cy="21.24" r=".34"/>
                <path class="cls-10" d="M121.4,21.15s.09.04.09.09-.04.09-.09.09-.09-.04-.09-.09.04-.09.09-.09M121.4,20.66c-.32,0-.58.26-.58.58s.26.58.58.58.58-.26.58-.58-.26-.58-.58-.58h0Z"/>
              </g>
              <g>
                <circle class="cls-10" cx="120.93" cy="20.86" r=".34"/>
                <path class="cls-10" d="M120.93,20.77s.09.04.09.09-.04.09-.09.09-.09-.04-.09-.09.04-.09.09-.09M120.93,20.28c-.32,0-.58.26-.58.58s.26.58.58.58.58-.26.58-.58-.26-.58-.58-.58h0Z"/>
              </g>
              <g>
                <circle class="cls-10" cx="120.11" cy="21.15" r=".34"/>
                <path class="cls-10" d="M120.11,21.06s.09.04.09.09-.04.09-.09.09-.09-.04-.09-.09.04-.09.09-.09M120.11,20.57c-.32,0-.58.26-.58.58s.26.58.58.58.58-.26.58-.58-.26-.58-.58-.58h0Z"/>
              </g>
              <g>
                <circle class="cls-10" cx="122.1" cy="21.19" r=".34"/>
                <path class="cls-10" d="M122.1,21.1s.09.04.09.09-.04.09-.09.09-.09-.04-.09-.09.04-.09.09-.09M122.1,20.61c-.32,0-.58.26-.58.58s.26.58.58.58.58-.26.58-.58-.26-.58-.58-.58h0Z"/>
              </g>
              <g>
                <path class="cls-10" d="M121.66,21.11c-.19,0-.34-.15-.34-.34s.15-.34.34-.34.34.15.34.34-.15.34-.34.34Z"/>
                <path class="cls-10" d="M121.66,20.68s.09.04.09.09-.04.09-.09.09-.09-.04-.09-.09.04-.09.09-.09M121.66,20.19c-.32,0-.58.26-.58.58s.26.58.58.58.58-.26.58-.58-.26-.58-.58-.58h0Z"/>
              </g>
              <g>
                <circle class="cls-10" cx="122.44" cy="20.62" r=".34"/>
                <path class="cls-10" d="M122.44,20.53s.09.04.09.09-.04.09-.09.09-.09-.04-.09-.09.04-.09.09-.09M122.44,20.04c-.32,0-.58.26-.58.58s.26.58.58.58.58-.26.58-.58-.26-.58-.58-.58h0Z"/>
              </g>
              <g>
                <path class="cls-10" d="M123.07,20.78c-.19,0-.34-.15-.34-.34s.15-.34.34-.34.34.15.34.34-.15.34-.34.34Z"/>
                <path class="cls-10" d="M123.07,20.35s.09.04.09.09-.04.09-.09.09-.09-.04-.09-.09.04-.09.09-.09M123.07,19.85c-.32,0-.58.26-.58.58s.26.58.58.58.58-.26.58-.58-.26-.58-.58-.58h0Z"/>
              </g>
              <g>
                <circle class="cls-10" cx="123.73" cy="19.94" r=".34"/>
                <path class="cls-10" d="M123.73,19.85s.09.04.09.09-.04.09-.09.09-.09-.04-.09-.09.04-.09.09-.09M123.73,19.35c-.32,0-.58.26-.58.58s.26.58.58.58.58-.26.58-.58-.26-.58-.58-.58h0Z"/>
              </g>
              <g>
                <circle class="cls-10" cx="124.21" cy="19.37" r=".34"/>
                <path class="cls-10" d="M124.21,19.28s.09.04.09.09-.04.09-.09.09-.09-.04-.09-.09.04-.09.09-.09M124.21,18.79c-.32,0-.58.26-.58.58s.26.58.58.58.58-.26.58-.58-.26-.58-.58-.58h0Z"/>
              </g>
              <g>
                <circle class="cls-10" cx="124.57" cy="18.57" r=".34"/>
                <path class="cls-10" d="M124.57,18.48s.09.04.09.09-.04.09-.09.09-.09-.04-.09-.09.04-.09.09-.09M124.57,17.99c-.32,0-.58.26-.58.58s.26.58.58.58.58-.26.58-.58-.26-.58-.58-.58h0Z"/>
              </g>
              <g>
                <circle class="cls-10" cx="124.66" cy="17.71" r=".34"/>
                <path class="cls-10" d="M124.66,17.62s.09.04.09.09-.04.09-.09.09-.09-.04-.09-.09.04-.09.09-.09M124.66,17.12c-.32,0-.58.26-.58.58s.26.58.58.58.58-.26.58-.58-.26-.58-.58-.58h0Z"/>
              </g>
              <g>
                <circle class="cls-10" cx="124.64" cy="17" r=".34"/>
                <path class="cls-10" d="M124.64,16.91s.09.04.09.09-.04.09-.09.09-.09-.04-.09-.09.04-.09.09-.09M124.64,16.41c-.32,0-.58.26-.58.58s.26.58.58.58.58-.26.58-.58-.26-.58-.58-.58h0Z"/>
              </g>
              <g>
                <circle class="cls-10" cx="124.55" cy="16.21" r=".34"/>
                <path class="cls-10" d="M124.55,16.12s.09.04.09.09-.04.09-.09.09-.09-.04-.09-.09.04-.09.09-.09M124.55,15.62c-.32,0-.58.26-.58.58s.26.58.58.58.58-.26.58-.58-.26-.58-.58-.58h0Z"/>
              </g>
              <g>
                <path class="cls-10" d="M124.21,15.73c-.19,0-.34-.15-.34-.34s.15-.34.34-.34.34.15.34.34-.15.34-.34.34Z"/>
                <path class="cls-10" d="M124.21,15.3s.09.04.09.09-.04.09-.09.09-.09-.04-.09-.09.04-.09.09-.09M124.21,14.8c-.32,0-.58.26-.58.58s.26.58.58.58.58-.26.58-.58-.26-.58-.58-.58h0Z"/>
              </g>
              <g>
                <circle class="cls-10" cx="123.73" cy="14.89" r=".34"/>
                <path class="cls-10" d="M123.73,14.8s.09.04.09.09-.04.09-.09.09-.09-.04-.09-.09.04-.09.09-.09M123.73,14.3c-.32,0-.58.26-.58.58s.26.58.58.58.58-.26.58-.58-.26-.58-.58-.58h0Z"/>
              </g>
              <g>
                <path class="cls-10" d="M123.07,15.14c-.19,0-.34-.15-.34-.34s.15-.34.34-.34.34.15.34.34-.15.34-.34.34Z"/>
                <path class="cls-10" d="M123.07,14.71s.09.04.09.09-.04.09-.09.09-.09-.04-.09-.09.04-.09.09-.09M123.07,14.21c-.32,0-.58.26-.58.58s.26.58.58.58.58-.26.58-.58-.26-.58-.58-.58h0Z"/>
              </g>
              <g>
                <circle class="cls-10" cx="123.6" cy="15.57" r=".34"/>
                <path class="cls-10" d="M123.6,15.48s.09.04.09.09-.04.09-.09.09-.09-.04-.09-.09.04-.09.09-.09M123.6,14.98c-.32,0-.58.26-.58.58s.26.58.58.58.58-.26.58-.58-.26-.58-.58-.58h0Z"/>
              </g>
              <g>
                <circle class="cls-10" cx="123.94" cy="16.12" r=".34"/>
                <path class="cls-10" d="M123.94,16.03s.09.04.09.09-.04.09-.09.09-.09-.04-.09-.09.04-.09.09-.09M123.94,15.53c-.32,0-.58.26-.58.58s.26.58.58.58.58-.26.58-.58-.26-.58-.58-.58h0Z"/>
              </g>
              <g>
                <path class="cls-10" d="M124.12,17.13c-.19,0-.34-.15-.34-.34s.15-.34.34-.34.34.15.34.34-.15.34-.34.34Z"/>
                <path class="cls-10" d="M124.12,16.7s.09.04.09.09-.04.09-.09.09-.09-.04-.09-.09.04-.09.09-.09M124.12,16.21c-.32,0-.58.26-.58.58s.26.58.58.58.58-.26.58-.58-.26-.58-.58-.58h0Z"/>
              </g>
              <g>
                <circle class="cls-10" cx="124.21" cy="17.5" r=".34"/>
                <path class="cls-10" d="M124.21,17.41s.09.04.09.09-.04.09-.09.09-.09-.04-.09-.09.04-.09.09-.09M124.21,16.91c-.32,0-.58.26-.58.58s.26.58.58.58.58-.26.58-.58-.26-.58-.58-.58h0Z"/>
              </g>
              <g>
                <circle class="cls-10" cx="124.21" cy="18.14" r=".34"/>
                <path class="cls-10" d="M124.21,18.05s.09.04.09.09-.04.09-.09.09-.09-.04-.09-.09.04-.09.09-.09M124.21,17.55c-.32,0-.58.26-.58.58s.26.58.58.58.58-.26.58-.58-.26-.58-.58-.58h0Z"/>
              </g>
              <g>
                <circle class="cls-10" cx="123.94" cy="18.92" r=".34"/>
                <path class="cls-10" d="M123.94,18.83s.09.04.09.09-.04.09-.09.09-.09-.04-.09-.09.04-.09.09-.09M123.94,18.33c-.32,0-.58.26-.58.58s.26.58.58.58.58-.26.58-.58-.26-.58-.58-.58h0Z"/>
              </g>
              <g>
                <circle class="cls-10" cx="123.73" cy="19.44" r=".34"/>
                <path class="cls-10" d="M123.73,19.35s.09.04.09.09-.04.09-.09.09-.09-.04-.09-.09.04-.09.09-.09M123.73,18.86c-.32,0-.58.26-.58.58s.26.58.58.58.58-.26.58-.58-.26-.58-.58-.58h0Z"/>
              </g>
              <g>
                <circle class="cls-10" cx="123.16" cy="19.94" r=".34"/>
                <path class="cls-10" d="M123.16,19.85s.09.04.09.09-.04.09-.09.09-.09-.04-.09-.09.04-.09.09-.09M123.16,19.35c-.32,0-.58.26-.58.58s.26.58.58.58.58-.26.58-.58-.26-.58-.58-.58h0Z"/>
              </g>
              <g>
                <circle class="cls-10" cx="122.62" cy="20.12" r=".34"/>
                <path class="cls-10" d="M122.62,20.03s.09.04.09.09-.04.09-.09.09-.09-.04-.09-.09.04-.09.09-.09M122.62,19.53c-.32,0-.58.26-.58.58s.26.58.58.58.58-.26.58-.58-.26-.58-.58-.58h0Z"/>
              </g>
              <g>
                <circle class="cls-10" cx="122.03" cy="20.35" r=".34"/>
                <path class="cls-10" d="M122.03,20.26s.09.04.09.09-.04.09-.09.09-.09-.04-.09-.09.04-.09.09-.09M122.03,19.76c-.32,0-.58.26-.58.58s.26.58.58.58.58-.26.58-.58-.26-.58-.58-.58h0Z"/>
              </g>
              <g>
                <path class="cls-10" d="M121.31,20.78c-.19,0-.34-.15-.34-.34s.15-.34.34-.34.34.15.34.34-.15.34-.34.34Z"/>
                <path class="cls-10" d="M121.31,20.35s.09.04.09.09-.04.09-.09.09-.09-.04-.09-.09.04-.09.09-.09M121.31,19.85c-.32,0-.58.26-.58.58s.26.58.58.58.58-.26.58-.58-.26-.58-.58-.58h0Z"/>
              </g>
              <g>
                <circle class="cls-10" cx="120.79" cy="20.35" r=".34"/>
                <path class="cls-10" d="M120.79,20.26s.09.04.09.09-.04.09-.09.09-.09-.04-.09-.09.04-.09.09-.09M120.79,19.76c-.32,0-.58.26-.58.58s.26.58.58.58.58-.26.58-.58-.26-.58-.58-.58h0Z"/>
              </g>
              <g>
                <path class="cls-10" d="M120.5,20.27c-.19,0-.34-.15-.34-.34s.15-.34.34-.34.34.15.34.34-.15.34-.34.34Z"/>
                <path class="cls-10" d="M120.5,19.85s.09.04.09.09-.04.09-.09.09-.09-.04-.09-.09.04-.09.09-.09M120.5,19.35c-.32,0-.58.26-.58.58s.26.58.58.58.58-.26.58-.58-.26-.58-.58-.58h0Z"/>
              </g>
              <g>
                <circle class="cls-10" cx="121.11" cy="20.12" r=".34"/>
                <path class="cls-10" d="M121.11,20.03s.09.04.09.09-.04.09-.09.09-.09-.04-.09-.09.04-.09.09-.09M121.11,19.53c-.32,0-.58.26-.58.58s.26.58.58.58.58-.26.58-.58-.26-.58-.58-.58h0Z"/>
              </g>
              <g>
                <circle class="cls-10" cx="121.62" cy="20.03" r=".34"/>
                <path class="cls-10" d="M121.62,19.94s.09.04.09.09-.04.09-.09.09-.09-.04-.09-.09.04-.09.09-.09M121.62,19.45c-.32,0-.58.26-.58.58s.26.58.58.58.58-.26.58-.58-.26-.58-.58-.58h0Z"/>
              </g>
              <g>
                <circle class="cls-10" cx="122.28" cy="19.89" r=".34"/>
                <path class="cls-10" d="M122.28,19.8s.09.04.09.09-.04.09-.09.09-.09-.04-.09-.09.04-.09.09-.09M122.28,19.31c-.32,0-.58.26-.58.58s.26.58.58.58.58-.26.58-.58-.26-.58-.58-.58h0Z"/>
              </g>
              <g>
                <circle class="cls-10" cx="122.83" cy="19.66" r=".34"/>
                <path class="cls-10" d="M122.83,19.57s.09.04.09.09-.04.09-.09.09-.09-.04-.09-.09.04-.09.09-.09M122.83,19.08c-.32,0-.58.26-.58.58s.26.58.58.58.58-.26.58-.58-.26-.58-.58-.58h0Z"/>
              </g>
              <g>
                <circle class="cls-10" cx="123.25" cy="19.35" r=".34"/>
                <path class="cls-10" d="M123.25,19.26s.09.04.09.09-.04.09-.09.09-.09-.04-.09-.09.04-.09.09-.09M123.25,18.77c-.32,0-.58.26-.58.58s.26.58.58.58.58-.26.58-.58-.26-.58-.58-.58h0Z"/>
              </g>
              <g>
                <path class="cls-10" d="M123.5,19.17c-.19,0-.34-.15-.34-.34s.15-.34.34-.34.34.15.34.34-.15.34-.34.34Z"/>
                <path class="cls-10" d="M123.5,18.74s.09.04.09.09-.04.09-.09.09-.09-.04-.09-.09.04-.09.09-.09M123.5,18.24c-.32,0-.58.26-.58.58s.26.58.58.58.58-.26.58-.58-.26-.58-.58-.58h0Z"/>
              </g>
              <g>
                <circle class="cls-10" cx="123.73" cy="18.3" r=".34"/>
                <path class="cls-10" d="M123.73,18.21s.09.04.09.09-.04.09-.09.09-.09-.04-.09-.09.04-.09.09-.09M123.73,17.72c-.32,0-.58.26-.58.58s.26.58.58.58.58-.26.58-.58-.26-.58-.58-.58h0Z"/>
              </g>
              <g>
                <circle class="cls-10" cx="123.73" cy="17.75" r=".34"/>
                <path class="cls-10" d="M123.73,17.66s.09.04.09.09-.04.09-.09.09-.09-.04-.09-.09.04-.09.09-.09M123.73,17.17c-.32,0-.58.26-.58.58s.26.58.58.58.58-.26.58-.58-.26-.58-.58-.58h0Z"/>
              </g>
              <g>
                <circle class="cls-10" cx="123.73" cy="17.17" r=".34"/>
                <path class="cls-10" d="M123.73,17.07s.09.04.09.09-.04.09-.09.09-.09-.04-.09-.09.04-.09.09-.09M123.73,16.58c-.32,0-.58.26-.58.58s.26.58.58.58.58-.26.58-.58-.26-.58-.58-.58h0Z"/>
              </g>
              <g>
                <circle class="cls-10" cx="123.59" cy="16.61" r=".34"/>
                <path class="cls-10" d="M123.59,16.52s.09.04.09.09-.04.09-.09.09-.09-.04-.09-.09.04-.09.09-.09M123.59,16.03c-.32,0-.58.26-.58.58s.26.58.58.58.58-.26.58-.58-.26-.58-.58-.58h0Z"/>
              </g>
              <g>
                <path class="cls-10" d="M123.36,16.46c-.19,0-.34-.15-.34-.34s.15-.34.34-.34.34.15.34.34-.15.34-.34.34Z"/>
                <path class="cls-10" d="M123.36,16.03s.09.04.09.09-.04.09-.09.09-.09-.04-.09-.09.04-.09.09-.09M123.36,15.53c-.32,0-.58.26-.58.58s.26.58.58.58.58-.26.58-.58-.26-.58-.58-.58h0Z"/>
              </g>
              <g>
                <path class="cls-10" d="M123.01,15.82c-.19,0-.34-.15-.34-.34s.15-.34.34-.34.34.15.34.34-.15.34-.34.34Z"/>
                <path class="cls-10" d="M123.01,15.39s.09.04.09.09-.04.09-.09.09-.09-.04-.09-.09.04-.09.09-.09M123.01,14.89c-.32,0-.58.26-.58.58s.26.58.58.58.58-.26.58-.58-.26-.58-.58-.58h0Z"/>
              </g>
              <g>
                <path class="cls-10" d="M122.35,15.73c-.19,0-.34-.15-.34-.34s.15-.34.34-.34.34.15.34.34-.15.34-.34.34Z"/>
                <path class="cls-10" d="M122.35,15.3s.09.04.09.09-.04.09-.09.09-.09-.04-.09-.09.04-.09.09-.09M122.35,14.8c-.32,0-.58.26-.58.58s.26.58.58.58.58-.26.58-.58-.26-.58-.58-.58h0Z"/>
              </g>
              <g>
                <circle class="cls-10" cx="122.53" cy="16.03" r=".34"/>
                <path class="cls-10" d="M122.53,15.94s.09.04.09.09-.04.09-.09.09-.09-.04-.09-.09.04-.09.09-.09M122.53,15.44c-.32,0-.58.26-.58.58s.26.58.58.58.58-.26.58-.58-.26-.58-.58-.58h0Z"/>
              </g>
              <g>
                <circle class="cls-10" cx="122.88" cy="16.52" r=".34"/>
                <path class="cls-10" d="M122.88,16.43s.09.04.09.09-.04.09-.09.09-.09-.04-.09-.09.04-.09.09-.09M122.88,15.94c-.32,0-.58.26-.58.58s.26.58.58.58.58-.26.58-.58-.26-.58-.58-.58h0Z"/>
              </g>
              <g>
                <circle class="cls-10" cx="123.1" cy="17.17" r=".34"/>
                <path class="cls-10" d="M123.1,17.07s.09.04.09.09-.04.09-.09.09-.09-.04-.09-.09.04-.09.09-.09M123.1,16.58c-.32,0-.58.26-.58.58s.26.58.58.58.58-.26.58-.58-.26-.58-.58-.58h0Z"/>
              </g>
              <g>
                <circle class="cls-10" cx="123.1" cy="17.66" r=".34"/>
                <path class="cls-10" d="M123.1,17.57s.09.04.09.09-.04.09-.09.09-.09-.04-.09-.09.04-.09.09-.09M123.1,17.08c-.32,0-.58.26-.58.58s.26.58.58.58.58-.26.58-.58-.26-.58-.58-.58h0Z"/>
              </g>
              <g>
                <path class="cls-10" d="M123.07,18.64c-.19,0-.34-.15-.34-.34s.15-.34.34-.34.34.15.34.34-.15.34-.34.34Z"/>
                <path class="cls-10" d="M123.07,18.21s.09.04.09.09-.04.09-.09.09-.09-.04-.09-.09.04-.09.09-.09M123.07,17.72c-.32,0-.58.26-.58.58s.26.58.58.58.58-.26.58-.58-.26-.58-.58-.58h0Z"/>
              </g>
              <g>
                <circle class="cls-10" cx="122.92" cy="18.8" r=".34"/>
                <path class="cls-10" d="M122.92,18.71s.09.04.09.09-.04.09-.09.09-.09-.04-.09-.09.04-.09.09-.09M122.92,18.22c-.32,0-.58.26-.58.58s.26.58.58.58.58-.26.58-.58-.26-.58-.58-.58h0Z"/>
              </g>
              <g>
                <circle class="cls-10" cx="122.66" cy="19.19" r=".34"/>
                <path class="cls-10" d="M122.66,19.1s.09.04.09.09-.04.09-.09.09-.09-.04-.09-.09.04-.09.09-.09M122.66,18.61c-.32,0-.58.26-.58.58s.26.58.58.58.58-.26.58-.58-.26-.58-.58-.58h0Z"/>
              </g>
              <g>
                <circle class="cls-10" cx="122.35" cy="19.46" r=".34"/>
                <path class="cls-10" d="M122.35,19.37s.09.04.09.09-.04.09-.09.09-.09-.04-.09-.09.04-.09.09-.09M122.35,18.88c-.32,0-.58.26-.58.58s.26.58.58.58.58-.26.58-.58-.26-.58-.58-.58h0Z"/>
              </g>
              <g>
                <circle class="cls-10" cx="121.8" cy="19.66" r=".34"/>
                <path class="cls-10" d="M121.8,19.57s.09.04.09.09-.04.09-.09.09-.09-.04-.09-.09.04-.09.09-.09M121.8,19.08c-.32,0-.58.26-.58.58s.26.58.58.58.58-.26.58-.58-.26-.58-.58-.58h0Z"/>
              </g>
              <g>
                <circle class="cls-10" cx="121.31" cy="19.75" r=".34"/>
                <path class="cls-10" d="M121.31,19.66s.09.04.09.09-.04.09-.09.09-.09-.04-.09-.09.04-.09.09-.09M121.31,19.17c-.32,0-.58.26-.58.58s.26.58.58.58.58-.26.58-.58-.26-.58-.58-.58h0Z"/>
              </g>
              <g>
                <circle class="cls-10" cx="120.88" cy="19.71" r=".34"/>
                <path class="cls-10" d="M120.88,19.62s.09.04.09.09-.04.09-.09.09-.09-.04-.09-.09.04-.09.09-.09M120.88,19.13c-.32,0-.58.26-.58.58s.26.58.58.58.58-.26.58-.58-.26-.58-.58-.58h0Z"/>
              </g>
              <g>
                <path class="cls-10" d="M120.5,19.71c-.19,0-.34-.15-.34-.34s.15-.34.34-.34.34.15.34.34-.15.34-.34.34Z"/>
                <path class="cls-10" d="M120.5,19.28s.09.04.09.09-.04.09-.09.09-.09-.04-.09-.09.04-.09.09-.09M120.5,18.79c-.32,0-.58.26-.58.58s.26.58.58.58.58-.26.58-.58-.26-.58-.58-.58h0Z"/>
              </g>
              <g>
                <circle class="cls-10" cx="120.11" cy="19.19" r=".34"/>
                <path class="cls-10" d="M120.11,19.1s.09.04.09.09-.04.09-.09.09-.09-.04-.09-.09.04-.09.09-.09M120.11,18.6c-.32,0-.58.26-.58.58s.26.58.58.58.58-.26.58-.58-.26-.58-.58-.58h0Z"/>
              </g>
              <g>
                <circle class="cls-10" cx="119.69" cy="19.01" r=".34"/>
                <path class="cls-10" d="M119.69,18.92s.09.04.09.09-.04.09-.09.09-.09-.04-.09-.09.04-.09.09-.09M119.69,18.42c-.32,0-.58.26-.58.58s.26.58.58.58.58-.26.58-.58-.26-.58-.58-.58h0Z"/>
              </g>
              <g>
                <path class="cls-10" d="M119.87,18.71c-.19,0-.34-.15-.34-.34s.15-.34.34-.34.34.15.34.34-.15.34-.34.34Z"/>
                <path class="cls-10" d="M119.87,18.28s.09.04.09.09-.04.09-.09.09-.09-.04-.09-.09.04-.09.09-.09M119.87,17.79c-.32,0-.58.26-.58.58s.26.58.58.58.58-.26.58-.58-.26-.58-.58-.58h0Z"/>
              </g>
              <g>
                <path class="cls-10" d="M120.41,19.09c-.19,0-.34-.15-.34-.34s.15-.34.34-.34.34.15.34.34-.15.34-.34.34Z"/>
                <path class="cls-10" d="M120.41,18.66s.09.04.09.09-.04.09-.09.09-.09-.04-.09-.09.04-.09.09-.09M120.41,18.17c-.32,0-.58.26-.58.58s.26.58.58.58.58-.26.58-.58-.26-.58-.58-.58h0Z"/>
              </g>
              <g>
                <circle class="cls-10" cx="121.02" cy="19.13" r=".34"/>
                <path class="cls-10" d="M121.02,19.04s.09.04.09.09-.04.09-.09.09-.09-.04-.09-.09.04-.09.09-.09M121.02,18.55c-.32,0-.58.26-.58.58s.26.58.58.58.58-.26.58-.58-.26-.58-.58-.58h0Z"/>
              </g>
              <g>
                <path class="cls-10" d="M121.49,19.56c-.19,0-.34-.15-.34-.34s.15-.34.34-.34.34.15.34.34-.15.34-.34.34Z"/>
                <path class="cls-10" d="M121.49,19.13s.09.04.09.09-.04.09-.09.09-.09-.04-.09-.09.04-.09.09-.09M121.49,18.64c-.32,0-.58.26-.58.58s.26.58.58.58.58-.26.58-.58-.26-.58-.58-.58h0Z"/>
              </g>
              <g>
                <circle class="cls-10" cx="122.03" cy="19.04" r=".34"/>
                <path class="cls-10" d="M122.03,18.95s.09.04.09.09-.04.09-.09.09-.09-.04-.09-.09.04-.09.09-.09M122.03,18.46c-.32,0-.58.26-.58.58s.26.58.58.58.58-.26.58-.58-.26-.58-.58-.58h0Z"/>
              </g>
              <g>
                <circle class="cls-10" cx="122.44" cy="18.74" r=".34"/>
                <path class="cls-10" d="M122.44,18.65s.09.04.09.09-.04.09-.09.09-.09-.04-.09-.09.04-.09.09-.09M122.44,18.15c-.32,0-.58.26-.58.58s.26.58.58.58.58-.26.58-.58-.26-.58-.58-.58h0Z"/>
              </g>
              <g>
                <circle class="cls-10" cx="122.62" cy="18.12" r=".34"/>
                <path class="cls-10" d="M122.62,18.03s.09.04.09.09-.04.09-.09.09-.09-.04-.09-.09.04-.09.09-.09M122.62,17.54c-.32,0-.58.26-.58.58s.26.58.58.58.58-.26.58-.58-.26-.58-.58-.58h0Z"/>
              </g>
              <g>
                <circle class="cls-10" cx="122.66" cy="17.43" r=".34"/>
                <path class="cls-10" d="M122.66,17.34s.09.04.09.09-.04.09-.09.09-.09-.04-.09-.09.04-.09.09-.09M122.66,16.85c-.32,0-.58.26-.58.58s.26.58.58.58.58-.26.58-.58-.26-.58-.58-.58h0Z"/>
              </g>
              <g>
                <circle class="cls-10" cx="122.37" cy="16.88" r=".34"/>
                <path class="cls-10" d="M122.37,16.79s.09.04.09.09-.04.09-.09.09-.09-.04-.09-.09.04-.09.09-.09M122.37,16.3c-.32,0-.58.26-.58.58s.26.58.58.58.58-.26.58-.58-.26-.58-.58-.58h0Z"/>
              </g>
              <g>
                <circle class="cls-10" cx="122.1" cy="15.88" r=".34"/>
                <path class="cls-10" d="M122.1,15.79s.09.04.09.09-.04.09-.09.09-.09-.04-.09-.09.04-.09.09-.09M122.1,15.3c-.32,0-.58.26-.58.58s.26.58.58.58.58-.26.58-.58-.26-.58-.58-.58h0Z"/>
              </g>
              <g>
                <circle class="cls-10" cx="122.12" cy="16.48" r=".34"/>
                <path class="cls-10" d="M122.12,16.39s.09.04.09.09-.04.09-.09.09-.09-.04-.09-.09.04-.09.09-.09M122.12,15.89c-.32,0-.58.26-.58.58s.26.58.58.58.58-.26.58-.58-.26-.58-.58-.58h0Z"/>
              </g>
              <g>
                <circle class="cls-10" cx="121.53" cy="15.7" r=".34"/>
                <path class="cls-10" d="M121.53,15.61s.09.04.09.09-.04.09-.09.09-.09-.04-.09-.09.04-.09.09-.09M121.53,15.12c-.32,0-.58.26-.58.58s.26.58.58.58.58-.26.58-.58-.26-.58-.58-.58h0Z"/>
              </g>
              <g>
                <circle class="cls-10" cx="121.62" cy="16.21" r=".34"/>
                <path class="cls-10" d="M121.62,16.12s.09.04.09.09-.04.09-.09.09-.09-.04-.09-.09.04-.09.09-.09M121.62,15.62c-.32,0-.58.26-.58.58s.26.58.58.58.58-.26.58-.58-.26-.58-.58-.58h0Z"/>
              </g>
              <g>
                <circle class="cls-10" cx="121.02" cy="15.88" r=".34"/>
                <path class="cls-10" d="M121.02,15.79s.09.04.09.09-.04.09-.09.09-.09-.04-.09-.09.04-.09.09-.09M121.02,15.3c-.32,0-.58.26-.58.58s.26.58.58.58.58-.26.58-.58-.26-.58-.58-.58h0Z"/>
              </g>
              <g>
                <path class="cls-10" d="M121.94,17.13c-.19,0-.34-.15-.34-.34s.15-.34.34-.34.34.15.34.34-.15.34-.34.34Z"/>
                <path class="cls-10" d="M121.94,16.7s.09.04.09.09-.04.09-.09.09-.09-.04-.09-.09.04-.09.09-.09M121.94,16.21c-.32,0-.58.26-.58.58s.26.58.58.58.58-.26.58-.58-.26-.58-.58-.58h0Z"/>
              </g>
              <g>
                <circle class="cls-10" cx="122.06" cy="17.36" r=".34"/>
                <path class="cls-10" d="M122.06,17.27s.09.04.09.09-.04.09-.09.09-.09-.04-.09-.09.04-.09.09-.09M122.06,16.77c-.32,0-.58.26-.58.58s.26.58.58.58.58-.26.58-.58-.26-.58-.58-.58h0Z"/>
              </g>
              <g>
                <circle class="cls-10" cx="122.19" cy="17.89" r=".34"/>
                <path class="cls-10" d="M122.19,17.8s.09.04.09.09-.04.09-.09.09-.09-.04-.09-.09.04-.09.09-.09M122.19,17.3c-.32,0-.58.26-.58.58s.26.58.58.58.58-.26.58-.58-.26-.58-.58-.58h0Z"/>
              </g>
              <g>
                <circle class="cls-10" cx="122.15" cy="18.37" r=".34"/>
                <path class="cls-10" d="M122.15,18.28s.09.04.09.09-.04.09-.09.09-.09-.04-.09-.09.04-.09.09-.09M122.15,17.79c-.32,0-.58.26-.58.58s.26.58.58.58.58-.26.58-.58-.26-.58-.58-.58h0Z"/>
              </g>
              <g>
                <circle class="cls-10" cx="121.75" cy="18.68" r=".34"/>
                <path class="cls-10" d="M121.75,18.59s.09.04.09.09-.04.09-.09.09-.09-.04-.09-.09.04-.09.09-.09M121.75,18.1c-.32,0-.58.26-.58.58s.26.58.58.58.58-.26.58-.58-.26-.58-.58-.58h0Z"/>
              </g>
              <g>
                <path class="cls-10" d="M121.32,18.93c-.19,0-.34-.15-.34-.34s.15-.34.34-.34.34.15.34.34-.15.34-.34.34Z"/>
                <path class="cls-10" d="M121.32,18.5s.09.04.09.09-.04.09-.09.09-.09-.04-.09-.09.04-.09.09-.09M121.32,18.01c-.32,0-.58.26-.58.58s.26.58.58.58.58-.26.58-.58-.26-.58-.58-.58h0Z"/>
              </g>
              <g>
                <circle class="cls-10" cx="120.89" cy="18.33" r=".34"/>
                <path class="cls-10" d="M120.89,18.24s.09.04.09.09-.04.09-.09.09-.09-.04-.09-.09.04-.09.09-.09M120.89,17.74c-.32,0-.58.26-.58.58s.26.58.58.58.58-.26.58-.58-.26-.58-.58-.58h0Z"/>
              </g>
              <g>
                <circle class="cls-10" cx="120.23" cy="17.89" r=".34"/>
                <path class="cls-10" d="M120.23,17.8s.09.04.09.09-.04.09-.09.09-.09-.04-.09-.09.04-.09.09-.09M120.23,17.3c-.32,0-.58.26-.58.58s.26.58.58.58.58-.26.58-.58-.26-.58-.58-.58h0Z"/>
              </g>
              <g>
                <circle class="cls-10" cx="120.46" cy="17.12" r=".34"/>
                <path class="cls-10" d="M120.46,17.03s.09.04.09.09-.04.09-.09.09-.09-.04-.09-.09.04-.09.09-.09M120.46,16.53c-.32,0-.58.26-.58.58s.26.58.58.58.58-.26.58-.58-.26-.58-.58-.58h0Z"/>
              </g>
              <g>
                <circle class="cls-10" cx="120.88" cy="16.97" r=".34"/>
                <path class="cls-10" d="M120.88,16.88s.09.04.09.09-.04.09-.09.09-.09-.04-.09-.09.04-.09.09-.09M120.88,16.39c-.32,0-.58.26-.58.58s.26.58.58.58.58-.26.58-.58-.26-.58-.58-.58h0Z"/>
              </g>
              <g>
                <circle class="cls-10" cx="121.44" cy="17.17" r=".34"/>
                <path class="cls-10" d="M121.44,17.07s.09.04.09.09-.04.09-.09.09-.09-.04-.09-.09.04-.09.09-.09M121.44,16.58c-.32,0-.58.26-.58.58s.26.58.58.58.58-.26.58-.58-.26-.58-.58-.58h0Z"/>
              </g>
              <g>
                <circle class="cls-10" cx="121.62" cy="18.19" r=".34"/>
                <path class="cls-10" d="M121.62,18.1s.09.04.09.09-.04.09-.09.09-.09-.04-.09-.09.04-.09.09-.09M121.62,17.61c-.32,0-.58.26-.58.58s.26.58.58.58.58-.26.58-.58-.26-.58-.58-.58h0Z"/>
              </g>
              <g>
                <circle class="cls-10" cx="121.18" cy="17.98" r=".34"/>
                <path class="cls-10" d="M121.18,17.89s.09.04.09.09-.04.09-.09.09-.09-.04-.09-.09.04-.09.09-.09M121.18,17.39c-.32,0-.58.26-.58.58s.26.58.58.58.58-.26.58-.58-.26-.58-.58-.58h0Z"/>
              </g>
              <g>
                <circle class="cls-10" cx="120.73" cy="17.68" r=".34"/>
                <path class="cls-10" d="M120.73,17.59s.09.04.09.09-.04.09-.09.09-.09-.04-.09-.09.04-.09.09-.09M120.73,17.09c-.32,0-.58.26-.58.58s.26.58.58.58.58-.26.58-.58-.26-.58-.58-.58h0Z"/>
              </g>
              <g>
                <path class="cls-10" d="M121.49,18c-.19,0-.34-.15-.34-.34s.15-.34.34-.34.34.15.34.34-.15.34-.34.34Z"/>
                <path class="cls-10" d="M121.49,17.57s.09.04.09.09-.04.09-.09.09-.09-.04-.09-.09.04-.09.09-.09M121.49,17.08c-.32,0-.58.26-.58.58s.26.58.58.58.58-.26.58-.58-.26-.58-.58-.58h0Z"/>
              </g>
              <g>
                <circle class="cls-10" cx="121.02" cy="16.39" r=".34"/>
                <path class="cls-10" d="M121.02,16.3s.09.04.09.09-.04.09-.09.09-.09-.04-.09-.09.04-.09.09-.09M121.02,15.8c-.32,0-.58.26-.58.58s.26.58.58.58.58-.26.58-.58-.26-.58-.58-.58h0Z"/>
              </g>
              <g>
                <path class="cls-10" d="M120.55,16.55c-.19,0-.34-.15-.34-.34s.15-.34.34-.34.34.15.34.34-.15.34-.34.34Z"/>
                <path class="cls-10" d="M120.55,16.12s.09.04.09.09-.04.09-.09.09-.09-.04-.09-.09.04-.09.09-.09M120.55,15.62c-.32,0-.58.26-.58.58s.26.58.58.58.58-.26.58-.58-.26-.58-.58-.58h0Z"/>
              </g>
              <g>
                <circle class="cls-10" cx="120.05" cy="19.71" r=".34"/>
                <path class="cls-10" d="M120.05,19.62s.09.04.09.09-.04.09-.09.09-.09-.04-.09-.09.04-.09.09-.09M120.05,19.13c-.32,0-.58.26-.58.58s.26.58.58.58.58-.26.58-.58-.26-.58-.58-.58h0Z"/>
              </g>
              <g>
                <circle class="cls-10" cx="119.14" cy="19.28" r=".34"/>
                <path class="cls-10" d="M119.14,19.19s.09.04.09.09-.04.09-.09.09-.09-.04-.09-.09.04-.09.09-.09M119.14,18.7c-.32,0-.58.26-.58.58s.26.58.58.58.58-.26.58-.58-.26-.58-.58-.58h0Z"/>
              </g>
              <g>
                <circle class="cls-10" cx="119.53" cy="19.53" r=".34"/>
                <path class="cls-10" d="M119.53,19.44s.09.04.09.09-.04.09-.09.09-.09-.04-.09-.09.04-.09.09-.09M119.53,18.95c-.32,0-.58.26-.58.58s.26.58.58.58.58-.26.58-.58-.26-.58-.58-.58h0Z"/>
              </g>
              <g>
                <circle class="cls-10" cx="119.05" cy="19.8" r=".34"/>
                <path class="cls-10" d="M119.05,19.71s.09.04.09.09-.04.09-.09.09-.09-.04-.09-.09.04-.09.09-.09M119.05,19.22c-.32,0-.58.26-.58.58s.26.58.58.58.58-.26.58-.58-.26-.58-.58-.58h0Z"/>
              </g>
              <g>
                <circle class="cls-10" cx="119.62" cy="20.03" r=".34"/>
                <path class="cls-10" d="M119.62,19.94s.09.04.09.09-.04.09-.09.09-.09-.04-.09-.09.04-.09.09-.09M119.62,19.44c-.32,0-.58.26-.58.58s.26.58.58.58.58-.26.58-.58-.26-.58-.58-.58h0Z"/>
              </g>
              <g>
                <path class="cls-10" d="M120.14,20.57c-.19,0-.34-.15-.34-.34s.15-.34.34-.34.34.15.34.34-.15.34-.34.34Z"/>
                <path class="cls-10" d="M120.14,20.14s.09.04.09.09-.04.09-.09.09-.09-.04-.09-.09.04-.09.09-.09M120.14,19.65c-.32,0-.58.26-.58.58s.26.58.58.58.58-.26.58-.58-.26-.58-.58-.58h0Z"/>
              </g>
              <g>
                <path class="cls-10" d="M119.69,20.87c-.19,0-.34-.15-.34-.34s.15-.34.34-.34.34.15.34.34-.15.34-.34.34Z"/>
                <path class="cls-10" d="M119.69,20.44s.09.04.09.09-.04.09-.09.09-.09-.04-.09-.09.04-.09.09-.09M119.69,19.94c-.32,0-.58.26-.58.58s.26.58.58.58.58-.26.58-.58-.26-.58-.58-.58h0Z"/>
              </g>
              <g>
                <circle class="cls-10" cx="120.37" cy="20.71" r=".34"/>
                <path class="cls-10" d="M120.37,20.62s.09.04.09.09-.04.09-.09.09-.09-.04-.09-.09.04-.09.09-.09M120.37,20.13c-.32,0-.58.26-.58.58s.26.58.58.58.58-.26.58-.58-.26-.58-.58-.58h0Z"/>
              </g>
              <g>
                <circle class="cls-10" cx="122.89" cy="21.1" r=".34"/>
                <path class="cls-10" d="M122.89,21.01s.09.04.09.09-.04.09-.09.09-.09-.04-.09-.09.04-.09.09-.09M122.89,20.51c-.32,0-.58.26-.58.58s.26.58.58.58.58-.26.58-.58-.26-.58-.58-.58h0Z"/>
              </g>
              <g>
                <circle class="cls-10" cx="123.55" cy="20.62" r=".34"/>
                <path class="cls-10" d="M123.55,20.53s.09.04.09.09-.04.09-.09.09-.09-.04-.09-.09.04-.09.09-.09M123.55,20.04c-.32,0-.58.26-.58.58s.26.58.58.58.58-.26.58-.58-.26-.58-.58-.58h0Z"/>
              </g>
              <g>
                <circle class="cls-10" cx="124.3" cy="20.35" r=".34"/>
                <path class="cls-10" d="M124.3,20.26s.09.04.09.09-.04.09-.09.09-.09-.04-.09-.09.04-.09.09-.09M124.3,19.76c-.32,0-.58.26-.58.58s.26.58.58.58.58-.26.58-.58-.26-.58-.58-.58h0Z"/>
              </g>
              <g>
                <circle class="cls-10" cx="124.64" cy="19.75" r=".34"/>
                <path class="cls-10" d="M124.64,19.66s.09.04.09.09-.04.09-.09.09-.09-.04-.09-.09.04-.09.09-.09M124.64,19.17c-.32,0-.58.26-.58.58s.26.58.58.58.58-.26.58-.58-.26-.58-.58-.58h0Z"/>
              </g>
              <g>
                <path class="cls-10" d="M124.96,19.35c-.19,0-.34-.15-.34-.34s.15-.34.34-.34.34.15.34.34-.15.34-.34.34Z"/>
                <path class="cls-10" d="M124.96,18.92s.09.04.09.09-.04.09-.09.09-.09-.04-.09-.09.04-.09.09-.09M124.96,18.42c-.32,0-.58.26-.58.58s.26.58.58.58.58-.26.58-.58-.26-.58-.58-.58h0Z"/>
              </g>
              <g>
                <path class="cls-10" d="M125.11,18.46c-.19,0-.34-.15-.34-.34s.15-.34.34-.34.34.15.34.34-.15.34-.34.34Z"/>
                <path class="cls-10" d="M125.11,18.03s.09.04.09.09-.04.09-.09.09-.09-.04-.09-.09.04-.09.09-.09M125.11,17.54c-.32,0-.58.26-.58.58s.26.58.58.58.58-.26.58-.58-.26-.58-.58-.58h0Z"/>
              </g>
              <g>
                <circle class="cls-10" cx="125.19" cy="17.34" r=".34"/>
                <path class="cls-10" d="M125.19,17.25s.09.04.09.09-.04.09-.09.09-.09-.04-.09-.09.04-.09.09-.09M125.19,16.75c-.32,0-.58.26-.58.58s.26.58.58.58.58-.26.58-.58-.26-.58-.58-.58h0Z"/>
              </g>
              <g>
                <path class="cls-10" d="M125.19,17.04c-.19,0-.34-.15-.34-.34s.15-.34.34-.34.34.15.34.34-.15.34-.34.34Z"/>
                <path class="cls-10" d="M125.19,16.61s.09.04.09.09-.04.09-.09.09-.09-.04-.09-.09.04-.09.09-.09M125.19,16.12c-.32,0-.58.26-.58.58s.26.58.58.58.58-.26.58-.58-.26-.58-.58-.58h0Z"/>
              </g>
              <g>
                <circle class="cls-10" cx="125.19" cy="16.03" r=".34"/>
                <path class="cls-10" d="M125.19,15.94s.09.04.09.09-.04.09-.09.09-.09-.04-.09-.09.04-.09.09-.09M125.19,15.44c-.32,0-.58.26-.58.58s.26.58.58.58.58-.26.58-.58-.26-.58-.58-.58h0Z"/>
              </g>
              <g>
                <path class="cls-10" d="M124.87,15.73c-.19,0-.34-.15-.34-.34s.15-.34.34-.34.34.15.34.34-.15.34-.34.34Z"/>
                <path class="cls-10" d="M124.87,15.3s.09.04.09.09-.04.09-.09.09-.09-.04-.09-.09.04-.09.09-.09M124.87,14.8c-.32,0-.58.26-.58.58s.26.58.58.58.58-.26.58-.58-.26-.58-.58-.58h0Z"/>
              </g>
              <g>
                <circle class="cls-10" cx="124.3" cy="14.64" r=".34"/>
                <path class="cls-10" d="M124.3,14.55s.09.04.09.09-.04.09-.09.09-.09-.04-.09-.09.04-.09.09-.09M124.3,14.06c-.32,0-.58.26-.58.58s.26.58.58.58.58-.26.58-.58-.26-.58-.58-.58h0Z"/>
              </g>
              <g>
                <circle class="cls-10" cx="123.64" cy="14.13" r=".34"/>
                <path class="cls-10" d="M123.64,14.04s.09.04.09.09-.04.09-.09.09-.09-.04-.09-.09.04-.09.09-.09M123.64,13.55c-.32,0-.58.26-.58.58s.26.58.58.58.58-.26.58-.58-.26-.58-.58-.58h0Z"/>
              </g>
              <g>
                <circle class="cls-10" cx="123.94" cy="13.27" r=".34"/>
                <path class="cls-10" d="M123.94,13.18s.09.04.09.09-.04.09-.09.09-.09-.04-.09-.09.04-.09.09-.09M123.94,12.68c-.32,0-.58.26-.58.58s.26.58.58.58.58-.26.58-.58-.26-.58-.58-.58h0Z"/>
              </g>
              <g>
                <circle class="cls-10" cx="121.71" cy="21.69" r=".34"/>
                <path class="cls-10" d="M121.71,21.6s.09.04.09.09-.04.09-.09.09-.09-.04-.09-.09.04-.09.09-.09M121.71,21.11c-.32,0-.58.26-.58.58s.26.58.58.58.58-.26.58-.58-.26-.58-.58-.58h0Z"/>
              </g>
              <g>
                <circle class="cls-10" cx="122.44" cy="21.69" r=".34"/>
                <path class="cls-10" d="M122.44,21.6s.09.04.09.09-.04.09-.09.09-.09-.04-.09-.09.04-.09.09-.09M122.44,21.11c-.32,0-.58.26-.58.58s.26.58.58.58.58-.26.58-.58-.26-.58-.58-.58h0Z"/>
              </g>
              <g>
                <circle class="cls-10" cx="122.92" cy="21.6" r=".34"/>
                <path class="cls-10" d="M122.92,21.51s.09.04.09.09-.04.09-.09.09-.09-.04-.09-.09.04-.09.09-.09M122.92,21.02c-.32,0-.58.26-.58.58s.26.58.58.58.58-.26.58-.58-.26-.58-.58-.58h0Z"/>
              </g>
              <g>
                <path class="cls-10" d="M123.5,21.49c-.19,0-.34-.15-.34-.34s.15-.34.34-.34.34.15.34.34-.15.34-.34.34Z"/>
                <path class="cls-10" d="M123.5,21.07s.09.04.09.09-.04.09-.09.09-.09-.04-.09-.09.04-.09.09-.09M123.5,20.57c-.32,0-.58.26-.58.58s.26.58.58.58.58-.26.58-.58-.26-.58-.58-.58h0Z"/>
              </g>
              <g>
                <circle class="cls-10" cx="124.21" cy="20.89" r=".34"/>
                <path class="cls-10" d="M124.21,20.8s.09.04.09.09-.04.09-.09.09-.09-.04-.09-.09.04-.09.09-.09M124.21,20.3c-.32,0-.58.26-.58.58s.26.58.58.58.58-.26.58-.58-.26-.58-.58-.58h0Z"/>
              </g>
              <g>
                <path class="cls-10" d="M124.83,20.78c-.19,0-.34-.15-.34-.34s.15-.34.34-.34.34.15.34.34-.15.34-.34.34Z"/>
                <path class="cls-10" d="M124.83,20.35s.09.04.09.09-.04.09-.09.09-.09-.04-.09-.09.04-.09.09-.09M124.83,19.85c-.32,0-.58.26-.58.58s.26.58.58.58.58-.26.58-.58-.26-.58-.58-.58h0Z"/>
              </g>
              <g>
                <circle class="cls-10" cx="125.2" cy="19.53" r=".34"/>
                <path class="cls-10" d="M125.2,19.44s.09.04.09.09-.04.09-.09.09-.09-.04-.09-.09.04-.09.09-.09M125.2,18.95c-.32,0-.58.26-.58.58s.26.58.58.58.58-.26.58-.58-.26-.58-.58-.58h0Z"/>
              </g>
              <g>
                <circle class="cls-10" cx="125.51" cy="18.75" r=".34"/>
                <path class="cls-10" d="M125.51,18.66s.09.04.09.09-.04.09-.09.09-.09-.04-.09-.09.04-.09.09-.09M125.51,18.17c-.32,0-.58.26-.58.58s.26.58.58.58.58-.26.58-.58-.26-.58-.58-.58h0Z"/>
              </g>
              <g>
                <circle class="cls-10" cx="125.76" cy="17.8" r=".34"/>
                <path class="cls-10" d="M125.76,17.71s.09.04.09.09-.04.09-.09.09-.09-.04-.09-.09.04-.09.09-.09M125.76,17.21c-.32,0-.58.26-.58.58s.26.58.58.58.58-.26.58-.58-.26-.58-.58-.58h0Z"/>
              </g>
              <g>
                <circle class="cls-10" cx="125.85" cy="17" r=".34"/>
                <path class="cls-10" d="M125.85,16.91s.09.04.09.09-.04.09-.09.09-.09-.04-.09-.09.04-.09.09-.09M125.85,16.41c-.32,0-.58.26-.58.58s.26.58.58.58.58-.26.58-.58-.26-.58-.58-.58h0Z"/>
              </g>
              <g>
                <circle class="cls-10" cx="125.76" cy="16.3" r=".34"/>
                <path class="cls-10" d="M125.76,16.21s.09.04.09.09-.04.09-.09.09-.09-.04-.09-.09.04-.09.09-.09M125.76,15.71c-.32,0-.58.26-.58.58s.26.58.58.58.58-.26.58-.58-.26-.58-.58-.58h0Z"/>
              </g>
              <g>
                <path class="cls-10" d="M125.51,15.82c-.19,0-.34-.15-.34-.34s.15-.34.34-.34.34.15.34.34-.15.34-.34.34Z"/>
                <path class="cls-10" d="M125.51,15.39s.09.04.09.09-.04.09-.09.09-.09-.04-.09-.09.04-.09.09-.09M125.51,14.89c-.32,0-.58.26-.58.58s.26.58.58.58.58-.26.58-.58-.26-.58-.58-.58h0Z"/>
              </g>
              <g>
                <path class="cls-10" d="M124.96,15.05c-.19,0-.34-.15-.34-.34s.15-.34.34-.34.34.15.34.34-.15.34-.34.34Z"/>
                <path class="cls-10" d="M124.96,14.62s.09.04.09.09-.04.09-.09.09-.09-.04-.09-.09.04-.09.09-.09M124.96,14.12c-.32,0-.58.26-.58.58s.26.58.58.58.58-.26.58-.58-.26-.58-.58-.58h0Z"/>
              </g>
              <g>
                <path class="cls-10" d="M124.39,14.27c-.19,0-.34-.15-.34-.34s.15-.34.34-.34.34.15.34.34-.15.34-.34.34Z"/>
                <path class="cls-10" d="M124.39,13.84s.09.04.09.09-.04.09-.09.09-.09-.04-.09-.09.04-.09.09-.09M124.39,13.35c-.32,0-.58.26-.58.58s.26.58.58.58.58-.26.58-.58-.26-.58-.58-.58h0Z"/>
              </g>
              <g>
                <circle class="cls-10" cx="121.4" cy="22.21" r=".34"/>
                <path class="cls-10" d="M121.4,22.12s.09.04.09.09-.04.09-.09.09-.09-.04-.09-.09.04-.09.09-.09M121.4,21.62c-.32,0-.58.26-.58.58s.26.58.58.58.58-.26.58-.58-.26-.58-.58-.58h0Z"/>
              </g>
              <g>
                <circle class="cls-10" cx="122.03" cy="22.12" r=".34"/>
                <path class="cls-10" d="M122.03,22.03s.09.04.09.09-.04.09-.09.09-.09-.04-.09-.09.04-.09.09-.09M122.03,21.53c-.32,0-.58.26-.58.58s.26.58.58.58.58-.26.58-.58-.26-.58-.58-.58h0Z"/>
              </g>
              <g>
                <circle class="cls-10" cx="122.71" cy="22.11" r=".34"/>
                <path class="cls-10" d="M122.71,22.02s.09.04.09.09-.04.09-.09.09-.09-.04-.09-.09.04-.09.09-.09M122.71,21.53c-.32,0-.58.26-.58.58s.26.58.58.58.58-.26.58-.58-.26-.58-.58-.58h0Z"/>
              </g>
              <g>
                <path class="cls-10" d="M123.41,22.12c-.19,0-.34-.15-.34-.34s.15-.34.34-.34.34.15.34.34-.15.34-.34.34Z"/>
                <path class="cls-10" d="M123.41,21.69s.09.04.09.09-.04.09-.09.09-.09-.04-.09-.09.04-.09.09-.09M123.41,21.2c-.32,0-.58.26-.58.58s.26.58.58.58.58-.26.58-.58-.26-.58-.58-.58h0Z"/>
              </g>
              <g>
                <path class="cls-10" d="M124.21,21.85c-.19,0-.34-.15-.34-.34s.15-.34.34-.34.34.15.34.34-.15.34-.34.34Z"/>
                <path class="cls-10" d="M124.21,21.42s.09.04.09.09-.04.09-.09.09-.09-.04-.09-.09.04-.09.09-.09M124.21,20.93c-.32,0-.58.26-.58.58s.26.58.58.58.58-.26.58-.58-.26-.58-.58-.58h0Z"/>
              </g>
              <g>
                <circle class="cls-10" cx="124.92" cy="21.07" r=".34"/>
                <path class="cls-10" d="M124.92,20.98s.09.04.09.09-.04.09-.09.09-.09-.04-.09-.09.04-.09.09-.09M124.92,20.48c-.32,0-.58.26-.58.58s.26.58.58.58.58-.26.58-.58-.26-.58-.58-.58h0Z"/>
              </g>
              <g>
                <path class="cls-10" d="M125.38,20.57c-.19,0-.34-.15-.34-.34s.15-.34.34-.34.34.15.34.34-.15.34-.34.34Z"/>
                <path class="cls-10" d="M125.38,20.14s.09.04.09.09-.04.09-.09.09-.09-.04-.09-.09.04-.09.09-.09M125.38,19.65c-.32,0-.58.26-.58.58s.26.58.58.58.58-.26.58-.58-.26-.58-.58-.58h0Z"/>
              </g>
              <g>
                <circle class="cls-10" cx="125.85" cy="19.44" r=".34"/>
                <path class="cls-10" d="M125.85,19.35s.09.04.09.09-.04.09-.09.09-.09-.04-.09-.09.04-.09.09-.09M125.85,18.86c-.32,0-.58.26-.58.58s.26.58.58.58.58-.26.58-.58-.26-.58-.58-.58h0Z"/>
              </g>
              <g>
                <circle class="cls-10" cx="126.12" cy="18.46" r=".34"/>
                <path class="cls-10" d="M126.12,18.37s.09.04.09.09-.04.09-.09.09-.09-.04-.09-.09.04-.09.09-.09M126.12,17.88c-.32,0-.58.26-.58.58s.26.58.58.58.58-.26.58-.58-.26-.58-.58-.58h0Z"/>
              </g>
              <g>
                <path class="cls-10" d="M126.42,17.86c-.19,0-.34-.15-.34-.34s.15-.34.34-.34.34.15.34.34-.15.34-.34.34Z"/>
                <path class="cls-10" d="M126.42,17.43s.09.04.09.09-.04.09-.09.09-.09-.04-.09-.09.04-.09.09-.09M126.42,16.94c-.32,0-.58.26-.58.58s.26.58.58.58.58-.26.58-.58-.26-.58-.58-.58h0Z"/>
              </g>
              <g>
                <circle class="cls-10" cx="126.42" cy="16.61" r=".34"/>
                <path class="cls-10" d="M126.42,16.52s.09.04.09.09-.04.09-.09.09-.09-.04-.09-.09.04-.09.09-.09M126.42,16.03c-.32,0-.58.26-.58.58s.26.58.58.58.58-.26.58-.58-.26-.58-.58-.58h0Z"/>
              </g>
              <g>
                <path class="cls-10" d="M126.21,16.01c-.19,0-.34-.15-.34-.34s.15-.34.34-.34.34.15.34.34-.15.34-.34.34Z"/>
                <path class="cls-10" d="M126.21,15.58s.09.04.09.09-.04.09-.09.09-.09-.04-.09-.09.04-.09.09-.09M126.21,15.09c-.32,0-.58.26-.58.58s.26.58.58.58.58-.26.58-.58-.26-.58-.58-.58h0Z"/>
              </g>
              <g>
                <circle class="cls-10" cx="125.76" cy="14.8" r=".34"/>
                <path class="cls-10" d="M125.76,14.71s.09.04.09.09-.04.09-.09.09-.09-.04-.09-.09.04-.09.09-.09M125.76,14.21c-.32,0-.58.26-.58.58s.26.58.58.58.58-.26.58-.58-.26-.58-.58-.58h0Z"/>
              </g>
              <g>
                <circle class="cls-10" cx="125.19" cy="13.95" r=".34"/>
                <path class="cls-10" d="M125.19,13.86s.09.04.09.09-.04.09-.09.09-.09-.04-.09-.09.04-.09.09-.09M125.19,13.37c-.32,0-.58.26-.58.58s.26.58.58.58.58-.26.58-.58-.26-.58-.58-.58h0Z"/>
              </g>
              <g>
                <circle class="cls-10" cx="124.64" cy="13.18" r=".34"/>
                <path class="cls-10" d="M124.64,13.09s.09.04.09.09-.04.09-.09.09-.09-.04-.09-.09.04-.09.09-.09M124.64,12.59c-.32,0-.58.26-.58.58s.26.58.58.58.58-.26.58-.58-.26-.58-.58-.58h0Z"/>
              </g>
              <g>
                <circle class="cls-10" cx="121.02" cy="22.62" r=".34"/>
                <path class="cls-10" d="M121.02,22.53s.09.04.09.09-.04.09-.09.09-.09-.04-.09-.09.04-.09.09-.09M121.02,22.03c-.32,0-.58.26-.58.58s.26.58.58.58.58-.26.58-.58-.26-.58-.58-.58h0Z"/>
              </g>
              <g>
                <circle class="cls-10" cx="121.62" cy="22.66" r=".34"/>
                <path class="cls-10" d="M121.62,22.57s.09.04.09.09-.04.09-.09.09-.09-.04-.09-.09.04-.09.09-.09M121.62,22.07c-.32,0-.58.26-.58.58s.26.58.58.58.58-.26.58-.58-.26-.58-.58-.58h0Z"/>
              </g>
              <g>
                <circle class="cls-10" cx="122.35" cy="22.53" r=".34"/>
                <path class="cls-10" d="M122.35,22.44s.09.04.09.09-.04.09-.09.09-.09-.04-.09-.09.04-.09.09-.09M122.35,21.94c-.32,0-.58.26-.58.58s.26.58.58.58.58-.26.58-.58-.26-.58-.58-.58h0Z"/>
              </g>
              <g>
                <circle class="cls-10" cx="123.16" cy="22.39" r=".34"/>
                <path class="cls-10" d="M123.16,22.3s.09.04.09.09-.04.09-.09.09-.09-.04-.09-.09.04-.09.09-.09M123.16,21.8c-.32,0-.58.26-.58.58s.26.58.58.58.58-.26.58-.58-.26-.58-.58-.58h0Z"/>
              </g>
              <g>
                <path class="cls-10" d="M124.03,22.36c-.19,0-.34-.15-.34-.34s.15-.34.34-.34.34.15.34.34-.15.34-.34.34Z"/>
                <path class="cls-10" d="M124.03,21.93s.09.04.09.09-.04.09-.09.09-.09-.04-.09-.09.04-.09.09-.09M124.03,21.44c-.32,0-.58.26-.58.58s.26.58.58.58.58-.26.58-.58-.26-.58-.58-.58h0Z"/>
              </g>
              <g>
                <circle class="cls-10" cx="124.83" cy="21.69" r=".34"/>
                <path class="cls-10" d="M124.83,21.6s.09.04.09.09-.04.09-.09.09-.09-.04-.09-.09.04-.09.09-.09M124.83,21.11c-.32,0-.58.26-.58.58s.26.58.58.58.58-.26.58-.58-.26-.58-.58-.58h0Z"/>
              </g>
              <g>
                <circle class="cls-10" cx="125.47" cy="20.98" r=".34"/>
                <path class="cls-10" d="M125.47,20.89s.09.04.09.09-.04.09-.09.09-.09-.04-.09-.09.04-.09.09-.09M125.47,20.39c-.32,0-.58.26-.58.58s.26.58.58.58.58-.26.58-.58-.26-.58-.58-.58h0Z"/>
              </g>
              <g>
                <path class="cls-10" d="M126.03,20.48c-.19,0-.34-.15-.34-.34s.15-.34.34-.34.34.15.34.34-.15.34-.34.34Z"/>
                <path class="cls-10" d="M126.03,20.05s.09.04.09.09-.04.09-.09.09-.09-.04-.09-.09.04-.09.09-.09M126.03,19.56c-.32,0-.58.26-.58.58s.26.58.58.58.58-.26.58-.58-.26-.58-.58-.58h0Z"/>
              </g>
              <g>
                <circle class="cls-10" cx="126.51" cy="19.19" r=".34"/>
                <path class="cls-10" d="M126.51,19.1s.09.04.09.09-.04.09-.09.09-.09-.04-.09-.09.04-.09.09-.09M126.51,18.61c-.32,0-.58.26-.58.58s.26.58.58.58.58-.26.58-.58-.26-.58-.58-.58h0Z"/>
              </g>
              <g>
                <path class="cls-10" d="M126.78,18.46c-.19,0-.34-.15-.34-.34s.15-.34.34-.34.34.15.34.34-.15.34-.34.34Z"/>
                <path class="cls-10" d="M126.78,18.03s.09.04.09.09-.04.09-.09.09-.09-.04-.09-.09.04-.09.09-.09M126.78,17.54c-.32,0-.58.26-.58.58s.26.58.58.58.58-.26.58-.58-.26-.58-.58-.58h0Z"/>
              </g>
              <g>
                <circle class="cls-10" cx="126.84" cy="17" r=".34"/>
                <path class="cls-10" d="M126.84,16.91s.09.04.09.09-.04.09-.09.09-.09-.04-.09-.09.04-.09.09-.09M126.84,16.41c-.32,0-.58.26-.58.58s.26.58.58.58.58-.26.58-.58-.26-.58-.58-.58h0Z"/>
              </g>
              <g>
                <path class="cls-10" d="M126.69,16.37c-.19,0-.34-.15-.34-.34s.15-.34.34-.34.34.15.34.34-.15.34-.34.34Z"/>
                <path class="cls-10" d="M126.69,15.94s.09.04.09.09-.04.09-.09.09-.09-.04-.09-.09.04-.09.09-.09M126.69,15.44c-.32,0-.58.26-.58.58s.26.58.58.58.58-.26.58-.58-.26-.58-.58-.58h0Z"/>
              </g>
              <g>
                <circle class="cls-10" cx="126.46" cy="15.07" r=".34"/>
                <path class="cls-10" d="M126.46,14.98s.09.04.09.09-.04.09-.09.09-.09-.04-.09-.09.04-.09.09-.09M126.46,14.49c-.32,0-.58.26-.58.58s.26.58.58.58.58-.26.58-.58-.26-.58-.58-.58h0Z"/>
              </g>
              <g>
                <circle class="cls-10" cx="125.94" cy="13.95" r=".34"/>
                <path class="cls-10" d="M125.94,13.86s.09.04.09.09-.04.09-.09.09-.09-.04-.09-.09.04-.09.09-.09M125.94,13.37c-.32,0-.58.26-.58.58s.26.58.58.58.58-.26.58-.58-.26-.58-.58-.58h0Z"/>
              </g>
              <g>
                <circle class="cls-10" cx="125.19" cy="12.9" r=".34"/>
                <path class="cls-10" d="M125.19,12.81s.09.04.09.09-.04.09-.09.09-.09-.04-.09-.09.04-.09.09-.09M125.19,12.32c-.32,0-.58.26-.58.58s.26.58.58.58.58-.26.58-.58-.26-.58-.58-.58h0Z"/>
              </g>
              <g>
                <circle class="cls-10" cx="124.12" cy="12.09" r=".34"/>
                <path class="cls-10" d="M124.12,12s.09.04.09.09-.04.09-.09.09-.09-.04-.09-.09.04-.09.09-.09M124.12,11.51c-.32,0-.58.26-.58.58s.26.58.58.58.58-.26.58-.58-.26-.58-.58-.58h0Z"/>
              </g>
            </g>
          </g>
        </g>
      </g>
    </g>
    <g id="Eye">
      <g>
        <path class="cls-10" d="M119.67,16.01c-.66,0-1.19-.16-1.53-.47-1.13-1.02.08-3.2,1.18-4.42.66-.73,1.54-1.15,2.43-1.15.61,0,1.15.2,1.57.58,1.06.96,1,2.77-.14,4.04-.73.81-2.23,1.42-3.51,1.42Z"/>
        <path class="cls-10" d="M121.75,10.22c.52,0,1.02.17,1.41.52.96.87.89,2.52-.16,3.69-.71.79-2.16,1.33-3.33,1.33-.56,0-1.05-.12-1.36-.41-.96-.87.14-2.9,1.2-4.07.63-.7,1.47-1.07,2.24-1.07M121.75,9.73h0c-.95,0-1.91.45-2.61,1.23-.63.7-1.17,1.56-1.45,2.3-.51,1.36-.12,2.09.29,2.46.39.35.97.53,1.69.53,1.36,0,2.91-.63,3.69-1.5.59-.65.93-1.46.96-2.27.04-.85-.26-1.6-.84-2.12-.47-.42-1.07-.64-1.74-.64h0Z"/>
      </g>
      <g>
        <path class="cls-10" d="M121.49,13.88c-.78,0-1.41-.63-1.41-1.41s.63-1.41,1.41-1.41,1.41.63,1.41,1.41-.63,1.41-1.41,1.41Z"/>
        <path class="cls-10" d="M121.49,11.3c.64,0,1.17.52,1.17,1.17s-.52,1.17-1.17,1.17-1.17-.52-1.17-1.17.52-1.17,1.17-1.17M121.49,10.81c-.92,0-1.66.75-1.66,1.66s.74,1.66,1.66,1.66,1.66-.75,1.66-1.66-.74-1.66-1.66-1.66h0Z"/>
      </g>
      <g>
        <path class="cls-10" d="M121.94,13.56c-.32,0-.57-.26-.57-.57s.26-.57.57-.57.57.26.57.57-.26.57-.57.57Z"/>
        <path class="cls-10" d="M121.94,12.67c.18,0,.32.15.32.32s-.15.32-.32.32-.32-.15-.32-.32.15-.32.32-.32M121.94,12.17c-.45,0-.82.37-.82.82s.37.82.82.82.82-.37.82-.82-.37-.82-.82-.82h0Z"/>
      </g>
    </g>
    <g id="Outline">
      <path class="cls-10" d="M113.94,61.83c-.28,0-.56-.04-.82-.13-.83-.28-1.4-.93-1.7-1.94-1.2-4.03,2.17-12.64,7.68-19.66-5.48-6.98-2.53-12.84.67-17.17.28-.41-.04-2.17-2.51-3.99-.05-.04-.09-.1-.1-.17,0-.07,0-.13.05-.19l.09-.11c1.04-1.31,4.19-5.31-.58-9.31-.58-.93-.62-1.9-.16-2.72.39-.7,1.1-1.17,1.77-1.17.82,0,1.3.48,1.54.89.16-.09.36-.16.62-.16.24,0,.49.06.76.18.73.32,1.1.96,1.27,1.36.2-.12.5-.25.88-.25.15,0,.31.02.48.06.8.2,1.18,1.16,1.33,1.65.2-.06.48-.13.79-.13.35,0,.67.09.94.26.61.38.84,1.07.92,1.48.13-.04.3-.07.49-.07.38,0,.95.13,1.47.74.88,1.04.47,2.84.34,3.31,3.17,4.98,4.11,9.94,2.79,14.73-1.47,5.31-5.59,9.44-9.08,11.22-1.01,11.35-5.64,21.28-9.93,21.28Z"/>
      <path class="cls-10" d="M118.33,5.53c1.15,0,1.45,1.05,1.45,1.05,0,0,.21-.32.72-.32.18,0,.4.04.66.16.99.43,1.25,1.54,1.25,1.54,0,0,.35-.41,1-.41.13,0,.27.02.42.05.92.23,1.22,1.74,1.22,1.74,0,0,.44-.22.96-.22.26,0,.55.05.81.22.79.49.85,1.61.85,1.61,0,0,.29-.16.69-.16.37,0,.84.14,1.28.65.92,1.08.26,3.19.26,3.19,8.38,13.05-.77,23.03-6.25,25.76-1.04,12-5.85,21.19-9.7,21.19-.25,0-.5-.04-.74-.12-3.94-1.31-1.05-12.19,6.21-21.36-5.82-7.26-2.23-13.24.56-17.02.35-.53.07-2.4-2.56-4.34.95-1.22,4.57-5.49-.53-9.76-1.08-1.77.3-3.45,1.45-3.45M118.33,5.04c-.76,0-1.54.51-1.98,1.3-.5.9-.46,1.96.12,2.9.03.05.06.09.1.12,4.11,3.45,2.28,6.77.54,8.97l-.09.11c-.08.1-.12.24-.1.37s.09.25.2.33c2.43,1.79,2.62,3.4,2.45,3.66-3.22,4.35-6.2,10.25-.78,17.3-5.48,7.05-8.81,15.66-7.6,19.73.32,1.08.96,1.8,1.86,2.1.29.1.59.15.9.15,4.39,0,9.11-9.95,10.16-21.37,3.51-1.84,7.61-5.99,9.08-11.31,1.33-4.83.4-9.82-2.76-14.84.15-.62.48-2.37-.42-3.43-.58-.68-1.22-.83-1.66-.83-.11,0-.21,0-.31.02-.13-.45-.4-1.04-.97-1.4-.31-.2-.67-.29-1.07-.29-.23,0-.45.03-.63.08-.2-.56-.62-1.38-1.43-1.58-.18-.04-.36-.07-.53-.07-.31,0-.56.07-.77.16-.22-.43-.62-.96-1.28-1.25-.3-.13-.59-.2-.86-.2-.21,0-.39.04-.53.09-.3-.42-.83-.83-1.63-.83h0Z"/>
    </g>
    <g id="Beak">
      <g id="Beak-2" data-name="Beak">
        <g>
          <path class="cls-10" d="M99.2,22.03c-1.96,0-2.75-.15-2.78-.16-.09-.02-.16-.08-.19-.17-.03-.09,0-.18.05-.24.05-.06,5.13-5.34,16.45-5.8-1.45-.18-2.91-.28-4.35-.28-9.41,0-15.71,3.9-15.77,3.94-.04.03-.09.04-.13.04-.06,0-.11-.02-.16-.06-.08-.07-.11-.18-.07-.28,3.13-8.14,12.95-11.03,20.4-11.03,1.66,0,3.07.16,3.86.44,1.86.65,3.57,3.14,3.97,5.79.35,2.34-.37,4.35-1.98,5.53-.03.02-.06.04-.1.04-10.15,1.84-16.04,2.23-19.2,2.23Z"/>
          <path class="cls-10" d="M112.65,8.25c1.72,0,3.07.17,3.78.42,3.25,1.13,5.82,8.03,1.92,10.89-10.25,1.86-16.12,2.22-19.16,2.22-1.96,0-2.73-.15-2.73-.15,0,0,5.39-5.75,17.84-5.75.43,0,.87,0,1.32.02-2.57-.54-5.01-.76-7.26-.76-9.6,0-15.9,3.98-15.9,3.98,3.35-8.69,14.07-10.87,20.17-10.87M112.65,7.75c-7.53,0-17.45,2.93-20.63,11.19-.08.2-.02.42.15.56.09.07.2.11.31.11.09,0,.18-.03.26-.08.06-.04,6.31-3.9,15.64-3.9.43,0,.87,0,1.3.02-9.25,1.14-13.38,5.43-13.57,5.64-.12.13-.16.32-.11.49.06.17.2.3.38.33.03,0,.84.16,2.82.16,3.17,0,9.08-.39,19.24-2.23.07-.01.14-.04.2-.09,1.68-1.24,2.44-3.34,2.08-5.77-.42-2.78-2.15-5.3-4.13-5.99-.82-.29-2.26-.45-3.95-.45h0Z"/>
        </g>
        <g>
          <path class="cls-10" d="M92.48,19.12c4.29-11.14,20.7-11.58,23.96-10.45s5.82,8.03,1.92,10.89c-16.86,3.06-21.89,2.07-21.89,2.07,0,0,5.77-6.16,19.17-5.73-13.55-2.84-23.16,3.22-23.16,3.22Z"/>
          <g class="cls-17">
            <g>
              <path class="cls-10" d="M91.81,21.29s-.07,0-.1-.02c-.1-.05-.16-.16-.14-.27,1.87-10.76,14.23-13.6,20.51-13.6,2.47,0,4.45.37,5.43,1.02,1.3.85,2.72,1.5,3.67,1.94,1.12.51,1.39.63,1.32.93-.06.26-.38.26-.59.26-.43,0-1.23-.07-2.87-.25-1.38-.15-3.22-.33-5.24-.33-8.86,0-15.99,3.35-21.8,10.24-.05.06-.12.09-.19.09Z"/>
              <path class="cls-10" d="M112.08,7.64c2.44,0,4.38.37,5.3.98,2.75,1.81,5.97,2.68,4.53,2.68-.45,0-1.34-.08-2.84-.25-1.5-.17-3.29-.33-5.27-.33-6.35,0-14.69,1.68-21.99,10.32,1.76-10.17,13.12-13.4,20.27-13.4M112.08,7.15v.49-.49h0c-6.35,0-18.86,2.89-20.76,13.81-.04.22.08.44.28.53.07.03.14.05.21.05.14,0,.28-.06.38-.18,5.76-6.83,12.83-10.15,21.61-10.15,2.01,0,3.84.17,5.21.33,1.64.18,2.45.25,2.89.25.22,0,.74,0,.84-.46.11-.49-.26-.66-1.46-1.21-.94-.43-2.35-1.08-3.63-1.92-1.02-.67-3.05-1.06-5.57-1.06h0Z"/>
            </g>
            <g>
              <path class="cls-10" d="M98.78,18.14c-.3,0-.72-.04-.84-.36-.13-.35.17-.79,1.06-1.58,3.92-3.43,12.92-3.7,15.59-3.7,1.92,0,5.66.16,6.08.76.69.98.04,2.66-.27,3.47-.04.09-.14.2-.24.21-.1,0-.19,0-.29,0-.64,0-1.15-.1-1.68-.21-.19-.04-.38-.08-.59-.11-.44-.07-.85-.19-1.29-.32-.31-.09-.62-.18-.94-.25-.44-.02-.93-.03-1.41-.03-4.03,0-8.22.85-11.29,1.47-1.75.35-3.12.63-3.89.63Z"/>
              <path class="cls-10" d="M114.58,12.76c3.2,0,5.64.32,5.88.66.62.89-.03,2.54-.32,3.29-.1,0-.19,0-.28,0-.84,0-1.46-.18-2.23-.31-.74-.12-1.43-.39-2.22-.56-.49-.03-.98-.04-1.47-.04-6.36,0-13.13,2.1-15.18,2.1-.88,0-.89-.39.38-1.5,3.23-2.82,10.31-3.63,15.42-3.63M114.58,12.26c-2.69,0-11.77.27-15.75,3.76-.85.74-1.33,1.31-1.13,1.85.2.52.86.52,1.07.52.79,0,2.18-.28,3.94-.64,3.05-.62,7.23-1.47,11.24-1.47.48,0,.95.01,1.4.04.31.07.6.16.89.24.42.12.86.25,1.31.32.2.03.39.07.58.11.52.1,1.06.21,1.73.21.1,0,.2,0,.3,0,.2,0,.37-.13.44-.32l.02-.05c.33-.85,1.01-2.61.24-3.7-.57-.81-4.95-.87-6.28-.87h0Z"/>
            </g>
            <g>
              <path class="cls-10" d="M97.51,22.89c-2.62,0-3.77-.42-3.82-.44-.11-.04-.17-.15-.16-.26.01-.11.1-.2.21-.22.2-.03.82-.51,1.42-.98,1.23-.96,2.91-2.28,4.62-2.82.02,0,.05-.01.07-.01.07,0,.13.03.18.08.06.07.08.17.05.26-.33.78-.35,1.42-.08,1.94.36.69,1.24,1.21,2.64,1.53.12.03.2.13.19.25,0,.12-.09.22-.21.23-1.86.28-3.58.43-5.11.43h0Z"/>
              <path class="cls-10" d="M99.85,18.41h0M99.85,18.41c-.52,1.25-.69,3.02,2.73,3.81-2.09.32-3.77.42-5.07.42-2.61,0-3.74-.42-3.74-.42.71-.1,3.4-2.96,6.08-3.81M99.85,17.92s-.02,0-.03,0c-.05,0-.09.01-.13.03-1.75.56-3.45,1.89-4.69,2.86-.5.39-1.13.88-1.31.93-.22.03-.39.21-.41.44-.02.22.11.44.32.51.05.02,1.24.46,3.91.46,1.54,0,3.27-.14,5.14-.43.23-.04.41-.23.42-.47,0-.24-.15-.45-.38-.5-1.32-.31-2.15-.78-2.47-1.4-.23-.45-.21-1.01.08-1.7.04-.07.06-.15.06-.23,0-.27-.22-.49-.49-.49h0ZM99.85,18.91h0,0Z"/>
            </g>
          </g>
        </g>
        <g>
          <path class="cls-10" d="M99.2,22.03c-1.96,0-2.75-.15-2.78-.16-.09-.02-.16-.08-.19-.17-.03-.09,0-.18.05-.24.05-.06,5.13-5.34,16.45-5.8-1.45-.18-2.91-.28-4.35-.28-9.41,0-15.71,3.9-15.77,3.94-.04.03-.09.04-.13.04-.06,0-.11-.02-.16-.06-.08-.07-.11-.18-.07-.28,3.13-8.14,12.95-11.03,20.4-11.03,1.66,0,3.07.16,3.86.44,1.86.65,3.57,3.14,3.97,5.79.35,2.34-.37,4.35-1.98,5.53-.03.02-.06.04-.1.04-10.15,1.84-16.04,2.23-19.2,2.23Z"/>
          <path class="cls-10" d="M112.65,8.25c1.72,0,3.07.17,3.78.42,3.25,1.13,5.82,8.03,1.92,10.89-10.25,1.86-16.12,2.22-19.16,2.22-1.96,0-2.73-.15-2.73-.15,0,0,5.39-5.75,17.84-5.75.43,0,.87,0,1.32.02-2.57-.54-5.01-.76-7.26-.76-9.6,0-15.9,3.98-15.9,3.98,3.35-8.69,14.07-10.87,20.17-10.87M112.65,7.75c-7.53,0-17.45,2.93-20.63,11.19-.08.2-.02.42.15.56.09.07.2.11.31.11.09,0,.18-.03.26-.08.06-.04,6.31-3.9,15.64-3.9.43,0,.87,0,1.3.02-9.25,1.14-13.38,5.43-13.57,5.64-.12.13-.16.32-.11.49.06.17.2.3.38.33.03,0,.84.16,2.82.16,3.17,0,9.08-.39,19.24-2.23.07-.01.14-.04.2-.09,1.68-1.24,2.44-3.34,2.08-5.77-.42-2.78-2.15-5.3-4.13-5.99-.82-.29-2.26-.45-3.95-.45h0Z"/>
        </g>
      </g>
      <path class="cls-4" d="M115.24,15.84c1.03.15,3.37.95,4.91.86"/>
    </g>
  </g>
  <g id="Bird-2" data-name="Bird">
    <g id="legs_Feet-2" data-name="legs/Feet">
      <g>
        <g>
          <polyline class="cls-3" points="122.89 41.05 122.89 42.82 124.64 41.93"/>
          <line class="cls-3" x1="124.12" y1="44.31" x2="122.89" y2="42.82"/>
          <polyline class="cls-3" points="126.03 40.81 126.49 42.63 128.56 41.93"/>
          <polyline class="cls-3" points="128.42 43.75 126.49 42.63 124.85 44.5"/>
        </g>
        <line class="cls-3" x1="126.49" y1="42.63" x2="126.82" y2="44.5"/>
      </g>
      <path class="cls-15" d="M122.89,41.05c1.64,0,2.77-1.68,5.14-9.67-1.87,0-8.89,2.44-8.89,2.44,0,0,2.11,7.23,3.75,7.23Z"/>
      <path class="cls-15" d="M125.94,41.05c1.64,0,2.77-1.68,5.14-9.67-1.87,0-8.89,2.44-8.89,2.44,0,0,2.11,7.23,3.75,7.23Z"/>
    </g>
    <g id="Body-2" data-name="Body">
      <path class="cls-12" d="M116.88,8.98c-1.08-1.77.3-3.45,1.45-3.45s1.45,1.05,1.45,1.05c0,0,.39-.59,1.38-.16s1.25,1.54,1.25,1.54c0,0,.49-.59,1.41-.36s1.22,1.74,1.22,1.74c0,0,.99-.49,1.77,0s.85,1.61.85,1.61c0,0,1.05-.59,1.97.49s.26,3.19.26,3.19c8.38,13.05-.77,23.03-6.25,25.76-1.11,12.79-6.5,22.38-10.44,21.07s-1.05-12.19,6.21-21.36c-5.82-7.26-2.23-13.24.56-17.02.35-.53.07-2.4-2.56-4.34.95-1.22,4.57-5.49-.53-9.76Z"/>
      <g class="cls-27">
        <polygon class="cls-18" points="117.37 39.18 126.84 41.05 118.96 64.12 109.09 62.74 111.43 41.93 117.37 39.18"/>
        <polygon class="cls-25" points="118.56 35.43 122.35 25.22 132.46 25.87 125.76 38.05 122.01 38.59 118.56 35.43"/>
        <g>
          <path class="cls-22" d="M127.3,40.34c-1.11,1.51-2.51-.95-7.08.15-2.8-1.43-4.16-3.82-3.05-5.34s4.29-1.58,7.08-.15,4.16,3.82,3.05,5.34Z"/>
          <path class="cls-22" d="M119.49,40.05c.03-1.03.92-2.36,2.16-2.33s2.05,1.47,2.02,2.51c-.09.71-.88,1.27-2.12,1.24s-1.94-.54-2.06-1.41Z"/>
        </g>
        <path class="cls-22" d="M134.2,22.39c-.12-2.07-1.61-3.38-4.99-3.2-4.38.26-6.43,1.89-6.31,3.96.07,1.23-.51,2.39,1.49,2.96.25,1.05.81,1.9,1.66,2.36,1.34.72,3.25-.4,4.88-2.1,3.49-.59,3.38-2.19,3.28-3.97Z"/>
        <path class="cls-18" d="M135.19,24.7c.16.18.28.39.37.61.71.18,1.33.72,1.69,1.06,1.39,1.3-.23,5.28-3.61,8.88-3.38,3.6-7.77,3.51-9.16,2.21-1.39-1.3.51-3.97,3.89-7.57.02-.02.04-.04.06-.07.79-.84,1.29-1.9,1.49-3.03.13-.73.54-1.47,1.2-2.03,1.32-1.12,3.14-1.15,4.07-.06Z"/>
        <path class="cls-18" d="M123.25,22.21c-.24-.05-.48-.05-.71-.02-.51-.52-1.28-.8-1.76-.95-1.82-.56-4.48,2.81-5.94,7.53-1.46,4.72.79,8.49,2.6,9.05,1.82.56,3.2-2.4,4.66-7.12,0-.03.02-.06.03-.09.34-1.1,1.01-2.06,1.9-2.79.57-.47,1.01-1.19,1.17-2.05.33-1.7-.55-3.3-1.96-3.57Z"/>
        <g id="Cheek-2" data-name="Cheek">
          <path class="cls-29" d="M126.96,15.74c.75,3.18-.76,6.25-3.36,6.87-1.55.37-3.69.57-4.88-.64-.8-.82-.89-2.72-1.19-4-.75-3.18.76-6.25,3.36-6.87s5.32,1.47,6.07,4.65Z"/>
          <g id="Dots-2" data-name="Dots">
            <circle class="cls-12" cx="120.32" cy="22.53" r=".09"/>
            <circle class="cls-12" cx="120.7" cy="22.2" r=".09"/>
            <circle class="cls-12" cx="120.32" cy="21.69" r=".09"/>
            <circle class="cls-12" cx="121.11" cy="21.78" r=".09"/>
            <circle class="cls-12" cx="120.7" cy="21.33" r=".09"/>
            <circle class="cls-12" cx="121.4" cy="21.24" r=".09"/>
            <circle class="cls-12" cx="120.93" cy="20.86" r=".09"/>
            <circle class="cls-12" cx="120.11" cy="21.15" r=".09"/>
            <circle class="cls-12" cx="122.1" cy="21.19" r=".09"/>
            <circle class="cls-12" cx="121.66" cy="20.77" r=".09"/>
            <circle class="cls-12" cx="122.44" cy="20.62" r=".09"/>
            <circle class="cls-12" cx="123.07" cy="20.44" r=".09"/>
            <circle class="cls-12" cx="123.73" cy="19.94" r=".09"/>
            <circle class="cls-12" cx="124.21" cy="19.37" r=".09"/>
            <circle class="cls-12" cx="124.57" cy="18.57" r=".09"/>
            <circle class="cls-12" cx="124.66" cy="17.71" r=".09"/>
            <circle class="cls-12" cx="124.64" cy="17" r=".09"/>
            <circle class="cls-12" cx="124.55" cy="16.21" r=".09"/>
            <circle class="cls-12" cx="124.21" cy="15.39" r=".09"/>
            <circle class="cls-12" cx="123.73" cy="14.89" r=".09"/>
            <circle class="cls-12" cx="123.07" cy="14.8" r=".09"/>
            <circle class="cls-12" cx="123.6" cy="15.57" r=".09"/>
            <circle class="cls-12" cx="123.94" cy="16.12" r=".09"/>
            <circle class="cls-12" cx="124.12" cy="16.79" r=".09"/>
            <circle class="cls-12" cx="124.21" cy="17.5" r=".09"/>
            <circle class="cls-12" cx="124.21" cy="18.14" r=".09"/>
            <circle class="cls-12" cx="123.94" cy="18.92" r=".09"/>
            <circle class="cls-12" cx="123.73" cy="19.44" r=".09"/>
            <circle class="cls-12" cx="123.16" cy="19.94" r=".09"/>
            <circle class="cls-12" cx="122.62" cy="20.12" r=".09"/>
            <circle class="cls-12" cx="122.03" cy="20.35" r=".09"/>
            <circle class="cls-12" cx="121.31" cy="20.44" r=".09"/>
            <circle class="cls-12" cx="120.79" cy="20.35" r=".09"/>
            <circle class="cls-12" cx="120.5" cy="19.94" r=".09"/>
            <circle class="cls-12" cx="121.11" cy="20.12" r=".09"/>
            <circle class="cls-12" cx="121.62" cy="20.03" r=".09"/>
            <circle class="cls-12" cx="122.28" cy="19.89" r=".09"/>
            <circle class="cls-12" cx="122.83" cy="19.66" r=".09"/>
            <circle class="cls-12" cx="123.25" cy="19.35" r=".09"/>
            <circle class="cls-12" cx="123.5" cy="18.83" r=".09"/>
            <circle class="cls-12" cx="123.73" cy="18.3" r=".09"/>
            <circle class="cls-12" cx="123.73" cy="17.75" r=".09"/>
            <circle class="cls-12" cx="123.73" cy="17.17" r=".09"/>
            <circle class="cls-12" cx="123.59" cy="16.61" r=".09"/>
            <circle class="cls-12" cx="123.36" cy="16.12" r=".09"/>
            <circle class="cls-12" cx="123.01" cy="15.48" r=".09"/>
            <circle class="cls-12" cx="122.35" cy="15.39" r=".09"/>
            <circle class="cls-12" cx="122.53" cy="16.03" r=".09"/>
            <circle class="cls-12" cx="122.88" cy="16.52" r=".09"/>
            <circle class="cls-12" cx="123.1" cy="17.17" r=".09"/>
            <circle class="cls-12" cx="123.1" cy="17.66" r=".09"/>
            <circle class="cls-12" cx="123.07" cy="18.3" r=".09"/>
            <circle class="cls-12" cx="122.92" cy="18.8" r=".09"/>
            <circle class="cls-12" cx="122.66" cy="19.19" r=".09"/>
            <circle class="cls-12" cx="122.35" cy="19.46" r=".09"/>
            <circle class="cls-12" cx="121.8" cy="19.66" r=".09"/>
            <circle class="cls-12" cx="121.31" cy="19.75" r=".09"/>
            <circle class="cls-12" cx="120.88" cy="19.71" r=".09"/>
            <circle class="cls-12" cx="120.5" cy="19.37" r=".09"/>
            <circle class="cls-12" cx="120.11" cy="19.19" r=".09"/>
            <circle class="cls-12" cx="119.69" cy="19.01" r=".09"/>
            <circle class="cls-12" cx="119.87" cy="18.37" r=".09"/>
            <circle class="cls-12" cx="120.41" cy="18.75" r=".09"/>
            <circle class="cls-12" cx="121.02" cy="19.13" r=".09"/>
            <circle class="cls-12" cx="121.49" cy="19.22" r=".09"/>
            <circle class="cls-12" cx="122.03" cy="19.04" r=".09"/>
            <circle class="cls-12" cx="122.44" cy="18.74" r=".09"/>
            <circle class="cls-12" cx="122.62" cy="18.12" r=".09"/>
            <circle class="cls-12" cx="122.66" cy="17.43" r=".09"/>
            <circle class="cls-12" cx="122.37" cy="16.88" r=".09"/>
            <circle class="cls-12" cx="122.1" cy="15.88" r=".09"/>
            <circle class="cls-12" cx="122.12" cy="16.48" r=".09"/>
            <circle class="cls-12" cx="121.53" cy="15.7" r=".09"/>
            <circle class="cls-12" cx="121.62" cy="16.21" r=".09"/>
            <circle class="cls-12" cx="121.02" cy="15.88" r=".09"/>
            <circle class="cls-12" cx="121.94" cy="16.79" r=".09"/>
            <circle class="cls-12" cx="122.06" cy="17.36" r=".09"/>
            <circle class="cls-12" cx="122.19" cy="17.89" r=".09"/>
            <circle class="cls-12" cx="122.15" cy="18.37" r=".09"/>
            <circle class="cls-12" cx="121.75" cy="18.68" r=".09"/>
            <circle class="cls-12" cx="121.32" cy="18.59" r=".09"/>
            <circle class="cls-12" cx="120.89" cy="18.33" r=".09"/>
            <circle class="cls-12" cx="120.23" cy="17.89" r=".09"/>
            <circle class="cls-12" cx="120.46" cy="17.12" r=".09"/>
            <circle class="cls-12" cx="120.88" cy="16.97" r=".09"/>
            <circle class="cls-12" cx="121.44" cy="17.17" r=".09"/>
            <circle class="cls-12" cx="121.62" cy="18.19" r=".09"/>
            <circle class="cls-12" cx="121.18" cy="17.98" r=".09"/>
            <circle class="cls-12" cx="120.73" cy="17.68" r=".09"/>
            <circle class="cls-12" cx="121.49" cy="17.66" r=".09"/>
            <circle class="cls-12" cx="121.02" cy="16.39" r=".09"/>
            <circle class="cls-12" cx="120.55" cy="16.21" r=".09"/>
            <circle class="cls-12" cx="120.05" cy="19.71" r=".09"/>
            <circle class="cls-12" cx="119.14" cy="19.28" r=".09"/>
            <circle class="cls-12" cx="119.53" cy="19.53" r=".09"/>
            <circle class="cls-12" cx="119.05" cy="19.8" r=".09"/>
            <circle class="cls-12" cx="119.62" cy="20.03" r=".09"/>
            <circle class="cls-12" cx="120.14" cy="20.23" r=".09"/>
            <circle class="cls-12" cx="119.69" cy="20.53" r=".09"/>
            <circle class="cls-12" cx="120.37" cy="20.71" r=".09"/>
            <circle class="cls-12" cx="122.89" cy="21.1" r=".09"/>
            <circle class="cls-12" cx="123.55" cy="20.62" r=".09"/>
            <circle class="cls-12" cx="124.3" cy="20.35" r=".09"/>
            <circle class="cls-12" cx="124.64" cy="19.75" r=".09"/>
            <circle class="cls-12" cx="124.96" cy="19.01" r=".09"/>
            <circle class="cls-12" cx="125.11" cy="18.12" r=".09"/>
            <circle class="cls-12" cx="125.19" cy="17.34" r=".09"/>
            <circle class="cls-12" cx="125.19" cy="16.7" r=".09"/>
            <circle class="cls-12" cx="125.19" cy="16.03" r=".09"/>
            <circle class="cls-12" cx="124.87" cy="15.39" r=".09"/>
            <circle class="cls-12" cx="124.3" cy="14.64" r=".09"/>
            <circle class="cls-12" cx="123.64" cy="14.13" r=".09"/>
            <circle class="cls-12" cx="123.94" cy="13.27" r=".09"/>
            <circle class="cls-12" cx="121.71" cy="21.69" r=".09"/>
            <circle class="cls-12" cx="122.44" cy="21.69" r=".09"/>
            <circle class="cls-12" cx="122.92" cy="21.6" r=".09"/>
            <circle class="cls-12" cx="123.5" cy="21.16" r=".09"/>
            <circle class="cls-12" cx="124.21" cy="20.89" r=".09"/>
            <circle class="cls-12" cx="124.83" cy="20.44" r=".09"/>
            <circle class="cls-12" cx="125.2" cy="19.53" r=".09"/>
            <circle class="cls-12" cx="125.51" cy="18.75" r=".09"/>
            <circle class="cls-12" cx="125.76" cy="17.8" r=".09"/>
            <circle class="cls-12" cx="125.85" cy="17" r=".09"/>
            <circle class="cls-12" cx="125.76" cy="16.3" r=".09"/>
            <circle class="cls-12" cx="125.51" cy="15.48" r=".09"/>
            <circle class="cls-12" cx="124.96" cy="14.71" r=".09"/>
            <circle class="cls-12" cx="124.39" cy="13.93" r=".09"/>
            <circle class="cls-12" cx="121.4" cy="22.21" r=".09"/>
            <circle class="cls-12" cx="122.03" cy="22.12" r=".09"/>
            <circle class="cls-12" cx="122.71" cy="22.11" r=".09"/>
            <circle class="cls-12" cx="123.41" cy="21.78" r=".09"/>
            <circle class="cls-12" cx="124.21" cy="21.51" r=".09"/>
            <circle class="cls-12" cx="124.92" cy="21.07" r=".09"/>
            <circle class="cls-12" cx="125.38" cy="20.23" r=".09"/>
            <circle class="cls-12" cx="125.85" cy="19.44" r=".09"/>
            <circle class="cls-12" cx="126.12" cy="18.46" r=".09"/>
            <circle class="cls-12" cx="126.42" cy="17.52" r=".09"/>
            <circle class="cls-12" cx="126.42" cy="16.61" r=".09"/>
            <circle class="cls-12" cx="126.21" cy="15.67" r=".09"/>
            <circle class="cls-12" cx="125.76" cy="14.8" r=".09"/>
            <circle class="cls-12" cx="125.19" cy="13.95" r=".09"/>
            <circle class="cls-12" cx="124.64" cy="13.18" r=".09"/>
            <circle class="cls-12" cx="121.02" cy="22.62" r=".09"/>
            <circle class="cls-12" cx="121.62" cy="22.66" r=".09"/>
            <circle class="cls-12" cx="122.35" cy="22.53" r=".09"/>
            <circle class="cls-12" cx="123.16" cy="22.39" r=".09"/>
            <circle class="cls-12" cx="124.03" cy="22.02" r=".09"/>
            <circle class="cls-12" cx="124.83" cy="21.69" r=".09"/>
            <circle class="cls-12" cx="125.47" cy="20.98" r=".09"/>
            <circle class="cls-12" cx="126.03" cy="20.14" r=".09"/>
            <circle class="cls-12" cx="126.51" cy="19.19" r=".09"/>
            <circle class="cls-12" cx="126.78" cy="18.12" r=".09"/>
            <circle class="cls-12" cx="126.84" cy="17" r=".09"/>
            <circle class="cls-12" cx="126.69" cy="16.03" r=".09"/>
            <circle class="cls-12" cx="126.46" cy="15.07" r=".09"/>
            <circle class="cls-12" cx="125.94" cy="13.95" r=".09"/>
            <circle class="cls-12" cx="125.19" cy="12.9" r=".09"/>
            <circle class="cls-12" cx="124.12" cy="12.09" r=".09"/>
          </g>
        </g>
      </g>
    </g>
    <g id="Eye-2" data-name="Eye">
      <path class="cls-20" d="M122.99,14.43c-1.05,1.17-3.72,1.8-4.69.93s.14-2.9,1.2-4.07,2.69-1.42,3.65-.55.89,2.52-.16,3.69Z"/>
      <circle class="cls-12" cx="121.49" cy="12.47" r="1.17"/>
      <circle class="cls-10" cx="121.94" cy="12.99" r=".32"/>
    </g>
    <path id="Outline-2" data-name="Outline" class="cls-7" d="M116.88,8.98c-1.08-1.77.3-3.45,1.45-3.45s1.45,1.05,1.45,1.05c0,0,.39-.59,1.38-.16s1.25,1.54,1.25,1.54c0,0,.49-.59,1.41-.36s1.22,1.74,1.22,1.74c0,0,.99-.49,1.77,0s.85,1.61.85,1.61c0,0,1.05-.59,1.97.49s.26,3.19.26,3.19c8.38,13.05-.77,23.03-6.25,25.76-1.11,12.79-6.5,22.38-10.44,21.07s-1.05-12.19,6.21-21.36c-5.82-7.26-2.23-13.24.56-17.02.35-.53.07-2.4-2.56-4.34.95-1.22,4.57-5.49-.53-9.76Z"/>
    <g id="Beak-3" data-name="Beak">
      <g id="Beak-4" data-name="Beak">
        <path class="cls-14" d="M92.48,19.12c4.29-11.14,20.7-11.58,23.96-10.45s5.82,8.03,1.92,10.89c-16.86,3.06-21.89,2.07-21.89,2.07,0,0,5.77-6.16,19.17-5.73-13.55-2.84-23.16,3.22-23.16,3.22Z"/>
        <g class="cls-21">
          <path class="cls-8" d="M119.06,11.05c-6.32-.7-17.69-1.34-27.25,9.99,2.37-13.64,21.97-14.79,25.57-12.42s8.01,3.13,1.69,2.43Z"/>
          <path class="cls-16" d="M99.16,16.39c5.24-4.59,20.68-3.86,21.3-2.98s-.03,2.54-.32,3.29c-.99.05-1.65-.16-2.5-.31-.74-.12-1.43-.39-2.22-.56-9.44-.53-20.72,4.47-16.27.56Z"/>
          <path class="cls-8" d="M102.58,22.22c-3.41-.79-3.25-2.56-2.73-3.81-2.68.85-5.37,3.71-6.08,3.81,0,0,2.53.95,8.81,0Z"/>
        </g>
        <path class="cls-5" d="M92.48,19.12c4.29-11.14,20.7-11.58,23.96-10.45s5.82,8.03,1.92,10.89c-16.86,3.06-21.89,2.07-21.89,2.07,0,0,5.77-6.16,19.17-5.73-13.55-2.84-23.16,3.22-23.16,3.22Z"/>
      </g>
      <path class="cls-12" d="M115.25,15.78c1.64.32,3.21.95,4.9.92-1.67.08-3.29-.52-4.91-.8,0,0,.02-.12.02-.12h0Z"/>
    </g>
  </g>
  <text class="cls-9" transform="translate(4.96 41.05)"><tspan x="0" y="0">S</tspan><tspan class="cls-28" x="10.35" y="0">t</tspan><tspan class="cls-26" x="16.35" y="0">u</tspan><tspan x="24.27" y="0">dio</tspan><tspan class="cls-19" x="46.85" y="0"> </tspan><tspan x="50.8" y="0">A</tspan><tspan class="cls-24" x="62.85" y="0">r</tspan><tspan class="cls-11" x="69.59" y="0">a</tspan><tspan class="cls-13" x="78.75" y="0">c</tspan><tspan class="cls-23" x="87.12" y="0">a</tspan><tspan x="96.51" y="0">ri</tspan></text>
</svg>