<?xml version="1.0" encoding="UTF-8"?>
<svg id="Layer_1" xmlns="http://www.w3.org/2000/svg" version="1.1" viewBox="0 0 51.8 67.2">
  <!-- Generator: Adobe Illustrator 30.3.0, SVG Export Plug-In . SVG Version: 2.1.3 Build 182)  -->
  <defs>
    <style>
      .st0 {
        fill: #fff;
      }

      .st1 {
        stroke-linejoin: round;
        stroke-width: 1px;
      }

      .st1, .st2 {
        fill: none;
        stroke: #fff;
        stroke-linecap: round;
      }

      .st2 {
        stroke-miterlimit: 10;
        stroke-width: 1px;
      }
    </style>
  </defs>
  <g id="Bird">
    <line class="st2" x1="37.3" y1="44.3" x2="36.1" y2="42.8"/>
    <polyline class="st1" points="36.1 41 36.1 42.8 37.8 41.9"/>
    <polyline class="st1" points="39.2 40.8 39.7 42.6 41.8 41.9"/>
    <polyline class="st1" points="41.6 43.8 39.7 42.6 38.1 44.5"/>
    <path class="st0" d="M43.6,14.6c.1-.6.5-2.4-.4-3.4-.6-.7-1.2-.8-1.7-.8s-.2,0-.3,0c-.1-.5-.4-1-1-1.4-.3-.2-.7-.3-1.1-.3s-.5,0-.6,0c-.2-.6-.6-1.4-1.4-1.6-.2,0-.4,0-.5,0-.3,0-.6,0-.8.2-.2-.4-.6-1-1.3-1.2-.3-.1-.6-.2-.9-.2s-.4,0-.5,0c-.3-.4-.8-.8-1.6-.8h0c-.8,0-1.5.5-2,1.3-.1.2-.2.4-.2.6,0,0,0,.2,0,.2,0,.1,0,.2,0,.3,0,.2,0,.4,0,.6h0c-.8-.2-2-.3-3.4-.3h0c-7.5,0-17.5,2.9-20.6,11.2,0,.2,0,.4.2.6,0,0,.2.1.3.1s.2,0,.3,0c0,0,6.3-3.9,15.6-3.9s.9,0,1.3,0c-9.2,1.1-13.4,5.4-13.6,5.6-.1.1-.2.3-.1.5,0,.2.2.3.4.3,0,0,.8.2,2.8.2,3.1,0,9-.4,19-2.2,0,0,0,0,0,0,.8.9,1.2,1.6,1.3,2.1,0,0,0,0,0,0,0,0,0,.2,0,.2,0,0,0,0,0,.1,0,0,0,0,0,.1,0,0,0,.1,0,.1-3.2,4.3-6.2,10.2-.8,17.3-5.5,7-8.8,15.7-7.6,19.7.3,1.1,1,1.8,1.9,2.1.3.1.6.2.9.2,4.3,0,9-9.6,10.1-20.8.2-.1.4-.3.6-.5.4.5.8.8,1.3.8,1.7,0,2.9-1.5,4.5-6.5,1.2-1.6,2.2-3.5,2.7-5.6,1.3-4.8.4-9.8-2.8-14.8Z"/>
  </g>
</svg>