<?xml version="1.0" encoding="UTF-8"?>
<svg id="Layer_1" xmlns="http://www.w3.org/2000/svg" xmlns:xlink="http://www.w3.org/1999/xlink" version="1.1" viewBox="0 0 51.81 67.15">
  <!-- Generator: Adobe Illustrator 30.3.0, SVG Export Plug-In . SVG Version: 2.1.3 Build 182)  -->
  <defs>
    <style>
      .st0, .st1, .st2 {
        fill: none;
      }

      .st3, .st4, .st1, .st2 {
        stroke-linecap: round;
      }

      .st3, .st4, .st1, .st2, .st5, .st6 {
        stroke: #fff;
      }

      .st3, .st4, .st7, .st5, .st6 {
        fill: #fff;
      }

      .st3, .st2, .st5, .st6 {
        stroke-miterlimit: 10;
      }

      .st3, .st5 {
        stroke-width: .07px;
      }

      .st4 {
        stroke-width: .49px;
      }

      .st4, .st1 {
        stroke-linejoin: round;
      }

      .st8 {
        clip-path: url(#clippath-1);
      }

      .st9 {
        clip-path: url(#clippath-3);
      }

      .st10 {
        clip-path: url(#clippath-2);
      }

      .st1 {
        stroke-width: .99px;
      }

      .st2 {
        stroke-width: .37px;
      }

      .st6 {
        stroke-width: .12px;
      }

      .st11 {
        clip-path: url(#clippath);
      }
    </style>
    <clipPath id="clippath">
      <path class="st0" d="M30.09,8.98c-1.08-1.77.3-3.45,1.45-3.45s1.45,1.05,1.45,1.05c0,0,.39-.59,1.38-.16s1.25,1.54,1.25,1.54c0,0,.49-.59,1.41-.36.92.23,1.22,1.74,1.22,1.74,0,0,.99-.49,1.77,0,.78.49.85,1.61.85,1.61,0,0,1.05-.59,1.97.49s.26,3.19.26,3.19c8.38,13.05-.77,23.03-6.25,25.76-1.11,12.79-6.5,22.38-10.44,21.07s-1.05-12.19,6.21-21.36c-5.82-7.26-2.23-13.24.56-17.02.35-.53.07-2.4-2.56-4.34.95-1.22,4.57-5.49-.53-9.76h0Z"/>
    </clipPath>
    <clipPath id="clippath-1">
      <path class="st0" d="M5.69,19.12C9.98,7.98,26.39,7.54,29.65,8.67s5.82,8.03,1.92,10.89c-16.86,3.06-21.89,2.07-21.89,2.07,0,0,5.77-6.16,19.17-5.73-13.55-2.84-23.16,3.22-23.16,3.22Z"/>
    </clipPath>
    <clipPath id="clippath-2">
      <path class="st7" d="M30.09,8.98c-1.08-1.77.3-3.45,1.45-3.45s1.45,1.05,1.45,1.05c0,0,.39-.59,1.38-.16s1.25,1.54,1.25,1.54c0,0,.49-.59,1.41-.36.92.23,1.22,1.74,1.22,1.74,0,0,.99-.49,1.77,0,.78.49.85,1.61.85,1.61,0,0,1.05-.59,1.97.49s.26,3.19.26,3.19c8.38,13.05-.77,23.03-6.25,25.76-1.11,12.79-6.5,22.38-10.44,21.07s-1.05-12.19,6.21-21.36c-5.82-7.26-2.23-13.24.56-17.02.35-.53.07-2.4-2.56-4.34.95-1.22,4.57-5.49-.53-9.76h0Z"/>
    </clipPath>
    <clipPath id="clippath-3">
      <path class="st7" d="M5.69,19.12C9.98,7.98,26.39,7.54,29.65,8.67s5.82,8.03,1.92,10.89c-16.86,3.06-21.89,2.07-21.89,2.07,0,0,5.77-6.16,19.17-5.73-13.55-2.84-23.16,3.22-23.16,3.22Z"/>
    </clipPath>
  </defs>
  <g id="Bird">
    <g id="legs_Feet">
      <g>
        <g>
          <polyline class="st1" points="36.1 41.05 36.1 42.82 37.85 41.93"/>
          <line class="st1" x1="28.49" y1="44.31" x2="27.56" y2="42.82"/>
          <polyline class="st1" points="39.24 40.81 39.7 42.63 41.77 41.93"/>
          <polyline class="st1" points="41.63 43.75 39.7 42.63 38.06 44.5"/>
        </g>
        <line class="st1" x1="30.3" y1="42.63" x2="30.56" y2="44.5"/>
      </g>
      <g>
        <path class="st7" d="M36.1,41.3c-1.74,0-3.63-6.17-3.99-7.41-.04-.13.03-.26.16-.3.29-.1,7.08-2.45,8.97-2.45.08,0,.15.04.2.1s.06.14.04.22c-2.29,7.73-3.44,9.85-5.38,9.85h0Z"/>
        <path class="st7" d="M41.24,31.38h0M41.24,31.38c-2.37,8-3.5,9.67-5.14,9.67s-3.75-7.23-3.75-7.23c0,0,7.02-2.44,8.89-2.44M41.25,30.88h0c-1.93,0-8.76,2.37-9.05,2.47-.25.09-.39.35-.31.6.67,2.28,2.41,7.59,4.22,7.59,2.07,0,3.28-2.15,5.6-9.98.02-.06.04-.12.04-.18,0-.27-.22-.49-.49-.49h0ZM41.24,31.87h0Z"/>
      </g>
      <g>
        <path class="st7" d="M39.15,41.3c-1.74,0-3.63-6.17-3.99-7.41-.04-.13.03-.26.16-.3.29-.1,7.08-2.45,8.97-2.45.08,0,.15.04.2.1s.06.14.04.22c-2.29,7.73-3.44,9.85-5.38,9.85h0Z"/>
        <path class="st7" d="M44.29,31.38h0M44.29,31.38c-2.37,8-3.5,9.67-5.14,9.67s-3.75-7.23-3.75-7.23c0,0,7.02-2.44,8.89-2.44M44.29,30.88h0c-1.93,0-8.76,2.37-9.05,2.47-.25.09-.39.35-.31.6.67,2.28,2.41,7.59,4.22,7.59,2.07,0,3.28-2.15,5.6-9.98.02-.06.04-.12.04-.18,0-.27-.22-.49-.49-.49h0ZM44.29,31.87h0Z"/>
      </g>
    </g>
    <g id="Body">
      <g>
        <path class="st7" d="M27.15,61.83c-.28,0-.56-.04-.82-.13-.83-.28-1.4-.93-1.7-1.94-1.2-4.03,2.17-12.64,7.68-19.66-5.48-6.98-2.53-12.84.67-17.17.28-.41-.04-2.17-2.51-3.99-.05-.04-.09-.1-.1-.17,0-.07,0-.13.05-.19l.09-.11c1.04-1.31,4.19-5.31-.58-9.31-.58-.93-.62-1.9-.16-2.72.39-.7,1.1-1.17,1.77-1.17.82,0,1.3.48,1.54.89.16-.09.36-.16.62-.16.24,0,.49.06.76.18.73.32,1.1.96,1.27,1.36.2-.12.5-.25.88-.25.15,0,.31.02.48.06.8.2,1.18,1.16,1.33,1.65.2-.06.48-.13.79-.13.35,0,.67.09.94.26.61.38.84,1.07.92,1.48.13-.04.3-.07.49-.07.38,0,.95.13,1.47.74.88,1.04.47,2.84.34,3.31,3.17,4.98,4.11,9.94,2.79,14.73-1.47,5.31-5.59,9.44-9.08,11.22-1.01,11.35-5.64,21.28-9.93,21.28h0Z"/>
        <path class="st7" d="M31.54,5.53c1.15,0,1.45,1.05,1.45,1.05,0,0,.21-.32.72-.32.18,0,.4.04.66.16.99.43,1.25,1.54,1.25,1.54,0,0,.35-.41,1-.41.13,0,.27.02.42.05.92.23,1.22,1.74,1.22,1.74,0,0,.44-.22.96-.22.26,0,.55.05.81.22.79.49.85,1.61.85,1.61,0,0,.29-.16.69-.16.37,0,.84.14,1.28.65.92,1.08.26,3.19.26,3.19,8.38,13.05-.77,23.03-6.25,25.76-1.04,12-5.85,21.19-9.7,21.19-.25,0-.5-.04-.74-.12-3.94-1.31-1.05-12.19,6.21-21.36-5.82-7.26-2.23-13.24.56-17.02.35-.53.07-2.4-2.56-4.34.95-1.22,4.57-5.49-.53-9.76-1.08-1.77.3-3.45,1.45-3.45M31.54,5.04c-.76,0-1.54.51-1.98,1.3-.5.9-.46,1.96.12,2.9.03.05.06.09.1.12,4.11,3.45,2.28,6.77.54,8.97l-.09.11c-.08.1-.12.24-.1.37s.09.25.2.33c2.43,1.79,2.62,3.4,2.45,3.66-3.22,4.35-6.2,10.25-.78,17.3-5.48,7.05-8.81,15.66-7.6,19.73.32,1.08.96,1.8,1.86,2.1.29.1.59.15.9.15,4.39,0,9.11-9.95,10.16-21.37,3.51-1.84,7.61-5.99,9.08-11.31,1.33-4.83.4-9.82-2.76-14.84.15-.62.48-2.37-.42-3.43-.58-.68-1.22-.83-1.66-.83-.11,0-.21,0-.31.02-.13-.45-.4-1.04-.97-1.4-.31-.2-.67-.29-1.07-.29-.23,0-.45.03-.63.08-.2-.56-.62-1.38-1.43-1.58-.18-.04-.36-.07-.53-.07-.31,0-.56.07-.77.16-.22-.43-.62-.96-1.28-1.25-.3-.13-.59-.2-.86-.2-.21,0-.39.04-.53.09-.3-.42-.83-.83-1.63-.83h-.01Z"/>
      </g>
      <g>
        <path class="st7" d="M30.09,8.98c-1.08-1.77.3-3.45,1.45-3.45s1.45,1.05,1.45,1.05c0,0,.39-.59,1.38-.16s1.25,1.54,1.25,1.54c0,0,.49-.59,1.41-.36s1.22,1.74,1.22,1.74c0,0,.99-.49,1.77,0s.85,1.61.85,1.61c0,0,1.05-.59,1.97.49s.26,3.19.26,3.19c8.38,13.05-.77,23.03-6.25,25.76-1.11,12.79-6.5,22.38-10.44,21.07s-1.05-12.19,6.21-21.36c-5.82-7.26-2.23-13.24.56-17.02.35-.53.07-2.4-2.56-4.34.95-1.22,4.57-5.49-.53-9.76h0Z"/>
        <g class="st11">
          <g>
            <g>
              <path class="st7" d="M22.27,62.99c-.13-.02-.23-.14-.21-.27l2.34-20.81c0-.09.06-.16.14-.2l5.94-2.75s.07-.02.1-.02h.05l9.46,1.87c.07,0,.13.06.17.12.04.06.04.14.02.2l-7.88,23.07c-.03.1-.13.17-.23.17-.01,0-9.9-1.38-9.9-1.38Z"/>
              <path class="st7" d="M30.58,39.18l9.46,1.87-7.88,23.07-9.87-1.38,2.34-20.81,5.94-2.75M30.58,38.69c-.07,0-.14.02-.21.05l-5.94,2.75c-.16.07-.26.22-.28.39l-2.34,20.81c-.03.27.16.51.42.54l9.87,1.38h.07c.21,0,.4-.13.47-.33l7.88-23.07c.05-.13.03-.28-.04-.41-.07-.12-.19-.21-.33-.24l-9.46-1.87h-.11Z"/>
            </g>
            <g>
              <path class="st7" d="M35.22,38.84c-.06,0-.12-.02-.17-.06l-3.45-3.15c-.07-.07-.1-.17-.06-.27l3.79-10.21c.04-.1.13-.16.23-.16l10.12.65c.08,0,.16.05.2.13.04.07.04.16,0,.24l-6.7,12.18c-.04.07-.1.11-.18.13,0,0-3.77.54-3.79.54v-.02Z"/>
              <path class="st7" d="M35.56,25.22l10.11.65-6.7,12.18-3.75.54-3.45-3.15,3.79-10.21M35.56,24.73c-.21,0-.39.13-.46.32l-3.79,10.21c-.07.19-.02.4.13.54l3.45,3.15c.09.08.21.13.33.13h.07l3.75-.54c.15-.02.29-.12.36-.25l6.7-12.18c.08-.15.08-.33,0-.48s-.23-.24-.4-.26l-10.11-.65h-.03Z"/>
            </g>
            <g>
              <g>
                <path class="st7" d="M39.59,41.09c-.35,0-.73-.11-1.18-.23-.68-.19-1.52-.42-2.65-.42-.73,0-1.47.09-2.27.29h-.06s-.08,0-.11-.03c-1.86-.95-3.17-2.35-3.5-3.73-.17-.74-.05-1.42.36-1.97.61-.83,1.76-1.28,3.25-1.28,1.34,0,2.81.38,4.15,1.06,1.86.95,3.17,2.35,3.5,3.73.17.74.05,1.42-.36,1.97-.31.41-.66.61-1.13.61Z"/>
                <path class="st7" d="M33.43,33.97c1.25,0,2.69.34,4.04,1.03,2.8,1.43,4.16,3.82,3.05,5.34-.28.38-.57.51-.93.51-.8,0-1.91-.65-3.83-.65-.67,0-1.44.08-2.32.29-2.8-1.43-4.16-3.82-3.05-5.34.58-.78,1.71-1.18,3.05-1.18M33.43,33.47h0c-1.57,0-2.79.49-3.45,1.38-.45.62-.59,1.37-.4,2.18.34,1.45,1.7,2.91,3.63,3.89.07.04.15.05.23.05.04,0,.08,0,.12,0,.78-.19,1.5-.28,2.21-.28,1.1,0,1.93.23,2.59.41.46.13.87.24,1.25.24.54,0,.98-.23,1.33-.71.45-.62.59-1.37.4-2.18-.34-1.45-1.7-2.91-3.63-3.89-1.37-.7-2.88-1.09-4.26-1.09h-.02Z"/>
              </g>
              <g>
                <path class="st7" d="M34.75,41.7c-1.82-.05-2.22-1.04-2.3-1.63.03-1.25,1.05-2.61,2.36-2.61.58,0,1.07.25,1.48.68.52.55.84,1.37.83,2.08-.11.89-1.02,1.48-2.27,1.48h-.11,0Z"/>
                <path class="st7" d="M34.82,37.71h.04c1.24.03,2.05,1.47,2.02,2.51-.08.69-.83,1.24-2.02,1.24h-.1c-1.24-.03-1.94-.54-2.06-1.41.03-1.02.9-2.33,2.12-2.33M34.82,37.22h0c-1.45,0-2.57,1.49-2.61,2.81v.08c.15,1.13,1.07,1.81,2.54,1.84h.11c1.38,0,2.39-.67,2.51-1.67.02-.82-.33-1.71-.89-2.3-.46-.48-1.01-.74-1.61-.76h-.06,0Z"/>
              </g>
            </g>
            <g>
              <path class="st7" d="M40.17,28.93c-.38,0-.72-.08-1.03-.25-.86-.46-1.46-1.28-1.75-2.38-1.63-.52-1.58-1.48-1.54-2.42.01-.23.02-.47,0-.72-.14-2.39,2.31-3.97,6.54-4.22.21-.01.42-.02.61-.02,3.67,0,4.55,1.88,4.64,3.45.1,1.77.21,3.58-3.4,4.21-.87.9-2.51,2.34-4.08,2.34h.01Z"/>
              <path class="st7" d="M43.01,19.17c2.97,0,4.28,1.27,4.4,3.22.1,1.78.21,3.38-3.28,3.97-1.28,1.34-2.75,2.32-3.96,2.32-.33,0-.63-.07-.92-.22-.85-.46-1.42-1.31-1.66-2.36-1.99-.57-1.41-1.72-1.49-2.96-.12-2.07,1.93-3.7,6.31-3.96.21-.01.4-.02.6-.02M43.01,18.68c-.2,0-.41,0-.62.02-4.39.26-6.93,1.93-6.78,4.48.01.23,0,.46-.01.69-.05.91-.1,2.04,1.58,2.63.32,1.1.95,1.93,1.84,2.4.35.19.73.28,1.15.28,1.63,0,3.29-1.43,4.21-2.36,3.75-.69,3.63-2.68,3.53-4.44-.08-1.4-.82-3.7-4.89-3.7h-.01Z"/>
            </g>
            <g>
              <path class="st7" d="M40.41,38.53c-1.23,0-2.28-.32-2.88-.89-.75-.71-.72-1.76.11-3.22.66-1.17,1.86-2.66,3.77-4.7.8-.86,1.3-1.86,1.49-2.97.14-.82.6-1.59,1.28-2.18.7-.59,1.54-.92,2.39-.92s1.55.32,2.04.89c.14.17.27.36.36.56.79.24,1.45.87,1.68,1.08,1.51,1.42-.07,5.47-3.6,9.23-2.63,2.81-5.51,3.11-6.63,3.11h0Z"/>
              <path class="st7" d="M46.56,23.9c.72,0,1.39.27,1.85.8.16.18.28.39.37.61.71.18,1.33.72,1.69,1.06,1.39,1.3-.23,5.28-3.61,8.88-2.08,2.21-4.54,3.03-6.45,3.03-1.2,0-2.18-.32-2.71-.82-1.39-1.3.51-3.97,3.89-7.57.02-.02.04-.04.06-.07.79-.84,1.29-1.9,1.49-3.03.13-.73.54-1.47,1.2-2.03.67-.57,1.48-.86,2.23-.86M46.56,23.4h0c-.9,0-1.81.35-2.55.98-.73.62-1.21,1.45-1.37,2.32-.18,1.06-.65,2.02-1.36,2.78l-.07.07c-3.56,3.79-5.58,6.65-3.86,8.27.65.61,1.76.96,3.05.96,2.42,0,4.9-1.16,6.81-3.19,3.68-3.93,5.22-8.04,3.59-9.58-.23-.21-.88-.82-1.67-1.1-.1-.19-.21-.36-.35-.52-.54-.63-1.33-.98-2.22-.98h0Z"/>
            </g>
            <g>
              <path class="st7" d="M31.09,38.14c-.17,0-.34-.03-.51-.08-1.06-.33-2.08-1.52-2.69-3.12-.71-1.89-.74-4.1-.08-6.25,1.39-4.5,3.82-7.76,5.76-7.76.17,0,.33.02.49.07.3.09,1.17.36,1.77.93h.21c.15,0,.3.01.45.04,1.54.29,2.51,2.03,2.16,3.86-.17.89-.62,1.66-1.26,2.19-.87.71-1.5,1.64-1.82,2.67-1.65,5.31-2.94,7.45-4.49,7.45h.01Z"/>
              <path class="st7" d="M33.58,21.18c.14,0,.28.02.41.06.48.15,1.25.43,1.76.95.1-.01.2-.02.3-.02.14,0,.27.01.41.04,1.41.27,2.29,1.87,1.96,3.57-.16.86-.6,1.58-1.17,2.05-.89.73-1.56,1.69-1.9,2.79,0,.03-.02.06-.03.09-1.34,4.33-2.62,7.19-4.23,7.19-.14,0-.29-.02-.44-.07-1.82-.56-4.07-4.33-2.6-9.05,1.36-4.37,3.74-7.59,5.53-7.59M33.58,20.68h0c-2.05,0-4.57,3.34-6,7.94-.68,2.19-.65,4.47.08,6.41.63,1.67,1.72,2.92,2.85,3.27.19.06.39.09.58.09,1.96,0,3.3-3.01,4.7-7.53l.03-.09c.31-.99.91-1.87,1.74-2.55.69-.56,1.17-1.39,1.35-2.33.38-1.97-.68-3.83-2.35-4.15-.17-.03-.33-.05-.5-.05h-.13c-.64-.55-1.49-.82-1.79-.91-.18-.06-.37-.08-.56-.08h0v-.02Z"/>
            </g>
            <g id="Cheek">
              <g>
                <path class="st7" d="M34.63,23.14c-1.25,0-2.22-.34-2.87-1s-.85-1.86-1.05-3.03c-.06-.39-.13-.76-.21-1.09-.78-3.31.81-6.52,3.55-7.16.32-.08.65-.11.98-.11,2.45,0,4.71,2.08,5.39,4.95.78,3.31-.81,6.52-3.55,7.16-.81.19-1.57.29-2.24.29h0Z"/>
                <path class="st7" d="M35.03,10.98c2.3,0,4.49,1.95,5.15,4.76.75,3.18-.76,6.25-3.36,6.87-.66.16-1.43.28-2.18.28-1.02,0-2.01-.23-2.7-.93-.8-.82-.89-2.72-1.19-4-.75-3.18.76-6.25,3.36-6.87.31-.07.62-.11.92-.11M35.03,10.49c-.35,0-.7.04-1.04.12-1.41.33-2.57,1.3-3.27,2.73-.69,1.4-.85,3.08-.46,4.73.08.32.14.69.2,1.08.2,1.2.41,2.44,1.12,3.16.7.71,1.73,1.08,3.05,1.08.69,0,1.46-.1,2.3-.3,1.41-.33,2.57-1.3,3.27-2.73.69-1.4.85-3.08.46-4.73-.7-2.98-3.07-5.14-5.63-5.14h0Z"/>
              </g>
              <g id="Dots">
                <g>
                  <ellipse class="st7" cx="25.59" cy="22.53" rx=".26" ry=".34"/>
                  <path class="st7" d="M33.53,22.44s.09.04.09.09-.04.09-.09.09-.09-.04-.09-.09.04-.09.09-.09M33.53,21.94c-.32,0-.58.26-.58.58s.26.58.58.58.58-.26.58-.58-.26-.58-.58-.58h0Z"/>
                </g>
                <g>
                  <ellipse class="st7" cx="25.88" cy="22.2" rx=".26" ry=".34"/>
                  <path class="st7" d="M33.91,22.11s.09.04.09.09-.04.09-.09.09-.09-.04-.09-.09.04-.09.09-.09M33.91,21.62c-.32,0-.58.26-.58.58s.26.58.58.58.58-.26.58-.58-.26-.58-.58-.58h0Z"/>
                </g>
                <g>
                  <ellipse class="st7" cx="25.59" cy="21.69" rx=".26" ry=".34"/>
                  <path class="st7" d="M33.53,21.6s.09.04.09.09-.04.09-.09.09-.09-.04-.09-.09.04-.09.09-.09M33.53,21.11c-.32,0-.58.26-.58.58s.26.58.58.58.58-.26.58-.58-.26-.58-.58-.58h0Z"/>
                </g>
                <g>
                  <ellipse class="st7" cx="26.2" cy="21.78" rx=".26" ry=".34"/>
                  <path class="st7" d="M34.32,21.69s.09.04.09.09-.04.09-.09.09-.09-.04-.09-.09.04-.09.09-.09M34.32,21.2c-.32,0-.58.26-.58.58s.26.58.58.58.58-.26.58-.58-.26-.58-.58-.58h0Z"/>
                </g>
                <g>
                  <ellipse class="st7" cx="25.88" cy="21.33" rx=".26" ry=".34"/>
                  <path class="st7" d="M33.91,21.24s.09.04.09.09-.04.09-.09.09-.09-.04-.09-.09.04-.09.09-.09M33.91,20.75c-.32,0-.58.26-.58.58s.26.58.58.58.58-.26.58-.58-.26-.58-.58-.58h0Z"/>
                </g>
                <g>
                  <ellipse class="st7" cx="26.42" cy="21.24" rx=".26" ry=".34"/>
                  <path class="st7" d="M34.61,21.15s.09.04.09.09-.04.09-.09.09-.09-.04-.09-.09.04-.09.09-.09M34.61,20.66c-.32,0-.58.26-.58.58s.26.58.58.58.58-.26.58-.58-.26-.58-.58-.58h0Z"/>
                </g>
                <g>
                  <ellipse class="st7" cx="26.06" cy="20.86" rx=".26" ry=".34"/>
                  <path class="st7" d="M34.14,20.77s.09.04.09.09-.04.09-.09.09-.09-.04-.09-.09.04-.09.09-.09M34.14,20.28c-.32,0-.58.26-.58.58s.26.58.58.58.58-.26.58-.58-.26-.58-.58-.58h0Z"/>
                </g>
                <g>
                  <ellipse class="st7" cx="25.43" cy="21.15" rx=".26" ry=".34"/>
                  <path class="st7" d="M33.32,21.06s.09.04.09.09-.04.09-.09.09-.09-.04-.09-.09.04-.09.09-.09M33.32,20.57c-.32,0-.58.26-.58.58s.26.58.58.58.58-.26.58-.58-.26-.58-.58-.58h0Z"/>
                </g>
                <g>
                  <ellipse class="st7" cx="26.95" cy="21.19" rx=".26" ry=".34"/>
                  <path class="st7" d="M35.31,21.1s.09.04.09.09-.04.09-.09.09-.09-.04-.09-.09.04-.09.09-.09M35.31,20.61c-.32,0-.58.26-.58.58s.26.58.58.58.58-.26.58-.58-.26-.58-.58-.58h0Z"/>
                </g>
                <g>
                  <path class="st7" d="M34.87,21.11c-.19,0-.34-.15-.34-.34s.15-.34.34-.34.34.15.34.34-.15.34-.34.34Z"/>
                  <path class="st7" d="M34.87,20.68s.09.04.09.09-.04.09-.09.09-.09-.04-.09-.09.04-.09.09-.09M34.87,20.19c-.32,0-.58.26-.58.58s.26.58.58.58.58-.26.58-.58-.26-.58-.58-.58h0Z"/>
                </g>
                <g>
                  <ellipse class="st7" cx="27.21" cy="20.62" rx=".26" ry=".34"/>
                  <path class="st7" d="M35.65,20.53s.09.04.09.09-.04.09-.09.09-.09-.04-.09-.09.04-.09.09-.09M35.65,20.04c-.32,0-.58.26-.58.58s.26.58.58.58.58-.26.58-.58-.26-.58-.58-.58h0Z"/>
                </g>
                <g>
                  <path class="st7" d="M36.28,20.78c-.19,0-.34-.15-.34-.34s.15-.34.34-.34.34.15.34.34-.15.34-.34.34Z"/>
                  <path class="st7" d="M36.28,20.35s.09.04.09.09-.04.09-.09.09-.09-.04-.09-.09.04-.09.09-.09M36.28,19.85c-.32,0-.58.26-.58.58s.26.58.58.58.58-.26.58-.58-.26-.58-.58-.58h0Z"/>
                </g>
                <g>
                  <ellipse class="st7" cx="28.2" cy="19.94" rx=".26" ry=".34"/>
                  <path class="st7" d="M36.94,19.85s.09.04.09.09-.04.09-.09.09-.09-.04-.09-.09.04-.09.09-.09M36.94,19.35c-.32,0-.58.26-.58.58s.26.58.58.58.58-.26.58-.58-.26-.58-.58-.58h0Z"/>
                </g>
                <g>
                  <ellipse class="st7" cx="28.56" cy="19.37" rx=".26" ry=".34"/>
                  <path class="st7" d="M37.42,19.28s.09.04.09.09-.04.09-.09.09-.09-.04-.09-.09.04-.09.09-.09M37.42,18.79c-.32,0-.58.26-.58.58s.26.58.58.58.58-.26.58-.58-.26-.58-.58-.58h0Z"/>
                </g>
                <g>
                  <ellipse class="st7" cx="28.84" cy="18.57" rx=".26" ry=".34"/>
                  <path class="st7" d="M37.78,18.48s.09.04.09.09-.04.09-.09.09-.09-.04-.09-.09.04-.09.09-.09M37.78,17.99c-.32,0-.58.26-.58.58s.26.58.58.58.58-.26.58-.58-.26-.58-.58-.58h0Z"/>
                </g>
                <g>
                  <ellipse class="st7" cx="28.91" cy="17.71" rx=".26" ry=".34"/>
                  <path class="st7" d="M37.87,17.62s.09.04.09.09-.04.09-.09.09-.09-.04-.09-.09.04-.09.09-.09M37.87,17.12c-.32,0-.58.26-.58.58s.26.58.58.58.58-.26.58-.58-.26-.58-.58-.58h0Z"/>
                </g>
                <g>
                  <ellipse class="st7" cx="28.89" cy="17" rx=".26" ry=".34"/>
                  <path class="st7" d="M37.85,16.91s.09.04.09.09-.04.09-.09.09-.09-.04-.09-.09.04-.09.09-.09M37.85,16.41c-.32,0-.58.26-.58.58s.26.58.58.58.58-.26.58-.58-.26-.58-.58-.58h0Z"/>
                </g>
                <g>
                  <ellipse class="st7" cx="28.82" cy="16.21" rx=".26" ry=".34"/>
                  <path class="st7" d="M37.76,16.12s.09.04.09.09-.04.09-.09.09-.09-.04-.09-.09.04-.09.09-.09M37.76,15.62c-.32,0-.58.26-.58.58s.26.58.58.58.58-.26.58-.58-.26-.58-.58-.58h0Z"/>
                </g>
                <g>
                  <path class="st7" d="M37.42,15.73c-.19,0-.34-.15-.34-.34s.15-.34.34-.34.34.15.34.34-.15.34-.34.34Z"/>
                  <path class="st7" d="M37.42,15.3s.09.04.09.09-.04.09-.09.09-.09-.04-.09-.09.04-.09.09-.09M37.42,14.8c-.32,0-.58.26-.58.58s.26.58.58.58.58-.26.58-.58-.26-.58-.58-.58h0Z"/>
                </g>
                <g>
                  <ellipse class="st7" cx="28.2" cy="14.89" rx=".26" ry=".34"/>
                  <path class="st7" d="M36.94,14.8s.09.04.09.09-.04.09-.09.09-.09-.04-.09-.09.04-.09.09-.09M36.94,14.3c-.32,0-.58.26-.58.58s.26.58.58.58.58-.26.58-.58-.26-.58-.58-.58h0Z"/>
                </g>
                <g>
                  <path class="st7" d="M36.28,15.14c-.19,0-.34-.15-.34-.34s.15-.34.34-.34.34.15.34.34-.15.34-.34.34Z"/>
                  <path class="st7" d="M36.28,14.71s.09.04.09.09-.04.09-.09.09-.09-.04-.09-.09.04-.09.09-.09M36.28,14.21c-.32,0-.58.26-.58.58s.26.58.58.58.58-.26.58-.58-.26-.58-.58-.58h0Z"/>
                </g>
                <g>
                  <ellipse class="st7" cx="28.1" cy="15.57" rx=".26" ry=".34"/>
                  <path class="st7" d="M36.81,15.48s.09.04.09.09-.04.09-.09.09-.09-.04-.09-.09.04-.09.09-.09M36.81,14.98c-.32,0-.58.26-.58.58s.26.58.58.58.58-.26.58-.58-.26-.58-.58-.58h0Z"/>
                </g>
                <g>
                  <ellipse class="st7" cx="28.36" cy="16.12" rx=".26" ry=".34"/>
                  <path class="st7" d="M37.15,16.03s.09.04.09.09-.04.09-.09.09-.09-.04-.09-.09.04-.09.09-.09M37.15,15.53c-.32,0-.58.26-.58.58s.26.58.58.58.58-.26.58-.58-.26-.58-.58-.58h0Z"/>
                </g>
                <g>
                  <path class="st7" d="M37.33,17.13c-.19,0-.34-.15-.34-.34s.15-.34.34-.34.34.15.34.34-.15.34-.34.34Z"/>
                  <path class="st7" d="M37.33,16.7s.09.04.09.09-.04.09-.09.09-.09-.04-.09-.09.04-.09.09-.09M37.33,16.21c-.32,0-.58.26-.58.58s.26.58.58.58.58-.26.58-.58-.26-.58-.58-.58h0Z"/>
                </g>
                <g>
                  <ellipse class="st7" cx="28.56" cy="17.5" rx=".26" ry=".34"/>
                  <path class="st7" d="M37.42,17.41s.09.04.09.09-.04.09-.09.09-.09-.04-.09-.09.04-.09.09-.09M37.42,16.91c-.32,0-.58.26-.58.58s.26.58.58.58.58-.26.58-.58-.26-.58-.58-.58h0Z"/>
                </g>
                <g>
                  <ellipse class="st7" cx="28.56" cy="18.14" rx=".26" ry=".34"/>
                  <path class="st7" d="M37.42,18.05s.09.04.09.09-.04.09-.09.09-.09-.04-.09-.09.04-.09.09-.09M37.42,17.55c-.32,0-.58.26-.58.58s.26.58.58.58.58-.26.58-.58-.26-.58-.58-.58h0Z"/>
                </g>
                <g>
                  <ellipse class="st7" cx="28.36" cy="18.92" rx=".26" ry=".34"/>
                  <path class="st7" d="M37.15,18.83s.09.04.09.09-.04.09-.09.09-.09-.04-.09-.09.04-.09.09-.09M37.15,18.33c-.32,0-.58.26-.58.58s.26.58.58.58.58-.26.58-.58-.26-.58-.58-.58h0Z"/>
                </g>
                <g>
                  <ellipse class="st7" cx="28.2" cy="19.44" rx=".26" ry=".34"/>
                  <path class="st7" d="M36.94,19.35s.09.04.09.09-.04.09-.09.09-.09-.04-.09-.09.04-.09.09-.09M36.94,18.86c-.32,0-.58.26-.58.58s.26.58.58.58.58-.26.58-.58-.26-.58-.58-.58h0Z"/>
                </g>
                <g>
                  <ellipse class="st7" cx="27.76" cy="19.94" rx=".26" ry=".34"/>
                  <path class="st7" d="M36.37,19.85s.09.04.09.09-.04.09-.09.09-.09-.04-.09-.09.04-.09.09-.09M36.37,19.35c-.32,0-.58.26-.58.58s.26.58.58.58.58-.26.58-.58-.26-.58-.58-.58h0Z"/>
                </g>
                <g>
                  <ellipse class="st7" cx="27.35" cy="20.12" rx=".26" ry=".34"/>
                  <path class="st7" d="M35.83,20.03s.09.04.09.09-.04.09-.09.09-.09-.04-.09-.09.04-.09.09-.09M35.83,19.53c-.32,0-.58.26-.58.58s.26.58.58.58.58-.26.58-.58-.26-.58-.58-.58h0Z"/>
                </g>
                <g>
                  <ellipse class="st7" cx="26.9" cy="20.35" rx=".26" ry=".34"/>
                  <path class="st7" d="M35.24,20.26s.09.04.09.09-.04.09-.09.09-.09-.04-.09-.09.04-.09.09-.09M35.24,19.76c-.32,0-.58.26-.58.58s.26.58.58.58.58-.26.58-.58-.26-.58-.58-.58h0Z"/>
                </g>
                <g>
                  <path class="st7" d="M34.52,20.78c-.19,0-.34-.15-.34-.34s.15-.34.34-.34.34.15.34.34-.15.34-.34.34Z"/>
                  <path class="st7" d="M34.52,20.35s.09.04.09.09-.04.09-.09.09-.09-.04-.09-.09.04-.09.09-.09M34.52,19.85c-.32,0-.58.26-.58.58s.26.58.58.58.58-.26.58-.58-.26-.58-.58-.58h0Z"/>
                </g>
                <g>
                  <ellipse class="st7" cx="25.95" cy="20.35" rx=".26" ry=".34"/>
                  <path class="st7" d="M34,20.26s.09.04.09.09-.04.09-.09.09-.09-.04-.09-.09.04-.09.09-.09M34,19.76c-.32,0-.58.26-.58.58s.26.58.58.58.58-.26.58-.58-.26-.58-.58-.58h0Z"/>
                </g>
                <g>
                  <path class="st7" d="M33.71,20.27c-.19,0-.34-.15-.34-.34s.15-.34.34-.34.34.15.34.34-.15.34-.34.34Z"/>
                  <path class="st7" d="M33.71,19.85s.09.04.09.09-.04.09-.09.09-.09-.04-.09-.09.04-.09.09-.09M33.71,19.35c-.32,0-.58.26-.58.58s.26.58.58.58.58-.26.58-.58-.26-.58-.58-.58h0Z"/>
                </g>
                <g>
                  <ellipse class="st7" cx="26.2" cy="20.12" rx=".26" ry=".34"/>
                  <path class="st7" d="M34.32,20.03s.09.04.09.09-.04.09-.09.09-.09-.04-.09-.09.04-.09.09-.09M34.32,19.53c-.32,0-.58.26-.58.58s.26.58.58.58.58-.26.58-.58-.26-.58-.58-.58h0Z"/>
                </g>
                <g>
                  <ellipse class="st7" cx="26.59" cy="20.03" rx=".26" ry=".34"/>
                  <path class="st7" d="M34.83,19.94s.09.04.09.09-.04.09-.09.09-.09-.04-.09-.09.04-.09.09-.09M34.83,19.45c-.32,0-.58.26-.58.58s.26.58.58.58.58-.26.58-.58-.26-.58-.58-.58h0Z"/>
                </g>
                <g>
                  <ellipse class="st7" cx="27.09" cy="19.89" rx=".26" ry=".34"/>
                  <path class="st7" d="M35.49,19.8s.09.04.09.09-.04.09-.09.09-.09-.04-.09-.09.04-.09.09-.09M35.49,19.31c-.32,0-.58.26-.58.58s.26.58.58.58.58-.26.58-.58-.26-.58-.58-.58h0Z"/>
                </g>
                <g>
                  <ellipse class="st7" cx="27.51" cy="19.66" rx=".26" ry=".34"/>
                  <path class="st7" d="M36.04,19.57s.09.04.09.09-.04.09-.09.09-.09-.04-.09-.09.04-.09.09-.09M36.04,19.08c-.32,0-.58.26-.58.58s.26.58.58.58.58-.26.58-.58-.26-.58-.58-.58h0Z"/>
                </g>
                <g>
                  <ellipse class="st7" cx="27.83" cy="19.35" rx=".26" ry=".34"/>
                  <path class="st7" d="M36.46,19.26s.09.04.09.09-.04.09-.09.09-.09-.04-.09-.09.04-.09.09-.09M36.46,18.77c-.32,0-.58.26-.58.58s.26.58.58.58.58-.26.58-.58-.26-.58-.58-.58h0Z"/>
                </g>
                <g>
                  <path class="st7" d="M36.71,19.17c-.19,0-.34-.15-.34-.34s.15-.34.34-.34.34.15.34.34-.15.34-.34.34Z"/>
                  <path class="st7" d="M36.71,18.74s.09.04.09.09-.04.09-.09.09-.09-.04-.09-.09.04-.09.09-.09M36.71,18.24c-.32,0-.58.26-.58.58s.26.58.58.58.58-.26.58-.58-.26-.58-.58-.58h0Z"/>
                </g>
                <g>
                  <ellipse class="st7" cx="28.2" cy="18.3" rx=".26" ry=".34"/>
                  <path class="st7" d="M36.94,18.21s.09.04.09.09-.04.09-.09.09-.09-.04-.09-.09.04-.09.09-.09M36.94,17.72c-.32,0-.58.26-.58.58s.26.58.58.58.58-.26.58-.58-.26-.58-.58-.58h0Z"/>
                </g>
                <g>
                  <ellipse class="st7" cx="28.2" cy="17.75" rx=".26" ry=".34"/>
                  <path class="st7" d="M36.94,17.66s.09.04.09.09-.04.09-.09.09-.09-.04-.09-.09.04-.09.09-.09M36.94,17.17c-.32,0-.58.26-.58.58s.26.58.58.58.58-.26.58-.58-.26-.58-.58-.58h0Z"/>
                </g>
                <g>
                  <ellipse class="st7" cx="28.2" cy="17.17" rx=".26" ry=".34"/>
                  <path class="st7" d="M36.94,17.07s.09.04.09.09-.04.09-.09.09-.09-.04-.09-.09.04-.09.09-.09M36.94,16.58c-.32,0-.58.26-.58.58s.26.58.58.58.58-.26.58-.58-.26-.58-.58-.58h0Z"/>
                </g>
                <g>
                  <ellipse class="st7" cx="28.09" cy="16.61" rx=".26" ry=".34"/>
                  <path class="st7" d="M36.8,16.52s.09.04.09.09-.04.09-.09.09-.09-.04-.09-.09.04-.09.09-.09M36.8,16.03c-.32,0-.58.26-.58.58s.26.58.58.58.58-.26.58-.58-.26-.58-.58-.58h0Z"/>
                </g>
                <g>
                  <path class="st7" d="M36.57,16.46c-.19,0-.34-.15-.34-.34s.15-.34.34-.34.34.15.34.34-.15.34-.34.34Z"/>
                  <path class="st7" d="M36.57,16.03s.09.04.09.09-.04.09-.09.09-.09-.04-.09-.09.04-.09.09-.09M36.57,15.53c-.32,0-.58.26-.58.58s.26.58.58.58.58-.26.58-.58-.26-.58-.58-.58h0Z"/>
                </g>
                <g>
                  <path class="st7" d="M36.22,15.82c-.19,0-.34-.15-.34-.34s.15-.34.34-.34.34.15.34.34-.15.34-.34.34Z"/>
                  <path class="st7" d="M36.22,15.39s.09.04.09.09-.04.09-.09.09-.09-.04-.09-.09.04-.09.09-.09M36.22,14.89c-.32,0-.58.26-.58.58s.26.58.58.58.58-.26.58-.58-.26-.58-.58-.58h0Z"/>
                </g>
                <g>
                  <path class="st7" d="M35.56,15.73c-.19,0-.34-.15-.34-.34s.15-.34.34-.34.34.15.34.34-.15.34-.34.34Z"/>
                  <path class="st7" d="M35.56,15.3s.09.04.09.09-.04.09-.09.09-.09-.04-.09-.09.04-.09.09-.09M35.56,14.8c-.32,0-.58.26-.58.58s.26.58.58.58.58-.26.58-.58-.26-.58-.58-.58h0Z"/>
                </g>
                <g>
                  <ellipse class="st7" cx="27.28" cy="16.03" rx=".26" ry=".34"/>
                  <path class="st7" d="M35.74,15.94s.09.04.09.09-.04.09-.09.09-.09-.04-.09-.09.04-.09.09-.09M35.74,15.44c-.32,0-.58.26-.58.58s.26.58.58.58.58-.26.58-.58-.26-.58-.58-.58h0Z"/>
                </g>
                <g>
                  <ellipse class="st7" cx="27.55" cy="16.52" rx=".26" ry=".34"/>
                  <path class="st7" d="M36.09,16.43s.09.04.09.09-.04.09-.09.09-.09-.04-.09-.09.04-.09.09-.09M36.09,15.94c-.32,0-.58.26-.58.58s.26.58.58.58.58-.26.58-.58-.26-.58-.58-.58h0Z"/>
                </g>
                <g>
                  <ellipse class="st7" cx="27.72" cy="17.17" rx=".26" ry=".34"/>
                  <path class="st7" d="M36.31,17.07s.09.04.09.09-.04.09-.09.09-.09-.04-.09-.09.04-.09.09-.09M36.31,16.58c-.32,0-.58.26-.58.58s.26.58.58.58.58-.26.58-.58-.26-.58-.58-.58h0Z"/>
                </g>
                <g>
                  <ellipse class="st7" cx="27.72" cy="17.66" rx=".26" ry=".34"/>
                  <path class="st7" d="M36.31,17.57s.09.04.09.09-.04.09-.09.09-.09-.04-.09-.09.04-.09.09-.09M36.31,17.08c-.32,0-.58.26-.58.58s.26.58.58.58.58-.26.58-.58-.26-.58-.58-.58h0Z"/>
                </g>
                <g>
                  <path class="st7" d="M36.28,18.64c-.19,0-.34-.15-.34-.34s.15-.34.34-.34.34.15.34.34-.15.34-.34.34Z"/>
                  <path class="st7" d="M36.28,18.21s.09.04.09.09-.04.09-.09.09-.09-.04-.09-.09.04-.09.09-.09M36.28,17.72c-.32,0-.58.26-.58.58s.26.58.58.58.58-.26.58-.58-.26-.58-.58-.58h0Z"/>
                </g>
                <g>
                  <ellipse class="st7" cx="27.58" cy="18.8" rx=".26" ry=".34"/>
                  <path class="st7" d="M36.13,18.71s.09.04.09.09-.04.09-.09.09-.09-.04-.09-.09.04-.09.09-.09M36.13,18.22c-.32,0-.58.26-.58.58s.26.58.58.58.58-.26.58-.58-.26-.58-.58-.58h0Z"/>
                </g>
                <g>
                  <ellipse class="st7" cx="27.38" cy="19.19" rx=".26" ry=".34"/>
                  <path class="st7" d="M35.87,19.1s.09.04.09.09-.04.09-.09.09-.09-.04-.09-.09.04-.09.09-.09M35.87,18.61c-.32,0-.58.26-.58.58s.26.58.58.58.58-.26.58-.58-.26-.58-.58-.58h0Z"/>
                </g>
                <g>
                  <ellipse class="st7" cx="27.14" cy="19.46" rx=".26" ry=".34"/>
                  <path class="st7" d="M35.56,19.37s.09.04.09.09-.04.09-.09.09-.09-.04-.09-.09.04-.09.09-.09M35.56,18.88c-.32,0-.58.26-.58.58s.26.58.58.58.58-.26.58-.58-.26-.58-.58-.58h0Z"/>
                </g>
                <g>
                  <ellipse class="st7" cx="26.72" cy="19.66" rx=".26" ry=".34"/>
                  <path class="st7" d="M35.01,19.57s.09.04.09.09-.04.09-.09.09-.09-.04-.09-.09.04-.09.09-.09M35.01,19.08c-.32,0-.58.26-.58.58s.26.58.58.58.58-.26.58-.58-.26-.58-.58-.58h0Z"/>
                </g>
                <g>
                  <ellipse class="st7" cx="26.35" cy="19.75" rx=".26" ry=".34"/>
                  <path class="st7" d="M34.52,19.66s.09.04.09.09-.04.09-.09.09-.09-.04-.09-.09.04-.09.09-.09M34.52,19.17c-.32,0-.58.26-.58.58s.26.58.58.58.58-.26.58-.58-.26-.58-.58-.58h0Z"/>
                </g>
                <g>
                  <ellipse class="st7" cx="26.02" cy="19.71" rx=".26" ry=".34"/>
                  <path class="st7" d="M34.09,19.62s.09.04.09.09-.04.09-.09.09-.09-.04-.09-.09.04-.09.09-.09M34.09,19.13c-.32,0-.58.26-.58.58s.26.58.58.58.58-.26.58-.58-.26-.58-.58-.58h0Z"/>
                </g>
                <g>
                  <path class="st7" d="M33.71,19.71c-.19,0-.34-.15-.34-.34s.15-.34.34-.34.34.15.34.34-.15.34-.34.34Z"/>
                  <path class="st7" d="M33.71,19.28s.09.04.09.09-.04.09-.09.09-.09-.04-.09-.09.04-.09.09-.09M33.71,18.79c-.32,0-.58.26-.58.58s.26.58.58.58.58-.26.58-.58-.26-.58-.58-.58h0Z"/>
                </g>
                <g>
                  <ellipse class="st7" cx="25.43" cy="19.19" rx=".26" ry=".34"/>
                  <path class="st7" d="M33.32,19.1s.09.04.09.09-.04.09-.09.09-.09-.04-.09-.09.04-.09.09-.09M33.32,18.6c-.32,0-.58.26-.58.58s.26.58.58.58.58-.26.58-.58-.26-.58-.58-.58h0Z"/>
                </g>
                <g>
                  <ellipse class="st7" cx="25.11" cy="19.01" rx=".26" ry=".34"/>
                  <path class="st7" d="M32.9,18.92s.09.04.09.09-.04.09-.09.09-.09-.04-.09-.09.04-.09.09-.09M32.9,18.42c-.32,0-.58.26-.58.58s.26.58.58.58.58-.26.58-.58-.26-.58-.58-.58h0Z"/>
                </g>
                <g>
                  <path class="st7" d="M33.08,18.71c-.19,0-.34-.15-.34-.34s.15-.34.34-.34.34.15.34.34-.15.34-.34.34Z"/>
                  <path class="st7" d="M33.08,18.28s.09.04.09.09-.04.09-.09.09-.09-.04-.09-.09.04-.09.09-.09M33.08,17.79c-.32,0-.58.26-.58.58s.26.58.58.58.58-.26.58-.58-.26-.58-.58-.58h0Z"/>
                </g>
                <g>
                  <path class="st7" d="M33.62,19.09c-.19,0-.34-.15-.34-.34s.15-.34.34-.34.34.15.34.34-.15.34-.34.34Z"/>
                  <path class="st7" d="M33.62,18.66s.09.04.09.09-.04.09-.09.09-.09-.04-.09-.09.04-.09.09-.09M33.62,18.17c-.32,0-.58.26-.58.58s.26.58.58.58.58-.26.58-.58-.26-.58-.58-.58h0Z"/>
                </g>
                <g>
                  <ellipse class="st7" cx="26.13" cy="19.13" rx=".26" ry=".34"/>
                  <path class="st7" d="M34.23,19.04s.09.04.09.09-.04.09-.09.09-.09-.04-.09-.09.04-.09.09-.09M34.23,18.55c-.32,0-.58.26-.58.58s.26.58.58.58.58-.26.58-.58-.26-.58-.58-.58h0Z"/>
                </g>
                <g>
                  <path class="st7" d="M34.7,19.56c-.19,0-.34-.15-.34-.34s.15-.34.34-.34.34.15.34.34-.15.34-.34.34Z"/>
                  <path class="st7" d="M34.7,19.13s.09.04.09.09-.04.09-.09.09-.09-.04-.09-.09.04-.09.09-.09M34.7,18.64c-.32,0-.58.26-.58.58s.26.58.58.58.58-.26.58-.58-.26-.58-.58-.58h0Z"/>
                </g>
                <g>
                  <ellipse class="st7" cx="26.9" cy="19.04" rx=".26" ry=".34"/>
                  <path class="st7" d="M35.24,18.95s.09.04.09.09-.04.09-.09.09-.09-.04-.09-.09.04-.09.09-.09M35.24,18.46c-.32,0-.58.26-.58.58s.26.58.58.58.58-.26.58-.58-.26-.58-.58-.58h0Z"/>
                </g>
                <g>
                  <ellipse class="st7" cx="27.21" cy="18.74" rx=".26" ry=".34"/>
                  <path class="st7" d="M35.65,18.65s.09.04.09.09-.04.09-.09.09-.09-.04-.09-.09.04-.09.09-.09M35.65,18.15c-.32,0-.58.26-.58.58s.26.58.58.58.58-.26.58-.58-.26-.58-.58-.58h0Z"/>
                </g>
                <g>
                  <ellipse class="st7" cx="27.35" cy="18.12" rx=".26" ry=".34"/>
                  <path class="st7" d="M35.83,18.03s.09.04.09.09-.04.09-.09.09-.09-.04-.09-.09.04-.09.09-.09M35.83,17.54c-.32,0-.58.26-.58.58s.26.58.58.58.58-.26.58-.58-.26-.58-.58-.58h0Z"/>
                </g>
                <g>
                  <ellipse class="st7" cx="27.38" cy="17.43" rx=".26" ry=".34"/>
                  <path class="st7" d="M35.87,17.34s.09.04.09.09-.04.09-.09.09-.09-.04-.09-.09.04-.09.09-.09M35.87,16.85c-.32,0-.58.26-.58.58s.26.58.58.58.58-.26.58-.58-.26-.58-.58-.58h0Z"/>
                </g>
                <g>
                  <ellipse class="st7" cx="27.16" cy="16.88" rx=".26" ry=".34"/>
                  <path class="st7" d="M35.58,16.79s.09.04.09.09-.04.09-.09.09-.09-.04-.09-.09.04-.09.09-.09M35.58,16.3c-.32,0-.58.26-.58.58s.26.58.58.58.58-.26.58-.58-.26-.58-.58-.58h0Z"/>
                </g>
                <g>
                  <ellipse class="st7" cx="26.95" cy="15.88" rx=".26" ry=".34"/>
                  <path class="st7" d="M35.31,15.79s.09.04.09.09-.04.09-.09.09-.09-.04-.09-.09.04-.09.09-.09M35.31,15.3c-.32,0-.58.26-.58.58s.26.58.58.58.58-.26.58-.58-.26-.58-.58-.58h0Z"/>
                </g>
                <g>
                  <ellipse class="st7" cx="26.97" cy="16.48" rx=".26" ry=".34"/>
                  <path class="st7" d="M35.33,16.39s.09.04.09.09-.04.09-.09.09-.09-.04-.09-.09.04-.09.09-.09M35.33,15.89c-.32,0-.58.26-.58.58s.26.58.58.58.58-.26.58-.58-.26-.58-.58-.58h0Z"/>
                </g>
                <g>
                  <ellipse class="st7" cx="26.52" cy="15.7" rx=".26" ry=".34"/>
                  <path class="st7" d="M34.74,15.61s.09.04.09.09-.04.09-.09.09-.09-.04-.09-.09.04-.09.09-.09M34.74,15.12c-.32,0-.58.26-.58.58s.26.58.58.58.58-.26.58-.58-.26-.58-.58-.58h0Z"/>
                </g>
                <g>
                  <ellipse class="st7" cx="26.59" cy="16.21" rx=".26" ry=".34"/>
                  <path class="st7" d="M34.83,16.12s.09.04.09.09-.04.09-.09.09-.09-.04-.09-.09.04-.09.09-.09M34.83,15.62c-.32,0-.58.26-.58.58s.26.58.58.58.58-.26.58-.58-.26-.58-.58-.58h0Z"/>
                </g>
                <g>
                  <ellipse class="st7" cx="26.13" cy="15.88" rx=".26" ry=".34"/>
                  <path class="st7" d="M34.23,15.79s.09.04.09.09-.04.09-.09.09-.09-.04-.09-.09.04-.09.09-.09M34.23,15.3c-.32,0-.58.26-.58.58s.26.58.58.58.58-.26.58-.58-.26-.58-.58-.58h0Z"/>
                </g>
                <g>
                  <path class="st7" d="M35.15,17.13c-.19,0-.34-.15-.34-.34s.15-.34.34-.34.34.15.34.34-.15.34-.34.34Z"/>
                  <path class="st7" d="M35.15,16.7s.09.04.09.09-.04.09-.09.09-.09-.04-.09-.09.04-.09.09-.09M35.15,16.21c-.32,0-.58.26-.58.58s.26.58.58.58.58-.26.58-.58-.26-.58-.58-.58h0Z"/>
                </g>
                <g>
                  <ellipse class="st7" cx="26.92" cy="17.36" rx=".26" ry=".34"/>
                  <path class="st7" d="M35.27,17.27s.09.04.09.09-.04.09-.09.09-.09-.04-.09-.09.04-.09.09-.09M35.27,16.77c-.32,0-.58.26-.58.58s.26.58.58.58.58-.26.58-.58-.26-.58-.58-.58h0Z"/>
                </g>
                <g>
                  <ellipse class="st7" cx="27.02" cy="17.89" rx=".26" ry=".34"/>
                  <path class="st7" d="M35.4,17.8s.09.04.09.09-.04.09-.09.09-.09-.04-.09-.09.04-.09.09-.09M35.4,17.3c-.32,0-.58.26-.58.58s.26.58.58.58.58-.26.58-.58-.26-.58-.58-.58h0Z"/>
                </g>
                <g>
                  <ellipse class="st7" cx="26.99" cy="18.37" rx=".26" ry=".34"/>
                  <path class="st7" d="M35.36,18.28s.09.04.09.09-.04.09-.09.09-.09-.04-.09-.09.04-.09.09-.09M35.36,17.79c-.32,0-.58.26-.58.58s.26.58.58.58.58-.26.58-.58-.26-.58-.58-.58h0Z"/>
                </g>
                <g>
                  <ellipse class="st7" cx="26.69" cy="18.68" rx=".26" ry=".34"/>
                  <path class="st7" d="M34.96,18.59s.09.04.09.09-.04.09-.09.09-.09-.04-.09-.09.04-.09.09-.09M34.96,18.1c-.32,0-.58.26-.58.58s.26.58.58.58.58-.26.58-.58-.26-.58-.58-.58h0Z"/>
                </g>
                <g>
                  <path class="st7" d="M34.53,18.93c-.19,0-.34-.15-.34-.34s.15-.34.34-.34.34.15.34.34-.15.34-.34.34Z"/>
                  <path class="st7" d="M34.53,18.5s.09.04.09.09-.04.09-.09.09-.09-.04-.09-.09.04-.09.09-.09M34.53,18.01c-.32,0-.58.26-.58.58s.26.58.58.58.58-.26.58-.58-.26-.58-.58-.58h0Z"/>
                </g>
                <g>
                  <ellipse class="st7" cx="26.03" cy="18.33" rx=".26" ry=".34"/>
                  <path class="st7" d="M34.1,18.24s.09.04.09.09-.04.09-.09.09-.09-.04-.09-.09.04-.09.09-.09M34.1,17.74c-.32,0-.58.26-.58.58s.26.58.58.58.58-.26.58-.58-.26-.58-.58-.58h0Z"/>
                </g>
                <g>
                  <ellipse class="st7" cx="25.53" cy="17.89" rx=".26" ry=".34"/>
                  <path class="st7" d="M33.44,17.8s.09.04.09.09-.04.09-.09.09-.09-.04-.09-.09.04-.09.09-.09M33.44,17.3c-.32,0-.58.26-.58.58s.26.58.58.58.58-.26.58-.58-.26-.58-.58-.58h0Z"/>
                </g>
                <g>
                  <ellipse class="st7" cx="25.7" cy="17.12" rx=".26" ry=".34"/>
                  <path class="st7" d="M33.67,17.03s.09.04.09.09-.04.09-.09.09-.09-.04-.09-.09.04-.09.09-.09M33.67,16.53c-.32,0-.58.26-.58.58s.26.58.58.58.58-.26.58-.58-.26-.58-.58-.58h0Z"/>
                </g>
                <g>
                  <ellipse class="st7" cx="26.02" cy="16.97" rx=".26" ry=".34"/>
                  <path class="st7" d="M34.09,16.88s.09.04.09.09-.04.09-.09.09-.09-.04-.09-.09.04-.09.09-.09M34.09,16.39c-.32,0-.58.26-.58.58s.26.58.58.58.58-.26.58-.58-.26-.58-.58-.58h0Z"/>
                </g>
                <g>
                  <ellipse class="st7" cx="26.45" cy="17.17" rx=".26" ry=".34"/>
                  <path class="st7" d="M34.65,17.07s.09.04.09.09-.04.09-.09.09-.09-.04-.09-.09.04-.09.09-.09M34.65,16.58c-.32,0-.58.26-.58.58s.26.58.58.58.58-.26.58-.58-.26-.58-.58-.58h0Z"/>
                </g>
                <g>
                  <ellipse class="st7" cx="26.59" cy="18.19" rx=".26" ry=".34"/>
                  <path class="st7" d="M34.83,18.1s.09.04.09.09-.04.09-.09.09-.09-.04-.09-.09.04-.09.09-.09M34.83,17.61c-.32,0-.58.26-.58.58s.26.58.58.58.58-.26.58-.58-.26-.58-.58-.58h0Z"/>
                </g>
                <g>
                  <ellipse class="st7" cx="26.25" cy="17.98" rx=".26" ry=".34"/>
                  <path class="st7" d="M34.39,17.89s.09.04.09.09-.04.09-.09.09-.09-.04-.09-.09.04-.09.09-.09M34.39,17.39c-.32,0-.58.26-.58.58s.26.58.58.58.58-.26.58-.58-.26-.58-.58-.58h0Z"/>
                </g>
                <g>
                  <ellipse class="st7" cx="25.91" cy="17.68" rx=".26" ry=".34"/>
                  <path class="st7" d="M33.94,17.59s.09.04.09.09-.04.09-.09.09-.09-.04-.09-.09.04-.09.09-.09M33.94,17.09c-.32,0-.58.26-.58.58s.26.58.58.58.58-.26.58-.58-.26-.58-.58-.58h0Z"/>
                </g>
                <g>
                  <path class="st7" d="M34.7,18c-.19,0-.34-.15-.34-.34s.15-.34.34-.34.34.15.34.34-.15.34-.34.34Z"/>
                  <path class="st7" d="M34.7,17.57s.09.04.09.09-.04.09-.09.09-.09-.04-.09-.09.04-.09.09-.09M34.7,17.08c-.32,0-.58.26-.58.58s.26.58.58.58.58-.26.58-.58-.26-.58-.58-.58h0Z"/>
                </g>
                <g>
                  <ellipse class="st7" cx="26.13" cy="16.39" rx=".26" ry=".34"/>
                  <path class="st7" d="M34.23,16.3s.09.04.09.09-.04.09-.09.09-.09-.04-.09-.09.04-.09.09-.09M34.23,15.8c-.32,0-.58.26-.58.58s.26.58.58.58.58-.26.58-.58-.26-.58-.58-.58h0Z"/>
                </g>
                <g>
                  <path class="st7" d="M33.76,16.55c-.19,0-.34-.15-.34-.34s.15-.34.34-.34.34.15.34.34-.15.34-.34.34Z"/>
                  <path class="st7" d="M33.76,16.12s.09.04.09.09-.04.09-.09.09-.09-.04-.09-.09.04-.09.09-.09M33.76,15.62c-.32,0-.58.26-.58.58s.26.58.58.58.58-.26.58-.58-.26-.58-.58-.58h0Z"/>
                </g>
                <g>
                  <ellipse class="st7" cx="25.39" cy="19.71" rx=".26" ry=".34"/>
                  <path class="st7" d="M33.26,19.62s.09.04.09.09-.04.09-.09.09-.09-.04-.09-.09.04-.09.09-.09M33.26,19.13c-.32,0-.58.26-.58.58s.26.58.58.58.58-.26.58-.58-.26-.58-.58-.58h0Z"/>
                </g>
                <g>
                  <ellipse class="st7" cx="24.69" cy="19.28" rx=".26" ry=".34"/>
                  <path class="st7" d="M32.35,19.19s.09.04.09.09-.04.09-.09.09-.09-.04-.09-.09.04-.09.09-.09M32.35,18.7c-.32,0-.58.26-.58.58s.26.58.58.58.58-.26.58-.58-.26-.58-.58-.58h0Z"/>
                </g>
                <g>
                  <ellipse class="st7" cx="24.99" cy="19.53" rx=".26" ry=".34"/>
                  <path class="st7" d="M32.74,19.44s.09.04.09.09-.04.09-.09.09-.09-.04-.09-.09.04-.09.09-.09M32.74,18.95c-.32,0-.58.26-.58.58s.26.58.58.58.58-.26.58-.58-.26-.58-.58-.58h0Z"/>
                </g>
                <g>
                  <ellipse class="st7" cx="24.62" cy="19.8" rx=".26" ry=".34"/>
                  <path class="st7" d="M32.26,19.71s.09.04.09.09-.04.09-.09.09-.09-.04-.09-.09.04-.09.09-.09M32.26,19.22c-.32,0-.58.26-.58.58s.26.58.58.58.58-.26.58-.58-.26-.58-.58-.58h0Z"/>
                </g>
                <g>
                  <ellipse class="st7" cx="25.06" cy="20.03" rx=".26" ry=".34"/>
                  <path class="st7" d="M32.83,19.94s.09.04.09.09-.04.09-.09.09-.09-.04-.09-.09.04-.09.09-.09M32.83,19.44c-.32,0-.58.26-.58.58s.26.58.58.58.58-.26.58-.58-.26-.58-.58-.58h0Z"/>
                </g>
                <g>
                  <path class="st7" d="M33.35,20.57c-.19,0-.34-.15-.34-.34s.15-.34.34-.34.34.15.34.34-.15.34-.34.34Z"/>
                  <path class="st7" d="M33.35,20.14s.09.04.09.09-.04.09-.09.09-.09-.04-.09-.09.04-.09.09-.09M33.35,19.65c-.32,0-.58.26-.58.58s.26.58.58.58.58-.26.58-.58-.26-.58-.58-.58h0Z"/>
                </g>
                <g>
                  <path class="st7" d="M32.9,20.87c-.19,0-.34-.15-.34-.34s.15-.34.34-.34.34.15.34.34-.15.34-.34.34Z"/>
                  <path class="st7" d="M32.9,20.44s.09.04.09.09-.04.09-.09.09-.09-.04-.09-.09.04-.09.09-.09M32.9,19.94c-.32,0-.58.26-.58.58s.26.58.58.58.58-.26.58-.58-.26-.58-.58-.58h0Z"/>
                </g>
                <g>
                  <ellipse class="st7" cx="25.63" cy="20.71" rx=".26" ry=".34"/>
                  <path class="st7" d="M33.58,20.62s.09.04.09.09-.04.09-.09.09-.09-.04-.09-.09.04-.09.09-.09M33.58,20.13c-.32,0-.58.26-.58.58s.26.58.58.58.58-.26.58-.58-.26-.58-.58-.58h0Z"/>
                </g>
                <g>
                  <ellipse class="st7" cx="27.56" cy="21.1" rx=".26" ry=".34"/>
                  <path class="st7" d="M36.1,21.01s.09.04.09.09-.04.09-.09.09-.09-.04-.09-.09.04-.09.09-.09M36.1,20.51c-.32,0-.58.26-.58.58s.26.58.58.58.58-.26.58-.58-.26-.58-.58-.58h0Z"/>
                </g>
                <g>
                  <ellipse class="st7" cx="28.06" cy="20.62" rx=".26" ry=".34"/>
                  <path class="st7" d="M36.76,20.53s.09.04.09.09-.04.09-.09.09-.09-.04-.09-.09.04-.09.09-.09M36.76,20.04c-.32,0-.58.26-.58.58s.26.58.58.58.58-.26.58-.58-.26-.58-.58-.58h0Z"/>
                </g>
                <g>
                  <ellipse class="st7" cx="28.63" cy="20.35" rx=".26" ry=".34"/>
                  <path class="st7" d="M37.51,20.26s.09.04.09.09-.04.09-.09.09-.09-.04-.09-.09.04-.09.09-.09M37.51,19.76c-.32,0-.58.26-.58.58s.26.58.58.58.58-.26.58-.58-.26-.58-.58-.58h0Z"/>
                </g>
                <g>
                  <ellipse class="st7" cx="28.89" cy="19.75" rx=".26" ry=".34"/>
                  <path class="st7" d="M37.85,19.66s.09.04.09.09-.04.09-.09.09-.09-.04-.09-.09.04-.09.09-.09M37.85,19.17c-.32,0-.58.26-.58.58s.26.58.58.58.58-.26.58-.58-.26-.58-.58-.58h0Z"/>
                </g>
                <g>
                  <path class="st7" d="M38.17,19.35c-.19,0-.34-.15-.34-.34s.15-.34.34-.34.34.15.34.34-.15.34-.34.34Z"/>
                  <path class="st7" d="M38.17,18.92s.09.04.09.09-.04.09-.09.09-.09-.04-.09-.09.04-.09.09-.09M38.17,18.42c-.32,0-.58.26-.58.58s.26.58.58.58.58-.26.58-.58-.26-.58-.58-.58h0Z"/>
                </g>
                <g>
                  <path class="st7" d="M38.32,18.46c-.19,0-.34-.15-.34-.34s.15-.34.34-.34.34.15.34.34-.15.34-.34.34Z"/>
                  <path class="st7" d="M38.32,18.03s.09.04.09.09-.04.09-.09.09-.09-.04-.09-.09.04-.09.09-.09M38.32,17.54c-.32,0-.58.26-.58.58s.26.58.58.58.58-.26.58-.58-.26-.58-.58-.58h0Z"/>
                </g>
                <g>
                  <ellipse class="st7" cx="29.31" cy="17.34" rx=".26" ry=".34"/>
                  <path class="st7" d="M38.4,17.25s.09.04.09.09-.04.09-.09.09-.09-.04-.09-.09.04-.09.09-.09M38.4,16.75c-.32,0-.58.26-.58.58s.26.58.58.58.58-.26.58-.58-.26-.58-.58-.58h0Z"/>
                </g>
                <g>
                  <path class="st7" d="M38.4,17.04c-.19,0-.34-.15-.34-.34s.15-.34.34-.34.34.15.34.34-.15.34-.34.34Z"/>
                  <path class="st7" d="M38.4,16.61s.09.04.09.09-.04.09-.09.09-.09-.04-.09-.09.04-.09.09-.09M38.4,16.12c-.32,0-.58.26-.58.58s.26.58.58.58.58-.26.58-.58-.26-.58-.58-.58h0Z"/>
                </g>
                <g>
                  <ellipse class="st7" cx="29.31" cy="16.03" rx=".26" ry=".34"/>
                  <path class="st7" d="M38.4,15.94s.09.04.09.09-.04.09-.09.09-.09-.04-.09-.09.04-.09.09-.09M38.4,15.44c-.32,0-.58.26-.58.58s.26.58.58.58.58-.26.58-.58-.26-.58-.58-.58h0Z"/>
                </g>
                <g>
                  <path class="st7" d="M38.08,15.73c-.19,0-.34-.15-.34-.34s.15-.34.34-.34.34.15.34.34-.15.34-.34.34Z"/>
                  <path class="st7" d="M38.08,15.3s.09.04.09.09-.04.09-.09.09-.09-.04-.09-.09.04-.09.09-.09M38.08,14.8c-.32,0-.58.26-.58.58s.26.58.58.58.58-.26.58-.58-.26-.58-.58-.58h0Z"/>
                </g>
                <g>
                  <ellipse class="st7" cx="28.63" cy="14.64" rx=".26" ry=".34"/>
                  <path class="st7" d="M37.51,14.55s.09.04.09.09-.04.09-.09.09-.09-.04-.09-.09.04-.09.09-.09M37.51,14.06c-.32,0-.58.26-.58.58s.26.58.58.58.58-.26.58-.58-.26-.58-.58-.58h0Z"/>
                </g>
                <g>
                  <ellipse class="st7" cx="28.13" cy="14.13" rx=".26" ry=".34"/>
                  <path class="st7" d="M36.85,14.04s.09.04.09.09-.04.09-.09.09-.09-.04-.09-.09.04-.09.09-.09M36.85,13.55c-.32,0-.58.26-.58.58s.26.58.58.58.58-.26.58-.58-.26-.58-.58-.58h0Z"/>
                </g>
                <g>
                  <ellipse class="st7" cx="28.36" cy="13.27" rx=".26" ry=".34"/>
                  <path class="st7" d="M37.15,13.18s.09.04.09.09-.04.09-.09.09-.09-.04-.09-.09.04-.09.09-.09M37.15,12.68c-.32,0-.58.26-.58.58s.26.58.58.58.58-.26.58-.58-.26-.58-.58-.58h0Z"/>
                </g>
                <g>
                  <ellipse class="st7" cx="26.66" cy="21.69" rx=".26" ry=".34"/>
                  <path class="st7" d="M34.92,21.6s.09.04.09.09-.04.09-.09.09-.09-.04-.09-.09.04-.09.09-.09M34.92,21.11c-.32,0-.58.26-.58.58s.26.58.58.58.58-.26.58-.58-.26-.58-.58-.58h0Z"/>
                </g>
                <g>
                  <ellipse class="st7" cx="27.21" cy="21.69" rx=".26" ry=".34"/>
                  <path class="st7" d="M35.65,21.6s.09.04.09.09-.04.09-.09.09-.09-.04-.09-.09.04-.09.09-.09M35.65,21.11c-.32,0-.58.26-.58.58s.26.58.58.58.58-.26.58-.58-.26-.58-.58-.58h0Z"/>
                </g>
                <g>
                  <ellipse class="st7" cx="27.58" cy="21.6" rx=".26" ry=".34"/>
                  <path class="st7" d="M36.13,21.51s.09.04.09.09-.04.09-.09.09-.09-.04-.09-.09.04-.09.09-.09M36.13,21.02c-.32,0-.58.26-.58.58s.26.58.58.58.58-.26.58-.58-.26-.58-.58-.58h0Z"/>
                </g>
                <g>
                  <path class="st7" d="M36.71,21.49c-.19,0-.34-.15-.34-.34s.15-.34.34-.34.34.15.34.34-.15.34-.34.34Z"/>
                  <path class="st7" d="M36.71,21.07s.09.04.09.09-.04.09-.09.09-.09-.04-.09-.09.04-.09.09-.09M36.71,20.57c-.32,0-.58.26-.58.58s.26.58.58.58.58-.26.58-.58-.26-.58-.58-.58h0Z"/>
                </g>
                <g>
                  <ellipse class="st7" cx="28.56" cy="20.89" rx=".26" ry=".34"/>
                  <path class="st7" d="M37.42,20.8s.09.04.09.09-.04.09-.09.09-.09-.04-.09-.09.04-.09.09-.09M37.42,20.3c-.32,0-.58.26-.58.58s.26.58.58.58.58-.26.58-.58-.26-.58-.58-.58h0Z"/>
                </g>
                <g>
                  <path class="st7" d="M38.04,20.78c-.19,0-.34-.15-.34-.34s.15-.34.34-.34.34.15.34.34-.15.34-.34.34Z"/>
                  <path class="st7" d="M38.04,20.35s.09.04.09.09-.04.09-.09.09-.09-.04-.09-.09.04-.09.09-.09M38.04,19.85c-.32,0-.58.26-.58.58s.26.58.58.58.58-.26.58-.58-.26-.58-.58-.58h0Z"/>
                </g>
                <g>
                  <ellipse class="st7" cx="29.32" cy="19.53" rx=".26" ry=".34"/>
                  <path class="st7" d="M38.41,19.44s.09.04.09.09-.04.09-.09.09-.09-.04-.09-.09.04-.09.09-.09M38.41,18.95c-.32,0-.58.26-.58.58s.26.58.58.58.58-.26.58-.58-.26-.58-.58-.58h0Z"/>
                </g>
                <g>
                  <ellipse class="st7" cx="29.56" cy="18.75" rx=".26" ry=".34"/>
                  <path class="st7" d="M38.72,18.66s.09.04.09.09-.04.09-.09.09-.09-.04-.09-.09.04-.09.09-.09M38.72,18.17c-.32,0-.58.26-.58.58s.26.58.58.58.58-.26.58-.58-.26-.58-.58-.58h0Z"/>
                </g>
                <g>
                  <ellipse class="st7" cx="29.75" cy="17.8" rx=".26" ry=".34"/>
                  <path class="st7" d="M38.97,17.71s.09.04.09.09-.04.09-.09.09-.09-.04-.09-.09.04-.09.09-.09M38.97,17.21c-.32,0-.58.26-.58.58s.26.58.58.58.58-.26.58-.58-.26-.58-.58-.58h0Z"/>
                </g>
                <g>
                  <ellipse class="st7" cx="29.82" cy="17" rx=".26" ry=".34"/>
                  <path class="st7" d="M39.06,16.91s.09.04.09.09-.04.09-.09.09-.09-.04-.09-.09.04-.09.09-.09M39.06,16.41c-.32,0-.58.26-.58.58s.26.58.58.58.58-.26.58-.58-.26-.58-.58-.58h0Z"/>
                </g>
                <g>
                  <ellipse class="st7" cx="29.75" cy="16.3" rx=".26" ry=".34"/>
                  <path class="st7" d="M38.97,16.21s.09.04.09.09-.04.09-.09.09-.09-.04-.09-.09.04-.09.09-.09M38.97,15.71c-.32,0-.58.26-.58.58s.26.58.58.58.58-.26.58-.58-.26-.58-.58-.58h0Z"/>
                </g>
                <g>
                  <path class="st7" d="M38.72,15.82c-.19,0-.34-.15-.34-.34s.15-.34.34-.34.34.15.34.34-.15.34-.34.34Z"/>
                  <path class="st7" d="M38.72,15.39s.09.04.09.09-.04.09-.09.09-.09-.04-.09-.09.04-.09.09-.09M38.72,14.89c-.32,0-.58.26-.58.58s.26.58.58.58.58-.26.58-.58-.26-.58-.58-.58h0Z"/>
                </g>
                <g>
                  <path class="st7" d="M38.17,15.05c-.19,0-.34-.15-.34-.34s.15-.34.34-.34.34.15.34.34-.15.34-.34.34Z"/>
                  <path class="st7" d="M38.17,14.62s.09.04.09.09-.04.09-.09.09-.09-.04-.09-.09.04-.09.09-.09M38.17,14.12c-.32,0-.58.26-.58.58s.26.58.58.58.58-.26.58-.58-.26-.58-.58-.58h0Z"/>
                </g>
                <g>
                  <path class="st7" d="M37.6,14.27c-.19,0-.34-.15-.34-.34s.15-.34.34-.34.34.15.34.34-.15.34-.34.34Z"/>
                  <path class="st7" d="M37.6,13.84s.09.04.09.09-.04.09-.09.09-.09-.04-.09-.09.04-.09.09-.09M37.6,13.35c-.32,0-.58.26-.58.58s.26.58.58.58.58-.26.58-.58-.26-.58-.58-.58h0Z"/>
                </g>
                <g>
                  <ellipse class="st7" cx="26.42" cy="22.21" rx=".26" ry=".34"/>
                  <path class="st7" d="M34.61,22.12s.09.04.09.09-.04.09-.09.09-.09-.04-.09-.09.04-.09.09-.09M34.61,21.62c-.32,0-.58.26-.58.58s.26.58.58.58.58-.26.58-.58-.26-.58-.58-.58h0Z"/>
                </g>
                <g>
                  <ellipse class="st7" cx="26.9" cy="22.12" rx=".26" ry=".34"/>
                  <path class="st7" d="M35.24,22.03s.09.04.09.09-.04.09-.09.09-.09-.04-.09-.09.04-.09.09-.09M35.24,21.53c-.32,0-.58.26-.58.58s.26.58.58.58.58-.26.58-.58-.26-.58-.58-.58h0Z"/>
                </g>
                <g>
                  <ellipse class="st7" cx="27.42" cy="22.11" rx=".26" ry=".34"/>
                  <path class="st7" d="M35.92,22.02s.09.04.09.09-.04.09-.09.09-.09-.04-.09-.09.04-.09.09-.09M35.92,21.53c-.32,0-.58.26-.58.58s.26.58.58.58.58-.26.58-.58-.26-.58-.58-.58h0Z"/>
                </g>
                <g>
                  <path class="st7" d="M36.62,22.12c-.19,0-.34-.15-.34-.34s.15-.34.34-.34.34.15.34.34-.15.34-.34.34Z"/>
                  <path class="st7" d="M36.62,21.69s.09.04.09.09-.04.09-.09.09-.09-.04-.09-.09.04-.09.09-.09M36.62,21.2c-.32,0-.58.26-.58.58s.26.58.58.58.58-.26.58-.58-.26-.58-.58-.58h0Z"/>
                </g>
                <g>
                  <path class="st7" d="M37.42,21.85c-.19,0-.34-.15-.34-.34s.15-.34.34-.34.34.15.34.34-.15.34-.34.34Z"/>
                  <path class="st7" d="M37.42,21.42s.09.04.09.09-.04.09-.09.09-.09-.04-.09-.09.04-.09.09-.09M37.42,20.93c-.32,0-.58.26-.58.58s.26.58.58.58.58-.26.58-.58-.26-.58-.58-.58h0Z"/>
                </g>
                <g>
                  <ellipse class="st7" cx="29.11" cy="21.07" rx=".26" ry=".34"/>
                  <path class="st7" d="M38.13,20.98s.09.04.09.09-.04.09-.09.09-.09-.04-.09-.09.04-.09.09-.09M38.13,20.48c-.32,0-.58.26-.58.58s.26.58.58.58.58-.26.58-.58-.26-.58-.58-.58h0Z"/>
                </g>
                <g>
                  <path class="st7" d="M38.59,20.57c-.19,0-.34-.15-.34-.34s.15-.34.34-.34.34.15.34.34-.15.34-.34.34Z"/>
                  <path class="st7" d="M38.59,20.14s.09.04.09.09-.04.09-.09.09-.09-.04-.09-.09.04-.09.09-.09M38.59,19.65c-.32,0-.58.26-.58.58s.26.58.58.58.58-.26.58-.58-.26-.58-.58-.58h0Z"/>
                </g>
                <g>
                  <ellipse class="st7" cx="29.82" cy="19.44" rx=".26" ry=".34"/>
                  <path class="st7" d="M39.06,19.35s.09.04.09.09-.04.09-.09.09-.09-.04-.09-.09.04-.09.09-.09M39.06,18.86c-.32,0-.58.26-.58.58s.26.58.58.58.58-.26.58-.58-.26-.58-.58-.58h0Z"/>
                </g>
                <g>
                  <ellipse class="st7" cx="30.02" cy="18.46" rx=".26" ry=".34"/>
                  <path class="st7" d="M39.33,18.37s.09.04.09.09-.04.09-.09.09-.09-.04-.09-.09.04-.09.09-.09M39.33,17.88c-.32,0-.58.26-.58.58s.26.58.58.58.58-.26.58-.58-.26-.58-.58-.58h0Z"/>
                </g>
                <g>
                  <path class="st7" d="M39.63,17.86c-.19,0-.34-.15-.34-.34s.15-.34.34-.34.34.15.34.34-.15.34-.34.34Z"/>
                  <path class="st7" d="M39.63,17.43s.09.04.09.09-.04.09-.09.09-.09-.04-.09-.09.04-.09.09-.09M39.63,16.94c-.32,0-.58.26-.58.58s.26.58.58.58.58-.26.58-.58-.26-.58-.58-.58h0Z"/>
                </g>
                <g>
                  <ellipse class="st7" cx="30.25" cy="16.61" rx=".26" ry=".34"/>
                  <path class="st7" d="M39.63,16.52s.09.04.09.09-.04.09-.09.09-.09-.04-.09-.09.04-.09.09-.09M39.63,16.03c-.32,0-.58.26-.58.58s.26.58.58.58.58-.26.58-.58-.26-.58-.58-.58h0Z"/>
                </g>
                <g>
                  <path class="st7" d="M39.42,16.01c-.19,0-.34-.15-.34-.34s.15-.34.34-.34.34.15.34.34-.15.34-.34.34Z"/>
                  <path class="st7" d="M39.42,15.58s.09.04.09.09-.04.09-.09.09-.09-.04-.09-.09.04-.09.09-.09M39.42,15.09c-.32,0-.58.26-.58.58s.26.58.58.58.58-.26.58-.58-.26-.58-.58-.58h0Z"/>
                </g>
                <g>
                  <ellipse class="st7" cx="29.75" cy="14.8" rx=".26" ry=".34"/>
                  <path class="st7" d="M38.97,14.71s.09.04.09.09-.04.09-.09.09-.09-.04-.09-.09.04-.09.09-.09M38.97,14.21c-.32,0-.58.26-.58.58s.26.58.58.58.58-.26.58-.58-.26-.58-.58-.58h0Z"/>
                </g>
                <g>
                  <ellipse class="st7" cx="29.31" cy="13.95" rx=".26" ry=".34"/>
                  <path class="st7" d="M38.4,13.86s.09.04.09.09-.04.09-.09.09-.09-.04-.09-.09.04-.09.09-.09M38.4,13.37c-.32,0-.58.26-.58.58s.26.58.58.58.58-.26.58-.58-.26-.58-.58-.58h0Z"/>
                </g>
                <g>
                  <ellipse class="st7" cx="28.89" cy="13.18" rx=".26" ry=".34"/>
                  <path class="st7" d="M37.85,13.09s.09.04.09.09-.04.09-.09.09-.09-.04-.09-.09.04-.09.09-.09M37.85,12.59c-.32,0-.58.26-.58.58s.26.58.58.58.58-.26.58-.58-.26-.58-.58-.58h0Z"/>
                </g>
                <g>
                  <ellipse class="st7" cx="26.13" cy="22.62" rx=".26" ry=".34"/>
                  <path class="st7" d="M34.23,22.53s.09.04.09.09-.04.09-.09.09-.09-.04-.09-.09.04-.09.09-.09M34.23,22.03c-.32,0-.58.26-.58.58s.26.58.58.58.58-.26.58-.58-.26-.58-.58-.58h0Z"/>
                </g>
                <g>
                  <ellipse class="st7" cx="26.59" cy="22.66" rx=".26" ry=".34"/>
                  <path class="st7" d="M34.83,22.57s.09.04.09.09-.04.09-.09.09-.09-.04-.09-.09.04-.09.09-.09M34.83,22.07c-.32,0-.58.26-.58.58s.26.58.58.58.58-.26.58-.58-.26-.58-.58-.58h0Z"/>
                </g>
                <g>
                  <ellipse class="st7" cx="27.14" cy="22.53" rx=".26" ry=".34"/>
                  <path class="st7" d="M35.56,22.44s.09.04.09.09-.04.09-.09.09-.09-.04-.09-.09.04-.09.09-.09M35.56,21.94c-.32,0-.58.26-.58.58s.26.58.58.58.58-.26.58-.58-.26-.58-.58-.58h0Z"/>
                </g>
                <g>
                  <ellipse class="st7" cx="27.76" cy="22.39" rx=".26" ry=".34"/>
                  <path class="st7" d="M36.37,22.3s.09.04.09.09-.04.09-.09.09-.09-.04-.09-.09.04-.09.09-.09M36.37,21.8c-.32,0-.58.26-.58.58s.26.58.58.58.58-.26.58-.58-.26-.58-.58-.58h0Z"/>
                </g>
                <g>
                  <path class="st7" d="M37.24,22.36c-.19,0-.34-.15-.34-.34s.15-.34.34-.34.34.15.34.34-.15.34-.34.34Z"/>
                  <path class="st7" d="M37.24,21.93s.09.04.09.09-.04.09-.09.09-.09-.04-.09-.09.04-.09.09-.09M37.24,21.44c-.32,0-.58.26-.58.58s.26.58.58.58.58-.26.58-.58-.26-.58-.58-.58h0Z"/>
                </g>
                <g>
                  <ellipse class="st7" cx="29.04" cy="21.69" rx=".26" ry=".34"/>
                  <path class="st7" d="M38.04,21.6s.09.04.09.09-.04.09-.09.09-.09-.04-.09-.09.04-.09.09-.09M38.04,21.11c-.32,0-.58.26-.58.58s.26.58.58.58.58-.26.58-.58-.26-.58-.58-.58h0Z"/>
                </g>
                <g>
                  <ellipse class="st7" cx="29.53" cy="20.98" rx=".26" ry=".34"/>
                  <path class="st7" d="M38.68,20.89s.09.04.09.09-.04.09-.09.09-.09-.04-.09-.09.04-.09.09-.09M38.68,20.39c-.32,0-.58.26-.58.58s.26.58.58.58.58-.26.58-.58-.26-.58-.58-.58h0Z"/>
                </g>
                <g>
                  <path class="st7" d="M39.24,20.48c-.19,0-.34-.15-.34-.34s.15-.34.34-.34.34.15.34.34-.15.34-.34.34Z"/>
                  <path class="st7" d="M39.24,20.05s.09.04.09.09-.04.09-.09.09-.09-.04-.09-.09.04-.09.09-.09M39.24,19.56c-.32,0-.58.26-.58.58s.26.58.58.58.58-.26.58-.58-.26-.58-.58-.58h0Z"/>
                </g>
                <g>
                  <ellipse class="st7" cx="30.32" cy="19.19" rx=".26" ry=".34"/>
                  <path class="st7" d="M39.72,19.1s.09.04.09.09-.04.09-.09.09-.09-.04-.09-.09.04-.09.09-.09M39.72,18.61c-.32,0-.58.26-.58.58s.26.58.58.58.58-.26.58-.58-.26-.58-.58-.58h0Z"/>
                </g>
                <g>
                  <path class="st7" d="M39.99,18.46c-.19,0-.34-.15-.34-.34s.15-.34.34-.34.34.15.34.34-.15.34-.34.34Z"/>
                  <path class="st7" d="M39.99,18.03s.09.04.09.09-.04.09-.09.09-.09-.04-.09-.09.04-.09.09-.09M39.99,17.54c-.32,0-.58.26-.58.58s.26.58.58.58.58-.26.58-.58-.26-.58-.58-.58h0Z"/>
                </g>
                <g>
                  <ellipse class="st7" cx="30.57" cy="17" rx=".26" ry=".34"/>
                  <path class="st7" d="M40.05,16.91s.09.04.09.09-.04.09-.09.09-.09-.04-.09-.09.04-.09.09-.09M40.05,16.41c-.32,0-.58.26-.58.58s.26.58.58.58.58-.26.58-.58-.26-.58-.58-.58h0Z"/>
                </g>
                <g>
                  <path class="st7" d="M39.9,16.37c-.19,0-.34-.15-.34-.34s.15-.34.34-.34.34.15.34.34-.15.34-.34.34Z"/>
                  <path class="st7" d="M39.9,15.94s.09.04.09.09-.04.09-.09.09-.09-.04-.09-.09.04-.09.09-.09M39.9,15.44c-.32,0-.58.26-.58.58s.26.58.58.58.58-.26.58-.58-.26-.58-.58-.58h0Z"/>
                </g>
                <g>
                  <ellipse class="st7" cx="30.28" cy="15.07" rx=".26" ry=".34"/>
                  <path class="st7" d="M39.67,14.98s.09.04.09.09-.04.09-.09.09-.09-.04-.09-.09.04-.09.09-.09M39.67,14.49c-.32,0-.58.26-.58.58s.26.58.58.58.58-.26.58-.58-.26-.58-.58-.58h0Z"/>
                </g>
                <g>
                  <ellipse class="st7" cx="29.88" cy="13.95" rx=".26" ry=".34"/>
                  <path class="st7" d="M39.15,13.86s.09.04.09.09-.04.09-.09.09-.09-.04-.09-.09.04-.09.09-.09M39.15,13.37c-.32,0-.58.26-.58.58s.26.58.58.58.58-.26.58-.58-.26-.58-.58-.58h0Z"/>
                </g>
                <g>
                  <ellipse class="st7" cx="29.31" cy="12.9" rx=".26" ry=".34"/>
                  <path class="st7" d="M38.4,12.81s.09.04.09.09-.04.09-.09.09-.09-.04-.09-.09.04-.09.09-.09M38.4,12.32c-.32,0-.58.26-.58.58s.26.58.58.58.58-.26.58-.58-.26-.58-.58-.58h0Z"/>
                </g>
                <g>
                  <ellipse class="st7" cx="28.49" cy="12.09" rx=".26" ry=".34"/>
                  <path class="st7" d="M37.33,12s.09.04.09.09-.04.09-.09.09-.09-.04-.09-.09.04-.09.09-.09M37.33,11.51c-.32,0-.58.26-.58.58s.26.58.58.58.58-.26.58-.58-.26-.58-.58-.58h0Z"/>
                </g>
              </g>
            </g>
          </g>
        </g>
      </g>
    </g>
    <g id="Eye">
      <g>
        <path class="st7" d="M32.88,16.01c-.66,0-1.19-.16-1.53-.47-1.13-1.02.08-3.2,1.18-4.42.66-.73,1.54-1.15,2.43-1.15.61,0,1.15.2,1.57.58,1.06.96,1,2.77-.14,4.04-.73.81-2.23,1.42-3.51,1.42Z"/>
        <path class="st7" d="M34.96,10.22c.52,0,1.02.17,1.41.52.96.87.89,2.52-.16,3.69-.71.79-2.16,1.33-3.33,1.33-.56,0-1.05-.12-1.36-.41-.96-.87.14-2.9,1.2-4.07.63-.7,1.47-1.07,2.24-1.07M34.96,9.73h0c-.95,0-1.91.45-2.61,1.23-.63.7-1.17,1.56-1.45,2.3-.51,1.36-.12,2.09.29,2.46.39.35.97.53,1.69.53,1.36,0,2.91-.63,3.69-1.5.59-.65.93-1.46.96-2.27.04-.85-.26-1.6-.84-2.12-.47-.42-1.07-.64-1.74-.64h0Z"/>
      </g>
      <g>
        <path class="st7" d="M34.7,13.88c-.78,0-1.41-.63-1.41-1.41s.63-1.41,1.41-1.41,1.41.63,1.41,1.41-.63,1.41-1.41,1.41Z"/>
        <path class="st7" d="M34.7,11.3c.64,0,1.17.52,1.17,1.17s-.52,1.17-1.17,1.17-1.17-.52-1.17-1.17.52-1.17,1.17-1.17M34.7,10.81c-.92,0-1.66.75-1.66,1.66s.74,1.66,1.66,1.66,1.66-.75,1.66-1.66-.74-1.66-1.66-1.66h0Z"/>
      </g>
      <g>
        <path class="st7" d="M35.15,13.56c-.32,0-.57-.26-.57-.57s.26-.57.57-.57.57.26.57.57-.26.57-.57.57Z"/>
        <path class="st7" d="M35.15,12.67c.18,0,.32.15.32.32s-.15.32-.32.32-.32-.15-.32-.32.15-.32.32-.32M35.15,12.17c-.45,0-.82.37-.82.82s.37.82.82.82.82-.37.82-.82-.37-.82-.82-.82h0Z"/>
      </g>
    </g>
    <g id="Outline">
      <path class="st7" d="M27.15,61.83c-.28,0-.56-.04-.82-.13-.83-.28-1.4-.93-1.7-1.94-1.2-4.03,2.17-12.64,7.68-19.66-5.48-6.98-2.53-12.84.67-17.17.28-.41-.04-2.17-2.51-3.99-.05-.04-.09-.1-.1-.17,0-.07,0-.13.05-.19l.09-.11c1.04-1.31,4.19-5.31-.58-9.31-.58-.93-.62-1.9-.16-2.72.39-.7,1.1-1.17,1.77-1.17.82,0,1.3.48,1.54.89.16-.09.36-.16.62-.16.24,0,.49.06.76.18.73.32,1.1.96,1.27,1.36.2-.12.5-.25.88-.25.15,0,.31.02.48.06.8.2,1.18,1.16,1.33,1.65.2-.06.48-.13.79-.13.35,0,.67.09.94.26.61.38.84,1.07.92,1.48.13-.04.3-.07.49-.07.38,0,.95.13,1.47.74.88,1.04.47,2.84.34,3.31,3.17,4.98,4.11,9.94,2.79,14.73-1.47,5.31-5.59,9.44-9.08,11.22-1.01,11.35-5.64,21.28-9.93,21.28h0Z"/>
      <path class="st7" d="M31.54,5.53c1.15,0,1.45,1.05,1.45,1.05,0,0,.21-.32.72-.32.18,0,.4.04.66.16.99.43,1.25,1.54,1.25,1.54,0,0,.35-.41,1-.41.13,0,.27.02.42.05.92.23,1.22,1.74,1.22,1.74,0,0,.44-.22.96-.22.26,0,.55.05.81.22.79.49.85,1.61.85,1.61,0,0,.29-.16.69-.16.37,0,.84.14,1.28.65.92,1.08.26,3.19.26,3.19,8.38,13.05-.77,23.03-6.25,25.76-1.04,12-5.85,21.19-9.7,21.19-.25,0-.5-.04-.74-.12-3.94-1.31-1.05-12.19,6.21-21.36-5.82-7.26-2.23-13.24.56-17.02.35-.53.07-2.4-2.56-4.34.95-1.22,4.57-5.49-.53-9.76-1.08-1.77.3-3.45,1.45-3.45M31.54,5.04c-.76,0-1.54.51-1.98,1.3-.5.9-.46,1.96.12,2.9.03.05.06.09.1.12,4.11,3.45,2.28,6.77.54,8.97l-.09.11c-.08.1-.12.24-.1.37s.09.25.2.33c2.43,1.79,2.62,3.4,2.45,3.66-3.22,4.35-6.2,10.25-.78,17.3-5.48,7.05-8.81,15.66-7.6,19.73.32,1.08.96,1.8,1.86,2.1.29.1.59.15.9.15,4.39,0,9.11-9.95,10.16-21.37,3.51-1.84,7.61-5.99,9.08-11.31,1.33-4.83.4-9.82-2.76-14.84.15-.62.48-2.37-.42-3.43-.58-.68-1.22-.83-1.66-.83-.11,0-.21,0-.31.02-.13-.45-.4-1.04-.97-1.4-.31-.2-.67-.29-1.07-.29-.23,0-.45.03-.63.08-.2-.56-.62-1.38-1.43-1.58-.18-.04-.36-.07-.53-.07-.31,0-.56.07-.77.16-.22-.43-.62-.96-1.28-1.25-.3-.13-.59-.2-.86-.2-.21,0-.39.04-.53.09-.3-.42-.83-.83-1.63-.83h-.01Z"/>
    </g>
    <g id="Beak">
      <g id="Beak-2">
        <g>
          <path class="st7" d="M12.41,22.03c-1.96,0-2.75-.15-2.78-.16-.09-.02-.16-.08-.19-.17s0-.18.05-.24,5.13-5.34,16.45-5.8c-1.45-.18-2.91-.28-4.35-.28-9.41,0-15.71,3.9-15.77,3.94-.04.03-.09.04-.13.04-.06,0-.11-.02-.16-.06-.08-.07-.11-.18-.07-.28,3.13-8.14,12.95-11.03,20.4-11.03,1.66,0,3.07.16,3.86.44,1.86.65,3.57,3.14,3.97,5.79.35,2.34-.37,4.35-1.98,5.53-.03.02-.06.04-.1.04-10.15,1.84-16.04,2.23-19.2,2.23h0Z"/>
          <path class="st7" d="M25.86,8.25c1.72,0,3.07.17,3.78.42,3.25,1.13,5.82,8.03,1.92,10.89-10.25,1.86-16.12,2.22-19.16,2.22-1.96,0-2.73-.15-2.73-.15,0,0,5.39-5.75,17.84-5.75.43,0,.87,0,1.32.02-2.57-.54-5.01-.76-7.26-.76-9.6,0-15.9,3.98-15.9,3.98,3.35-8.69,14.07-10.87,20.17-10.87M25.86,7.75c-7.53,0-17.45,2.93-20.63,11.19-.08.2-.02.42.15.56.09.07.2.11.31.11.09,0,.18-.03.26-.08.06-.04,6.31-3.9,15.64-3.9.43,0,.87,0,1.3.02-9.25,1.14-13.38,5.43-13.57,5.64-.12.13-.16.32-.11.49.06.17.2.3.38.33.03,0,.84.16,2.82.16,3.17,0,9.08-.39,19.24-2.23.07-.01.14-.04.2-.09,1.68-1.24,2.44-3.34,2.08-5.77-.42-2.78-2.15-5.3-4.13-5.99-.82-.29-2.26-.45-3.95-.45h0Z"/>
        </g>
        <g>
          <path class="st7" d="M5.69,19.12C9.98,7.98,26.39,7.54,29.65,8.67s5.82,8.03,1.92,10.89c-16.86,3.06-21.89,2.07-21.89,2.07,0,0,5.77-6.16,19.17-5.73-13.55-2.84-23.16,3.22-23.16,3.22Z"/>
          <g class="st8">
            <g>
              <g>
                <path class="st7" d="M5.02,21.29s-.07,0-.1-.02c-.1-.05-.16-.16-.14-.27,1.87-10.76,14.23-13.6,20.51-13.6,2.47,0,4.45.37,5.43,1.02,1.3.85,2.72,1.5,3.67,1.94,1.12.51,1.39.63,1.32.93-.06.26-.38.26-.59.26-.43,0-1.23-.07-2.87-.25-1.38-.15-3.22-.33-5.24-.33-8.86,0-15.99,3.35-21.8,10.24-.05.06-.12.09-.19.09h0Z"/>
                <path class="st7" d="M25.29,7.64c2.44,0,4.38.37,5.3.98,2.75,1.81,5.97,2.68,4.53,2.68-.45,0-1.34-.08-2.84-.25s-3.29-.33-5.27-.33c-6.35,0-14.69,1.68-21.99,10.32,1.76-10.17,13.12-13.4,20.27-13.4M25.29,7.15v.49-.49h0c-6.35,0-18.86,2.89-20.76,13.81-.04.22.08.44.28.53.07.03.14.05.21.05.14,0,.28-.06.38-.18,5.76-6.83,12.83-10.15,21.61-10.15,2.01,0,3.84.17,5.21.33,1.64.18,2.45.25,2.89.25.22,0,.74,0,.84-.46.11-.49-.26-.66-1.46-1.21-.94-.43-2.35-1.08-3.63-1.92-1.02-.67-3.05-1.06-5.57-1.06h0Z"/>
              </g>
              <g>
                <path class="st7" d="M11.99,18.14c-.3,0-.72-.04-.84-.36-.13-.35.17-.79,1.06-1.58,3.92-3.43,12.92-3.7,15.59-3.7,1.92,0,5.66.16,6.08.76.69.98.04,2.66-.27,3.47-.04.09-.14.2-.24.21h-.29c-.64,0-1.15-.1-1.68-.21-.19-.04-.38-.08-.59-.11-.44-.07-.85-.19-1.29-.32-.31-.09-.62-.18-.94-.25-.44-.02-.93-.03-1.41-.03-4.03,0-8.22.85-11.29,1.47-1.75.35-3.12.63-3.89.63v.02Z"/>
                <path class="st7" d="M27.79,12.76c3.2,0,5.64.32,5.88.66.62.89-.03,2.54-.32,3.29h-.28c-.84,0-1.46-.18-2.23-.31-.74-.12-1.43-.39-2.22-.56-.49-.03-.98-.04-1.47-.04-6.36,0-13.13,2.1-15.18,2.1-.88,0-.89-.39.38-1.5,3.23-2.82,10.31-3.63,15.42-3.63M27.79,12.26c-2.69,0-11.77.27-15.75,3.76-.85.74-1.33,1.31-1.13,1.85.2.52.86.52,1.07.52.79,0,2.18-.28,3.94-.64,3.05-.62,7.23-1.47,11.24-1.47.48,0,.95.01,1.4.04.31.07.6.16.89.24.42.12.86.25,1.31.32.2.03.39.07.58.11.52.1,1.06.21,1.73.21h.3c.2,0,.37-.13.44-.32l.02-.05c.33-.85,1.01-2.61.24-3.7-.57-.81-4.95-.87-6.28-.87h0Z"/>
              </g>
              <g>
                <path class="st7" d="M10.72,22.89c-2.62,0-3.77-.42-3.82-.44-.11-.04-.17-.15-.16-.26.01-.11.1-.2.21-.22.2-.03.82-.51,1.42-.98,1.23-.96,2.91-2.28,4.62-2.82.02,0,.05-.01.07-.01.07,0,.13.03.18.08.06.07.08.17.05.26-.33.78-.35,1.42-.08,1.94.36.69,1.24,1.21,2.64,1.53.12.03.2.13.19.25,0,.12-.09.22-.21.23-1.86.28-3.58.43-5.11.43h0Z"/>
                <path class="st7" d="M13.06,18.41h0M13.06,18.41c-.52,1.25-.69,3.02,2.73,3.81-2.09.32-3.77.42-5.07.42-2.61,0-3.74-.42-3.74-.42.71-.1,3.4-2.96,6.08-3.81M13.06,17.92h-.03c-.05,0-.09.01-.13.03-1.75.56-3.45,1.89-4.69,2.86-.5.39-1.13.88-1.31.93-.22.03-.39.21-.41.44-.02.22.11.44.32.51.05.02,1.24.46,3.91.46,1.54,0,3.27-.14,5.14-.43.23-.04.41-.23.42-.47,0-.24-.15-.45-.38-.5-1.32-.31-2.15-.78-2.47-1.4-.23-.45-.21-1.01.08-1.7.04-.07.06-.15.06-.23,0-.27-.22-.49-.49-.49h-.02ZM13.06,18.91h0Z"/>
              </g>
            </g>
          </g>
        </g>
        <g>
          <path class="st7" d="M12.41,22.03c-1.96,0-2.75-.15-2.78-.16-.09-.02-.16-.08-.19-.17s0-.18.05-.24,5.13-5.34,16.45-5.8c-1.45-.18-2.91-.28-4.35-.28-9.41,0-15.71,3.9-15.77,3.94-.04.03-.09.04-.13.04-.06,0-.11-.02-.16-.06-.08-.07-.11-.18-.07-.28,3.13-8.14,12.95-11.03,20.4-11.03,1.66,0,3.07.16,3.86.44,1.86.65,3.57,3.14,3.97,5.79.35,2.34-.37,4.35-1.98,5.53-.03.02-.06.04-.1.04-10.15,1.84-16.04,2.23-19.2,2.23h0Z"/>
          <path class="st7" d="M25.86,8.25c1.72,0,3.07.17,3.78.42,3.25,1.13,5.82,8.03,1.92,10.89-10.25,1.86-16.12,2.22-19.16,2.22-1.96,0-2.73-.15-2.73-.15,0,0,5.39-5.75,17.84-5.75.43,0,.87,0,1.32.02-2.57-.54-5.01-.76-7.26-.76-9.6,0-15.9,3.98-15.9,3.98,3.35-8.69,14.07-10.87,20.17-10.87M25.86,7.75c-7.53,0-17.45,2.93-20.63,11.19-.08.2-.02.42.15.56.09.07.2.11.31.11.09,0,.18-.03.26-.08.06-.04,6.31-3.9,15.64-3.9.43,0,.87,0,1.3.02-9.25,1.14-13.38,5.43-13.57,5.64-.12.13-.16.32-.11.49.06.17.2.3.38.33.03,0,.84.16,2.82.16,3.17,0,9.08-.39,19.24-2.23.07-.01.14-.04.2-.09,1.68-1.24,2.44-3.34,2.08-5.77-.42-2.78-2.15-5.3-4.13-5.99-.82-.29-2.26-.45-3.95-.45h0Z"/>
        </g>
      </g>
      <path class="st4" d="M28.45,15.84c1.03.15,3.37.95,4.91.86"/>
    </g>
  </g>
  <g id="Bird-2">
    <g id="legs_Feet-2">
      <g>
        <g>
          <polyline class="st2" points="36.1 41.05 36.1 42.82 37.85 41.93"/>
          <line class="st2" x1="28.49" y1="44.31" x2="27.56" y2="42.82"/>
          <polyline class="st2" points="39.24 40.81 39.7 42.63 41.77 41.93"/>
          <polyline class="st2" points="41.63 43.75 39.7 42.63 38.06 44.5"/>
        </g>
        <line class="st2" x1="30.3" y1="42.63" x2="30.56" y2="44.5"/>
      </g>
      <path class="st5" d="M36.1,41.05c1.64,0,2.77-1.68,5.14-9.67-1.87,0-8.89,2.44-8.89,2.44,0,0,2.11,7.23,3.75,7.23Z"/>
      <path class="st5" d="M39.15,41.05c1.64,0,2.77-1.68,5.14-9.67-1.87,0-8.89,2.44-8.89,2.44,0,0,2.11,7.23,3.75,7.23Z"/>
    </g>
    <g id="Body-2">
      <path class="st7" d="M30.09,8.98c-1.08-1.77.3-3.45,1.45-3.45s1.45,1.05,1.45,1.05c0,0,.39-.59,1.38-.16s1.25,1.54,1.25,1.54c0,0,.49-.59,1.41-.36s1.22,1.74,1.22,1.74c0,0,.99-.49,1.77,0s.85,1.61.85,1.61c0,0,1.05-.59,1.97.49s.26,3.19.26,3.19c8.38,13.05-.77,23.03-6.25,25.76-1.11,12.79-6.5,22.38-10.44,21.07s-1.05-12.19,6.21-21.36c-5.82-7.26-2.23-13.24.56-17.02.35-.53.07-2.4-2.56-4.34.95-1.22,4.57-5.49-.53-9.76h0Z"/>
      <g>
        <path class="st7" d="M30.09,8.98c-1.08-1.77.3-3.45,1.45-3.45s1.45,1.05,1.45,1.05c0,0,.39-.59,1.38-.16s1.25,1.54,1.25,1.54c0,0,.49-.59,1.41-.36.92.23,1.22,1.74,1.22,1.74,0,0,.99-.49,1.77,0,.78.49.85,1.61.85,1.61,0,0,1.05-.59,1.97.49s.26,3.19.26,3.19c8.38,13.05-.77,23.03-6.25,25.76-1.11,12.79-6.5,22.38-10.44,21.07s-1.05-12.19,6.21-21.36c-5.82-7.26-2.23-13.24.56-17.02.35-.53.07-2.4-2.56-4.34.95-1.22,4.57-5.49-.53-9.76h0Z"/>
        <g class="st10">
          <g>
            <polygon class="st7" points="30.58 39.18 40.05 41.05 32.17 64.12 22.3 62.74 24.64 41.93 30.58 39.18"/>
            <polygon class="st7" points="31.77 35.43 35.56 25.22 45.67 25.87 38.97 38.05 35.22 38.59 31.77 35.43"/>
            <g>
              <path class="st7" d="M40.51,40.34c-1.11,1.51-2.51-.95-7.08.15-2.8-1.43-4.16-3.82-3.05-5.34s4.29-1.58,7.08-.15,4.16,3.82,3.05,5.34Z"/>
              <path class="st7" d="M32.7,40.05c.03-1.03.92-2.36,2.16-2.33s2.05,1.47,2.02,2.51c-.09.71-.88,1.27-2.12,1.24s-1.94-.54-2.06-1.41h0Z"/>
            </g>
            <path class="st7" d="M47.41,22.39c-.12-2.07-1.61-3.38-4.99-3.2-4.38.26-6.43,1.89-6.31,3.96.07,1.23-.51,2.39,1.49,2.96.25,1.05.81,1.9,1.66,2.36,1.34.72,3.25-.4,4.88-2.1,3.49-.59,3.38-2.19,3.28-3.97h0Z"/>
            <path class="st7" d="M48.4,24.7c.16.18.28.39.37.61.71.18,1.33.72,1.69,1.06,1.39,1.3-.23,5.28-3.61,8.88s-7.77,3.51-9.16,2.21c-1.39-1.3.51-3.97,3.89-7.57.02-.02.04-.04.06-.07.79-.84,1.29-1.9,1.49-3.03.13-.73.54-1.47,1.2-2.03,1.32-1.12,3.14-1.15,4.07-.06Z"/>
            <path class="st7" d="M36.46,22.21c-.24-.05-.48-.05-.71-.02-.51-.52-1.28-.8-1.76-.95-1.82-.56-4.48,2.81-5.94,7.53-1.46,4.72.79,8.49,2.6,9.05,1.82.56,3.2-2.4,4.66-7.12,0-.03.02-.06.03-.09.34-1.1,1.01-2.06,1.9-2.79.57-.47,1.01-1.19,1.17-2.05.33-1.7-.55-3.3-1.96-3.57h.01Z"/>
            <g id="Cheek-2">
              <path class="st7" d="M40.17,15.74c.75,3.18-.76,6.25-3.36,6.87-1.55.37-3.69.57-4.88-.64-.8-.82-.89-2.72-1.19-4-.75-3.18.76-6.25,3.36-6.87s5.32,1.47,6.07,4.65h0Z"/>
              <g id="Dots-2">
                <ellipse class="st7" cx="25.59" cy="22.53" rx=".07" ry=".09"/>
                <ellipse class="st7" cx="25.88" cy="22.2" rx=".07" ry=".09"/>
                <ellipse class="st7" cx="25.59" cy="21.69" rx=".07" ry=".09"/>
                <ellipse class="st7" cx="26.2" cy="21.78" rx=".07" ry=".09"/>
                <ellipse class="st7" cx="25.88" cy="21.33" rx=".07" ry=".09"/>
                <ellipse class="st7" cx="26.42" cy="21.24" rx=".07" ry=".09"/>
                <ellipse class="st7" cx="26.06" cy="20.86" rx=".07" ry=".09"/>
                <ellipse class="st7" cx="25.43" cy="21.15" rx=".07" ry=".09"/>
                <ellipse class="st7" cx="26.95" cy="21.19" rx=".07" ry=".09"/>
                <ellipse class="st7" cx="26.62" cy="20.77" rx=".07" ry=".09"/>
                <ellipse class="st7" cx="27.21" cy="20.62" rx=".07" ry=".09"/>
                <ellipse class="st7" cx="27.69" cy="20.44" rx=".07" ry=".09"/>
                <ellipse class="st7" cx="28.2" cy="19.94" rx=".07" ry=".09"/>
                <ellipse class="st7" cx="28.56" cy="19.37" rx=".07" ry=".09"/>
                <ellipse class="st7" cx="28.84" cy="18.57" rx=".07" ry=".09"/>
                <ellipse class="st7" cx="28.91" cy="17.71" rx=".07" ry=".09"/>
                <ellipse class="st7" cx="28.89" cy="17" rx=".07" ry=".09"/>
                <ellipse class="st7" cx="28.82" cy="16.21" rx=".07" ry=".09"/>
                <ellipse class="st7" cx="28.56" cy="15.39" rx=".07" ry=".09"/>
                <ellipse class="st7" cx="28.2" cy="14.89" rx=".07" ry=".09"/>
                <ellipse class="st7" cx="27.69" cy="14.8" rx=".07" ry=".09"/>
                <ellipse class="st7" cx="28.1" cy="15.57" rx=".07" ry=".09"/>
                <ellipse class="st7" cx="28.36" cy="16.12" rx=".07" ry=".09"/>
                <ellipse class="st7" cx="28.49" cy="16.79" rx=".07" ry=".09"/>
                <ellipse class="st7" cx="28.56" cy="17.5" rx=".07" ry=".09"/>
                <ellipse class="st7" cx="28.56" cy="18.14" rx=".07" ry=".09"/>
                <ellipse class="st7" cx="28.36" cy="18.92" rx=".07" ry=".09"/>
                <ellipse class="st7" cx="28.2" cy="19.44" rx=".07" ry=".09"/>
                <ellipse class="st7" cx="27.76" cy="19.94" rx=".07" ry=".09"/>
                <ellipse class="st7" cx="27.35" cy="20.12" rx=".07" ry=".09"/>
                <ellipse class="st7" cx="26.9" cy="20.35" rx=".07" ry=".09"/>
                <ellipse class="st7" cx="26.35" cy="20.44" rx=".07" ry=".09"/>
                <ellipse class="st7" cx="25.95" cy="20.35" rx=".07" ry=".09"/>
                <ellipse class="st7" cx="25.73" cy="19.94" rx=".07" ry=".09"/>
                <ellipse class="st7" cx="26.2" cy="20.12" rx=".07" ry=".09"/>
                <ellipse class="st7" cx="26.59" cy="20.03" rx=".07" ry=".09"/>
                <ellipse class="st7" cx="27.09" cy="19.89" rx=".07" ry=".09"/>
                <ellipse class="st7" cx="27.51" cy="19.66" rx=".07" ry=".09"/>
                <ellipse class="st7" cx="27.83" cy="19.35" rx=".07" ry=".09"/>
                <ellipse class="st7" cx="28.02" cy="18.83" rx=".07" ry=".09"/>
                <ellipse class="st7" cx="28.2" cy="18.3" rx=".07" ry=".09"/>
                <ellipse class="st7" cx="28.2" cy="17.75" rx=".07" ry=".09"/>
                <ellipse class="st7" cx="28.2" cy="17.17" rx=".07" ry=".09"/>
                <ellipse class="st7" cx="28.09" cy="16.61" rx=".07" ry=".09"/>
                <ellipse class="st7" cx="27.91" cy="16.12" rx=".07" ry=".09"/>
                <ellipse class="st7" cx="27.65" cy="15.48" rx=".07" ry=".09"/>
                <ellipse class="st7" cx="27.14" cy="15.39" rx=".07" ry=".09"/>
                <ellipse class="st7" cx="27.28" cy="16.03" rx=".07" ry=".09"/>
                <ellipse class="st7" cx="27.55" cy="16.52" rx=".07" ry=".09"/>
                <ellipse class="st7" cx="27.72" cy="17.17" rx=".07" ry=".09"/>
                <ellipse class="st7" cx="27.72" cy="17.66" rx=".07" ry=".09"/>
                <ellipse class="st7" cx="27.69" cy="18.3" rx=".07" ry=".09"/>
                <ellipse class="st7" cx="27.58" cy="18.8" rx=".07" ry=".09"/>
                <ellipse class="st7" cx="27.38" cy="19.19" rx=".07" ry=".09"/>
                <ellipse class="st7" cx="27.14" cy="19.46" rx=".07" ry=".09"/>
                <ellipse class="st7" cx="26.72" cy="19.66" rx=".07" ry=".09"/>
                <ellipse class="st7" cx="26.35" cy="19.75" rx=".07" ry=".09"/>
                <ellipse class="st7" cx="26.02" cy="19.71" rx=".07" ry=".09"/>
                <ellipse class="st7" cx="25.73" cy="19.37" rx=".07" ry=".09"/>
                <ellipse class="st7" cx="25.43" cy="19.19" rx=".07" ry=".09"/>
                <ellipse class="st7" cx="25.11" cy="19.01" rx=".07" ry=".09"/>
                <ellipse class="st7" cx="25.25" cy="18.37" rx=".07" ry=".09"/>
                <ellipse class="st7" cx="25.66" cy="18.75" rx=".07" ry=".09"/>
                <ellipse class="st7" cx="26.13" cy="19.13" rx=".07" ry=".09"/>
                <ellipse class="st7" cx="26.49" cy="19.22" rx=".07" ry=".09"/>
                <ellipse class="st7" cx="26.9" cy="19.04" rx=".07" ry=".09"/>
                <ellipse class="st7" cx="27.21" cy="18.74" rx=".07" ry=".09"/>
                <ellipse class="st7" cx="27.35" cy="18.12" rx=".07" ry=".09"/>
                <ellipse class="st7" cx="27.38" cy="17.43" rx=".07" ry=".09"/>
                <ellipse class="st7" cx="27.16" cy="16.88" rx=".07" ry=".09"/>
                <ellipse class="st7" cx="26.95" cy="15.88" rx=".07" ry=".09"/>
                <ellipse class="st7" cx="26.97" cy="16.48" rx=".07" ry=".09"/>
                <ellipse class="st7" cx="26.52" cy="15.7" rx=".07" ry=".09"/>
                <ellipse class="st7" cx="26.59" cy="16.21" rx=".07" ry=".09"/>
                <ellipse class="st7" cx="26.13" cy="15.88" rx=".07" ry=".09"/>
                <ellipse class="st7" cx="26.83" cy="16.79" rx=".07" ry=".09"/>
                <ellipse class="st7" cx="26.92" cy="17.36" rx=".07" ry=".09"/>
                <ellipse class="st7" cx="27.02" cy="17.89" rx=".07" ry=".09"/>
                <ellipse class="st7" cx="26.99" cy="18.37" rx=".07" ry=".09"/>
                <ellipse class="st7" cx="26.69" cy="18.68" rx=".07" ry=".09"/>
                <ellipse class="st7" cx="26.36" cy="18.59" rx=".07" ry=".09"/>
                <ellipse class="st7" cx="26.03" cy="18.33" rx=".07" ry=".09"/>
                <ellipse class="st7" cx="25.53" cy="17.89" rx=".07" ry=".09"/>
                <ellipse class="st7" cx="25.7" cy="17.12" rx=".07" ry=".09"/>
                <ellipse class="st7" cx="26.02" cy="16.97" rx=".07" ry=".09"/>
                <ellipse class="st7" cx="26.45" cy="17.17" rx=".07" ry=".09"/>
                <ellipse class="st7" cx="26.59" cy="18.19" rx=".07" ry=".09"/>
                <ellipse class="st7" cx="26.25" cy="17.98" rx=".07" ry=".09"/>
                <ellipse class="st7" cx="25.91" cy="17.68" rx=".07" ry=".09"/>
                <ellipse class="st7" cx="26.49" cy="17.66" rx=".07" ry=".09"/>
                <ellipse class="st7" cx="26.13" cy="16.39" rx=".07" ry=".09"/>
                <ellipse class="st7" cx="25.77" cy="16.21" rx=".07" ry=".09"/>
                <ellipse class="st7" cx="25.39" cy="19.71" rx=".07" ry=".09"/>
                <ellipse class="st7" cx="24.69" cy="19.28" rx=".07" ry=".09"/>
                <ellipse class="st7" cx="24.99" cy="19.53" rx=".07" ry=".09"/>
                <ellipse class="st7" cx="24.62" cy="19.8" rx=".07" ry=".09"/>
                <ellipse class="st7" cx="25.06" cy="20.03" rx=".07" ry=".09"/>
                <ellipse class="st7" cx="25.46" cy="20.23" rx=".07" ry=".09"/>
                <ellipse class="st7" cx="25.11" cy="20.53" rx=".07" ry=".09"/>
                <ellipse class="st7" cx="25.63" cy="20.71" rx=".07" ry=".09"/>
                <ellipse class="st7" cx="27.56" cy="21.1" rx=".07" ry=".09"/>
                <ellipse class="st7" cx="28.06" cy="20.62" rx=".07" ry=".09"/>
                <ellipse class="st7" cx="28.63" cy="20.35" rx=".07" ry=".09"/>
                <ellipse class="st7" cx="28.89" cy="19.75" rx=".07" ry=".09"/>
                <ellipse class="st7" cx="29.14" cy="19.01" rx=".07" ry=".09"/>
                <ellipse class="st7" cx="29.25" cy="18.12" rx=".07" ry=".09"/>
                <ellipse class="st7" cx="29.31" cy="17.34" rx=".07" ry=".09"/>
                <ellipse class="st7" cx="29.31" cy="16.7" rx=".07" ry=".09"/>
                <ellipse class="st7" cx="29.31" cy="16.03" rx=".07" ry=".09"/>
                <ellipse class="st7" cx="29.07" cy="15.39" rx=".07" ry=".09"/>
                <ellipse class="st7" cx="28.63" cy="14.64" rx=".07" ry=".09"/>
                <ellipse class="st7" cx="28.13" cy="14.13" rx=".07" ry=".09"/>
                <ellipse class="st7" cx="28.36" cy="13.27" rx=".07" ry=".09"/>
                <ellipse class="st7" cx="26.66" cy="21.69" rx=".07" ry=".09"/>
                <ellipse class="st7" cx="27.21" cy="21.69" rx=".07" ry=".09"/>
                <ellipse class="st7" cx="27.58" cy="21.6" rx=".07" ry=".09"/>
                <ellipse class="st7" cx="28.02" cy="21.16" rx=".07" ry=".09"/>
                <ellipse class="st7" cx="28.56" cy="20.89" rx=".07" ry=".09"/>
                <ellipse class="st7" cx="29.04" cy="20.44" rx=".07" ry=".09"/>
                <ellipse class="st7" cx="29.32" cy="19.53" rx=".07" ry=".09"/>
                <ellipse class="st7" cx="29.56" cy="18.75" rx=".07" ry=".09"/>
                <ellipse class="st7" cx="29.75" cy="17.8" rx=".07" ry=".09"/>
                <ellipse class="st7" cx="29.82" cy="17" rx=".07" ry=".09"/>
                <ellipse class="st7" cx="29.75" cy="16.3" rx=".07" ry=".09"/>
                <ellipse class="st7" cx="29.56" cy="15.48" rx=".07" ry=".09"/>
                <ellipse class="st7" cx="29.14" cy="14.71" rx=".07" ry=".09"/>
                <ellipse class="st7" cx="28.7" cy="13.93" rx=".07" ry=".09"/>
                <ellipse class="st7" cx="26.42" cy="22.21" rx=".07" ry=".09"/>
                <ellipse class="st7" cx="26.9" cy="22.12" rx=".07" ry=".09"/>
                <ellipse class="st7" cx="27.42" cy="22.11" rx=".07" ry=".09"/>
                <ellipse class="st7" cx="27.95" cy="21.78" rx=".07" ry=".09"/>
                <ellipse class="st7" cx="28.56" cy="21.51" rx=".07" ry=".09"/>
                <ellipse class="st7" cx="29.11" cy="21.07" rx=".07" ry=".09"/>
                <ellipse class="st7" cx="29.46" cy="20.23" rx=".07" ry=".09"/>
                <ellipse class="st7" cx="29.82" cy="19.44" rx=".07" ry=".09"/>
                <ellipse class="st7" cx="30.02" cy="18.46" rx=".07" ry=".09"/>
                <ellipse class="st7" cx="30.25" cy="17.52" rx=".07" ry=".09"/>
                <ellipse class="st7" cx="30.25" cy="16.61" rx=".07" ry=".09"/>
                <ellipse class="st7" cx="30.09" cy="15.67" rx=".07" ry=".09"/>
                <ellipse class="st7" cx="29.75" cy="14.8" rx=".07" ry=".09"/>
                <ellipse class="st7" cx="29.31" cy="13.95" rx=".07" ry=".09"/>
                <ellipse class="st7" cx="28.89" cy="13.18" rx=".07" ry=".09"/>
                <ellipse class="st7" cx="26.13" cy="22.62" rx=".07" ry=".09"/>
                <ellipse class="st7" cx="26.59" cy="22.66" rx=".07" ry=".09"/>
                <ellipse class="st7" cx="27.14" cy="22.53" rx=".07" ry=".09"/>
                <ellipse class="st7" cx="27.76" cy="22.39" rx=".07" ry=".09"/>
                <ellipse class="st7" cx="28.43" cy="22.02" rx=".07" ry=".09"/>
                <ellipse class="st7" cx="29.04" cy="21.69" rx=".07" ry=".09"/>
                <ellipse class="st7" cx="29.53" cy="20.98" rx=".07" ry=".09"/>
                <ellipse class="st7" cx="29.95" cy="20.14" rx=".07" ry=".09"/>
                <ellipse class="st7" cx="30.32" cy="19.19" rx=".07" ry=".09"/>
                <ellipse class="st7" cx="30.53" cy="18.12" rx=".07" ry=".09"/>
                <ellipse class="st7" cx="30.57" cy="17" rx=".07" ry=".09"/>
                <ellipse class="st7" cx="30.46" cy="16.03" rx=".07" ry=".09"/>
                <ellipse class="st7" cx="30.28" cy="15.07" rx=".07" ry=".09"/>
                <ellipse class="st7" cx="29.88" cy="13.95" rx=".07" ry=".09"/>
                <ellipse class="st7" cx="29.31" cy="12.9" rx=".07" ry=".09"/>
                <ellipse class="st7" cx="28.49" cy="12.09" rx=".07" ry=".09"/>
              </g>
            </g>
          </g>
        </g>
      </g>
    </g>
    <g id="Eye-2">
      <path class="st7" d="M36.2,14.43c-1.05,1.17-3.72,1.8-4.69.93s.14-2.9,1.2-4.07,2.69-1.42,3.65-.55.89,2.52-.16,3.69Z"/>
      <ellipse class="st7" cx="26.49" cy="12.47" rx=".89" ry="1.17"/>
      <ellipse class="st7" cx="26.83" cy="12.99" rx=".24" ry=".32"/>
    </g>
    <path id="Outline-2" class="st6" d="M30.09,8.98c-1.08-1.77.3-3.45,1.45-3.45s1.45,1.05,1.45,1.05c0,0,.39-.59,1.38-.16s1.25,1.54,1.25,1.54c0,0,.49-.59,1.41-.36s1.22,1.74,1.22,1.74c0,0,.99-.49,1.77,0s.85,1.61.85,1.61c0,0,1.05-.59,1.97.49s.26,3.19.26,3.19c8.38,13.05-.77,23.03-6.25,25.76-1.11,12.79-6.5,22.38-10.44,21.07s-1.05-12.19,6.21-21.36c-5.82-7.26-2.23-13.24.56-17.02.35-.53.07-2.4-2.56-4.34.95-1.22,4.57-5.49-.53-9.76h0Z"/>
    <g id="Beak-3">
      <g id="Beak-4">
        <path class="st7" d="M5.69,19.12C9.98,7.98,26.39,7.54,29.65,8.67s5.82,8.03,1.92,10.89c-16.86,3.06-21.89,2.07-21.89,2.07,0,0,5.77-6.16,19.17-5.73-13.55-2.84-23.16,3.22-23.16,3.22Z"/>
        <g>
          <path class="st7" d="M5.69,19.12C9.98,7.98,26.39,7.54,29.65,8.67s5.82,8.03,1.92,10.89c-16.86,3.06-21.89,2.07-21.89,2.07,0,0,5.77-6.16,19.17-5.73-13.55-2.84-23.16,3.22-23.16,3.22Z"/>
          <g class="st9">
            <g>
              <path class="st7" d="M32.27,11.05c-6.32-.7-17.69-1.34-27.25,9.99C7.39,7.4,26.99,6.25,30.59,8.62s8.01,3.13,1.69,2.43h-.01Z"/>
              <path class="st7" d="M12.37,16.39c5.24-4.59,20.68-3.86,21.3-2.98s-.03,2.54-.32,3.29c-.99.05-1.65-.16-2.5-.31-.74-.12-1.43-.39-2.22-.56-9.44-.53-20.72,4.47-16.27.56h0Z"/>
              <path class="st7" d="M15.79,22.22c-3.41-.79-3.25-2.56-2.73-3.81-2.68.85-5.37,3.71-6.08,3.81,0,0,2.53.95,8.81,0Z"/>
            </g>
          </g>
        </g>
        <path class="st3" d="M5.69,19.12C9.98,7.98,26.39,7.54,29.65,8.67s5.82,8.03,1.92,10.89c-16.86,3.06-21.89,2.07-21.89,2.07,0,0,5.77-6.16,19.17-5.73-13.55-2.84-23.16,3.22-23.16,3.22Z"/>
      </g>
      <path class="st7" d="M28.46,15.78c1.64.32,3.21.95,4.9.92-1.67.08-3.29-.52-4.91-.8l.02-.12h-.01Z"/>
    </g>
  </g>
</svg>